<?xml version="1.0" encoding="UTF-8" standalone="no"?>
<!-- Created with Inkscape (http://www.inkscape.org/) -->

<svg
   xmlns:dc="http://purl.org/dc/elements/1.1/"
   xmlns:cc="http://creativecommons.org/ns#"
   xmlns:rdf="http://www.w3.org/1999/02/22-rdf-syntax-ns#"
   xmlns:svg="http://www.w3.org/2000/svg"
   xmlns="http://www.w3.org/2000/svg"
   xmlns:sodipodi="http://sodipodi.sourceforge.net/DTD/sodipodi-0.dtd"
   xmlns:inkscape="http://www.inkscape.org/namespaces/inkscape"
   width="346.61029mm"
   height="198.6524mm"
   viewBox="0 0 346.6103 198.65241"
   version="1.1"
   id="svg8"
   inkscape:version="0.92.1 r15371"
   sodipodi:docname="1c-cloud.svg">
  <defs
     id="defs2" />
  <sodipodi:namedview
     id="base"
     pagecolor="#ffffff"
     bordercolor="#666666"
     borderopacity="1.0"
     inkscape:pageopacity="0.0"
     inkscape:pageshadow="2"
     inkscape:zoom="0.35"
     inkscape:cx="1089.639"
     inkscape:cy="511.15881"
     inkscape:document-units="mm"
     inkscape:current-layer="layer1"
     showgrid="false"
     fit-margin-top="0"
     fit-margin-left="0"
     fit-margin-right="0"
     fit-margin-bottom="0"
     inkscape:window-width="1600"
     inkscape:window-height="837"
     inkscape:window-x="-8"
     inkscape:window-y="147"
     inkscape:window-maximized="1" />
  <metadata
     id="metadata5">
    <rdf:RDF>
      <cc:Work
         rdf:about="">
        <dc:format>image/svg+xml</dc:format>
        <dc:type
           rdf:resource="http://purl.org/dc/dcmitype/StillImage" />
        <dc:title></dc:title>
      </cc:Work>
    </rdf:RDF>
  </metadata>
  <g
     inkscape:label="Layer 1"
     inkscape:groupmode="layer"
     id="layer1"
     transform="translate(182.467,-85.425026)">
    <g
       transform="translate(-68.834008,47.745037)"
       id="layer1-98"
       inkscape:label="Layer 1">
      <g
         style="fill:#000000"
         inkscape:label="Layer 1"
         id="layer1-9"
         transform="translate(-53.623161,-9.8146857)">
        <path
           style="fill:#000000;stroke-width:0.26458335"
           d="m 46.006003,245.96691 c -0.097,-0.097 -0.17639,-2.22396 -0.17639,-4.72655 v -4.55017 l 1.19517,-0.45644 c 1.27874,-0.48836 2.19298,-1.48946 2.87985,-3.15349 0.34492,-0.8356 0.4229,-2.13085 0.4229,-7.02469 0,-4.31404 0.0892,-6.08941 0.3175,-6.31769 0.48414,-0.48414 15.38233,-0.45049 15.78579,0.0357 0.19696,0.23731 0.31607,3.03615 0.36313,8.53281 l 0.07,8.17966 1.19063,0.13229 1.19062,0.13229 0.0794,1.52135 c 0.0674,1.29141 0.15547,1.52136 0.58294,1.52136 0.34447,0 0.67468,-0.38681 1.04513,-1.22426 0.29785,-0.67334 0.54154,-1.38933 0.54154,-1.59109 0,-0.20176 0.10697,-0.57358 0.2377,-0.82626 0.13073,-0.25269 0.55509,-1.3524 0.94301,-2.44381 0.38792,-1.0914 0.87627,-2.37537 1.08522,-2.85325 0.20895,-0.47788 0.37991,-1.08311 0.37991,-1.34496 0,-0.26185 0.0753,-0.55136 0.16726,-0.64336 0.15395,-0.15395 0.96784,-2.38218 2.1939,-6.00635 0.65027,-1.92217 1.13924,-2.999 1.46991,-3.23709 0.48069,-0.34611 6.60913,-0.23507 7.0774,0.12824 0.23446,0.1819 0.78853,1.40229 1.23129,2.71198 0.44275,1.30969 1.17226,3.39328 1.62114,4.63021 0.44888,1.23693 1.04101,2.9038 1.31585,3.70417 0.27485,0.80036 0.75003,2.11005 1.05595,2.91041 1.2466,3.26132 2.44653,6.77849 2.48234,7.27604 0.0353,0.48974 -0.14919,0.53495 -2.47546,0.60674 -3.53989,0.10924 -3.59389,0.0856 -4.12472,-1.80627 -0.24582,-0.87612 -0.54118,-1.65118 -0.65635,-1.72236 -0.3104,-0.19184 -7.59101,-0.32495 -7.86733,-0.14384 -0.37496,0.24577 -0.7608,1.13103 -0.94982,2.17925 -0.27265,1.51202 -0.55522,1.61548 -4.1236,1.50982 l -3.18028,-0.0942 1e-5,1.9976 c 0,1.20093 -0.12662,2.12423 -0.31749,2.31511 -0.44203,0.44202 -4.02869,0.42224 -4.39926,-0.0243 -0.156,-0.18797 -0.31941,-1.17024 -0.36313,-2.18282 l -0.0795,-1.84105 -6.52915,-0.0707 c -7.3996,-0.0802 -6.8866,-0.24701 -6.72543,2.18739 0.13907,2.10061 -0.0315,2.24896 -2.58563,2.24896 -1.20755,0 -2.27493,-0.0794 -2.37194,-0.17639 z m 14.50798,-15.43403 v -5.95312 h -2.24895 -2.24896 l -0.15821,4.23333 c -0.16364,4.37892 -0.33886,5.15321 -1.48691,6.57084 -0.33406,0.4125 -0.53781,0.86258 -0.45277,1.00017 0.0876,0.14177 1.54996,0.21804 3.3752,0.17603 l 3.2206,-0.0741 z m 23.22532,1.52319 c -0.0319,-0.5447 -0.34738,-1.85438 -0.70104,-2.91042 -0.35365,-1.05603 -0.71677,-2.24748 -0.80691,-2.64766 -0.12484,-0.55419 -0.32035,-0.72761 -0.82032,-0.72761 -0.4122,0 -0.65642,0.15029 -0.65642,0.40395 0,0.22217 -0.30767,1.38303 -0.68371,2.57968 -1.1559,3.67836 -1.20675,3.88398 -1.03086,4.16856 0.10343,0.16737 1.07382,0.24613 2.46396,0.19998 l 2.29332,-0.0761 z m 72.289267,9.88081 c -3.34843,-0.49692 -6.5503,-2.93423 -8.02969,-6.11233 -0.90087,-1.93528 -0.92366,-2.0662 -0.92101,-5.29167 0.003,-3.12483 0.047,-3.40217 0.80471,-5.02708 1.41809,-3.04093 3.35317,-4.8 6.55977,-5.96308 3.24424,-1.17673 7.53615,-0.8398 10.79965,0.84781 2.02021,1.0447 4.60435,4.33787 5.06513,6.45489 0.38008,1.74626 0.45438,5.6467 0.12821,6.73017 -0.83005,2.75724 -1.23608,3.49897 -2.76552,5.052 -2.28978,2.3251 -4.33093,3.21799 -7.72958,3.38126 -1.42382,0.0684 -3.18406,0.036 -3.91167,-0.072 z m 5.15389,-5.31578 c 2.9452,-1.50253 4.1214,-4.87093 3.02173,-8.65365 -1.2258,-4.2166 -6.49157,-5.52808 -9.39316,-2.33945 -1.27679,1.40311 -1.56058,2.29505 -1.56058,4.90488 0,3.24441 0.78321,4.86149 2.88491,5.95639 1.56171,0.81359 3.60607,0.86699 5.0471,0.13183 z m -200.706307,4.65679 c -0.0812,-0.2117 -0.0134,-0.63589 0.15078,-0.94264 0.16417,-0.30675 0.52491,-1.23879 0.80165,-2.0712 0.27673,-0.8324 0.84837,-2.46596 1.27029,-3.63013 1.72662,-4.76406 2.22335,-6.15941 2.73145,-7.67291 0.29312,-0.87313 0.63773,-1.82563 0.7658,-2.11667 0.12807,-0.29104 0.55593,-1.48167 0.9508,-2.64583 0.39487,-1.16417 0.83194,-2.2655 0.97126,-2.4474 0.28739,-0.37524 6.69521,-0.47514 7.26507,-0.11327 0.27357,0.17373 1.58272,3.45256 2.44854,6.13254 0.11754,0.3638 0.59168,1.67349 1.05365,2.91042 0.46197,1.23693 0.9356,2.60614 1.05251,3.04271 0.23229,0.86736 0.67533,2.08163 1.06189,2.91041 0.13575,0.29105 0.62593,1.66026 1.08928,3.04271 0.46335,1.38245 0.93683,2.69855 1.05217,2.92467 0.45305,0.88813 -0.0955,1.06547 -3.05389,0.98734 -3.15455,-0.0833 -3.09868,-0.0524 -3.57978,-1.98187 -0.45712,-1.83331 -0.56386,-1.87429 -4.74024,-1.82001 -2.03896,0.0265 -3.78622,0.12721 -3.88278,0.22377 -0.0966,0.0966 -0.43313,0.92415 -0.74791,1.83907 l -0.57232,1.66349 -2.97026,0.0749 c -2.40448,0.0606 -2.99839,0.002 -3.11796,-0.31006 z m 13.73209,-8.76063 c -0.0761,-0.78114 -0.35679,-2.04285 -0.58852,-2.64584 -0.49018,-1.27553 -1.0797,-3.28127 -1.0797,-3.67353 0,-0.26762 -0.22264,-0.42666 -0.59531,-0.42525 -0.5,0.002 -0.67505,0.26667 -1.09336,1.65365 -0.27393,0.90826 -0.73184,2.39894 -1.01758,3.31262 -0.74664,2.3874 -0.66873,2.47557 2.10662,2.38402 2.1378,-0.0705 2.31539,-0.11794 2.26785,-0.60567 z m 11.74601,8.96041 c -0.10178,-0.10179 -0.18506,-5.04452 -0.18506,-10.98384 v -10.79878 l 0.68745,-0.17254 c 0.37809,-0.0949 3.08676,-0.11647 6.0192703,-0.048 4.41898,0.10326 5.49037,0.20523 6.25787,0.59561 1.65570003,0.84215 2.63924,1.73877 3.44124,3.13715 0.69841,1.21775 0.7874,1.61945 0.78961,3.56404 0.003,2.64655 -0.68861,4.27497 -2.38686997,5.62002 -1.50818,1.1945 -2.75086003,1.56067 -5.96364003,1.75724 -3.25457,0.19914 -2.9954,-0.16321 -3.09131,4.32176 l -0.0651,3.04271 -2.6592103,0.0748 c -1.46257,0.0411 -2.74249,-0.008 -2.84427,-0.11024 z m 8.8374403,-12.03977 c 1.52859,-0.51198 2.09,-1.21285 2.09,-2.60919 0,-1.62757 -0.78656,-2.4014 -2.7136,-2.6697 -1.29104,-0.17975 -1.42871,-0.14427 -1.98144,0.51066 -0.48565,0.57546 -0.59424,1.02614 -0.59531,2.47087 -0.002,2.52111 0.80436,3.09986 3.20035,2.29736 z m 11.79139,12.03109 c -0.097,-0.097 -0.17639,-5.02537 -0.17639,-10.9519 0,-9.58178 0.0464,-10.7933 0.41852,-10.93611 0.83696,-0.32117 12.4221397,-0.17869 12.7577297,0.1569 0.44633,0.44632 0.42188,4.029 -0.03,4.40407 -0.19769,0.16407 -1.76633,0.32064 -3.63802,0.36312 l -3.29047,0.0747 v 1.5875 1.5875 l 3.175,0.13229 3.175,0.13229 0.077,2.0354 c 0.0694,1.83442 0.0225,2.06454 -0.47441,2.33051 -0.30327,0.1623 -0.8737,0.27021 -1.26762,0.2398 -0.39393,-0.0304 -1.63896,-0.0374 -2.76675,-0.0154 l -2.05052,0.0399 v 1.84704 c 0,2.20298 -0.21099,2.09388 4.23334,2.18893 l 3.0427,0.0651 0.0796,1.84655 c 0.0438,1.0156 0.0118,2.11693 -0.0712,2.44739 l -0.1508,0.60085 h -6.43315 c -3.5382397,0 -6.5125297,-0.0794 -6.6095397,-0.17639 z M 23.464413,241.3233 c -0.0718,-0.18704 -0.0994,-5.16195 -0.0613,-11.05535 l 0.0692,-10.71528 2.67226,-0.075 c 1.99448,-0.0559 2.74748,0.0157 2.96879,0.28232 0.17891,0.21558 0.32583,1.81934 0.37044,4.04371 l 0.0739,3.68643 3.68317,0.0739 c 2.37991,0.0477 3.78423,-0.0272 3.96875,-0.21171 0.17332,-0.17333 0.29602,-1.68973 0.31213,-3.85754 0.0146,-1.96457 0.14417,-3.68955 0.28791,-3.83329 0.14789,-0.14788 1.39994,-0.22825 2.88386,-0.18511 l 2.62251,0.0762 0.0691,11.04636 0.0691,11.04635 h -2.89229 -2.8923 l -0.1717,-0.78176 c -0.0944,-0.42997 -0.14757,-1.65036 -0.11807,-2.71198 0.0295,-1.06162 0.0378,-2.73707 0.0184,-3.72323 l -0.0353,-1.79301 -3.9026,0.0732 -3.90261,0.0732 -0.13229,4.36563 -0.13229,4.36562 -2.84912,0.0752 c -2.13283,0.0563 -2.88193,-0.0104 -2.97962,-0.26494 z m 79.639697,2.7e-4 c -0.0718,-0.18721 -0.0995,-5.16226 -0.0614,-11.05566 l 0.0692,-10.71524 9.49382,-0.0695 c 6.78682,-0.0497 9.59701,0.0161 9.85573,0.23083 0.29515,0.24495 0.36116,2.23458 0.35786,10.78515 -0.002,5.76664 -0.10126,10.63801 -0.22008,10.82527 -0.15886,0.25038 -0.94543,0.32039 -2.97251,0.26458 l -2.75648,-0.0759 -0.14163,-8.46667 c -0.0779,-4.65666 -0.1672,-8.4997 -0.19844,-8.54007 -0.0312,-0.0404 -1.75345,-0.0404 -3.82712,0 l -3.77031,0.0734 -0.1323,8.46666 -0.13229,8.46667 -2.71671,0.0755 c -2.0265,0.0563 -2.74989,-0.011 -2.84733,-0.26493 z m 24.27008,0.004 c -0.23627,-0.23627 -0.3175,-3.00317 -0.3175,-10.81552 0,-9.04387 0.0554,-10.54399 0.39989,-10.82989 0.30341,-0.25181 1.75682,-0.30297 6.02452,-0.2121 l 5.62464,0.11978 1.57136,0.79709 c 3.39015,1.71966 4.85557,6.0753 3.1909,9.48418 -0.74382,1.5232 -2.27026,3.3073 -2.82966,3.3073 -0.21013,0 -0.49517,0.10454 -0.63341,0.23231 -0.31907,0.2949 -3.96514,0.82602 -5.67051,0.82602 -0.71307,0 -1.38143,0.13743 -1.48524,0.30539 -0.10381,0.16797 -0.16443,1.63103 -0.1347,3.25125 0.0297,1.62022 -0.0242,3.14967 -0.11977,3.39877 -0.1475,0.3844 -0.56179,0.45292 -2.73841,0.45292 -1.64191,0 -2.67883,-0.11423 -2.88211,-0.3175 z m 9.35996,-12.0902 c 1.41566,-0.64297 1.90834,-1.72733 1.46188,-3.21749 -0.37882,-1.26438 -1.04814,-1.72293 -2.83738,-1.94383 -2.17986,-0.26914 -2.21654,-0.22349 -2.21654,2.75862 0,1.82881 0.0977,2.63489 0.33073,2.72892 0.72012,0.29058 2.23743,0.1388 3.26131,-0.32622 z m 37.5874,11.821 c -0.089,-0.33216 -0.16342,-5.19378 -0.16541,-10.80361 -0.003,-7.58445 0.0778,-10.2811 0.31389,-10.51719 0.38266,-0.38265 12.02955,-0.44907 12.62528,-0.072 0.42003,0.26586 0.50971,4.13492 0.10522,4.53941 -0.12369,0.12369 -1.71111,0.25854 -3.52759,0.29967 l -3.3027,0.0748 -0.13229,8.46666 -0.13229,8.46667 -2.81116,0.0748 c -2.73259,0.0727 -2.81569,0.0579 -2.97295,-0.52917 z m 16.28806,0.2692 c -0.23627,-0.23627 -0.3175,-3.00317 -0.3175,-10.81552 0,-9.00931 0.0563,-10.54473 0.39692,-10.82743 0.29941,-0.24849 1.7782,-0.30071 6.01927,-0.21257 5.4202,0.11265 5.66992,0.14151 6.94527,0.80256 1.41777,0.73488 2.62213,1.91406 3.40585,3.33468 0.74602,1.35222 0.6994,4.91854 -0.0842,6.43839 -0.75235,1.45937 -1.74932,2.52317 -2.92481,3.12091 -1.12048,0.56977 -3.87008,1.06815 -5.89304,1.06815 -0.81624,0 -1.56391,0.12918 -1.66149,0.28708 -0.0976,0.15789 -0.15846,1.65689 -0.13528,3.33111 0.0276,1.99399 -0.0647,3.17273 -0.26747,3.41709 -0.40187,0.48423 -5.00821,0.5309 -5.48356,0.0556 z m 8.54605,-11.88017 c 1.64931,-0.44955 2.24895,-1.15741 2.24895,-2.65481 0,-1.62027 -0.55967,-2.16731 -2.67713,-2.61666 -2.23472,-0.47424 -2.4388,-0.2312 -2.37145,2.82424 0.0636,2.88543 0.3318,3.11988 2.79963,2.44723 z m 8.74019,11.34637 c 0.1029,-0.47767 0.35134,-1.19 0.55208,-1.58295 0.20076,-0.39296 0.36502,-0.88537 0.36502,-1.09424 0,-0.20887 0.17785,-0.7208 0.39523,-1.13762 0.21741,-0.41681 0.396,-0.95918 0.39688,-1.20525 0,-0.24607 0.10697,-0.51251 0.23571,-0.59208 0.12875,-0.0796 0.29457,-0.47354 0.36852,-0.87551 0.15512,-0.84349 1.04079,-3.34739 2.3174,-6.55167 0.11597,-0.29105 0.2712,-0.7673 0.34497,-1.05834 0.0738,-0.29104 0.51419,-1.54119 0.97869,-2.77812 0.4645,-1.23693 0.92474,-2.60494 1.02272,-3.04003 0.26945,-1.1963 1.06781,-1.44957 4.58325,-1.45399 2.97701,-0.004 3.11946,0.0216 3.51491,0.6251 0.22666,0.34594 0.51601,0.97102 0.64296,1.38906 0.20529,0.67588 1.75961,5.02711 2.82337,7.90382 0.21524,0.58208 0.61838,1.71317 0.89588,2.51354 0.27752,0.80036 0.8709,2.46724 1.31865,3.70417 1.74419,4.81829 1.90045,5.32516 1.75694,5.69912 -0.11739,0.30596 -0.74771,0.38629 -3.03101,0.38629 h -2.88277 l -0.4328,-1.13332 c -0.23808,-0.62333 -0.43284,-1.3292 -0.43284,-1.5686 0,-1.06973 -0.59324,-1.21466 -4.63864,-1.13325 -2.12463,0.0428 -3.89017,0.11949 -3.92346,0.17052 -0.0333,0.051 -0.29985,0.86668 -0.5924,1.81257 l -0.53187,1.71979 -3.11721,0.0747 -3.11724,0.0747 z m 13.56929,-8.3425 c 0.0465,-0.32717 -0.20273,-1.51779 -0.55378,-2.64583 -0.35104,-1.12805 -0.80306,-2.62006 -1.00446,-3.3156 -0.66479,-2.29579 -1.18001,-1.52511 -2.6461,3.95808 -0.71424,2.67124 -0.64354,2.76725 1.96927,2.67452 2.00131,-0.071 2.15646,-0.11762 2.23507,-0.67117 z m 10.44368,8.87247 c -0.26207,-0.33278 -0.0574,-3.31648 0.28655,-4.17658 0.0873,-0.21829 0.28371,-1.40891 0.43653,-2.64584 0.45543,-3.68601 0.74801,-5.80516 1.18727,-8.59896 0.22878,-1.45521 0.48461,-3.36021 0.56851,-4.23333 0.0839,-0.87313 0.27204,-1.73633 0.41817,-1.91823 0.36545,-0.45497 5.22306,-0.4538 5.8456,0.001 0.24982,0.18268 0.67831,1.22447 0.95218,2.31511 0.2739,1.09063 0.61415,2.34016 0.75613,2.77672 0.14195,0.43656 0.38939,1.27 0.5498,1.85208 1.32737,4.81633 1.65471,5.68854 2.13498,5.68854 0.10091,0 0.50837,-1.10133 0.90546,-2.44739 0.39711,-1.34607 0.84743,-2.80459 1.0007,-3.24115 0.1533,-0.43656 0.37368,-1.21047 0.48972,-1.71979 0.37444,-1.64324 1.40888,-4.88508 1.66741,-5.22552 0.17089,-0.22502 1.08042,-0.33073 2.8457,-0.33073 3.08665,0 3.42609,0.2052 3.42609,2.07117 0,0.68179 0.12125,1.65555 0.26947,2.16391 0.14822,0.50836 0.38844,1.93633 0.5338,3.17325 0.14536,1.23693 0.4499,3.43959 0.6767,4.89479 0.54541,3.49937 0.83248,5.67383 1.05796,8.0137 l 0.18579,1.92828 -2.61863,-0.0762 -2.61864,-0.0762 -0.30175,-1.05834 c -0.35195,-1.23436 -0.86083,-4.89581 -1.11062,-7.99109 -0.1946,-2.41165 -0.61698,-3.20262 -1.25127,-2.34323 -0.20849,0.28247 -0.37907,0.72336 -0.37907,0.97974 0,0.25638 -0.10665,0.73964 -0.23704,1.07391 -0.13036,0.33427 -0.38078,1.14354 -0.55652,1.79838 -0.17571,0.65485 -0.47077,1.66688 -0.65564,2.24896 -0.18489,0.58208 -0.55036,1.83224 -0.81216,2.77813 -0.67652,2.44425 -0.94195,2.68508 -2.85557,2.59098 -1.75834,-0.0865 -1.72315,-0.0508 -2.42218,-2.45869 -0.25347,-0.87313 -0.54909,-1.88516 -0.65691,-2.24896 -0.10784,-0.3638 -0.38251,-1.3163 -0.61039,-2.11667 -1.21201,-4.25671 -1.14335,-4.10104 -1.80875,-4.10104 -0.69352,0 -0.60849,-0.37347 -1.26529,5.55625 -0.16118,1.45521 -0.4413,3.24115 -0.62246,3.96875 l -0.32938,1.32292 -2.4072,0.0755 c -1.72188,0.054 -2.48346,-0.0213 -2.67505,-0.26458 z m 27.80107,-0.0722 c -0.083,-0.21646 -0.0198,-0.77001 0.1406,-1.23011 0.16039,-0.4601 0.29348,-1.32479 0.29575,-1.92154 0.003,-0.59675 0.17664,-1.79937 0.38746,-2.6725 0.21082,-0.87312 0.38756,-1.99234 0.39275,-2.48714 0.005,-0.4948 0.17835,-1.80449 0.38486,-2.91041 0.20648,-1.10593 0.50779,-3.08234 0.66953,-4.39203 0.16176,-1.30969 0.44209,-3.21469 0.62296,-4.23333 l 0.32882,-1.85209 2.79858,-0.0747 c 2.03851,-0.0544 2.86914,0.0175 3.05832,0.26458 0.30012,0.39201 0.67884,1.4254 1.1425,3.1174 0.34197,1.24798 0.80446,2.85077 1.43142,4.96094 0.20537,0.69123 0.53279,1.83728 0.7276,2.54678 0.19482,0.70951 0.50454,1.34791 0.68829,1.41867 0.4984,0.19191 1.12112,-0.44017 1.12112,-1.13796 0,-0.33739 0.10591,-0.6789 0.23535,-0.7589 0.12943,-0.08 0.29874,-0.53351 0.37618,-1.0078 0.0775,-0.47429 0.32875,-1.48743 0.5584,-2.25141 0.71512,-2.37892 1.22399,-4.13285 1.46024,-5.03306 0.12496,-0.47623 0.42047,-1.16084 0.65669,-1.52135 0.40611,-0.61977 0.56254,-0.65527 2.87081,-0.65144 1.34271,0.002 2.57921,0.0918 2.74778,0.19908 0.33684,0.21432 1.14872,3.80022 1.14872,5.07359 0,0.4406 0.11575,1.30883 0.25722,1.92938 0.33494,1.46913 1.04707,6.5204 1.49165,10.58074 0.0913,0.83324 0.33038,1.65149 0.53141,1.81834 0.20989,0.17418 0.36555,0.80026 0.36555,1.47026 v 1.16689 l -2.97656,-0.0748 -2.97657,-0.0748 -0.16121,-1.71979 c -0.21936,-2.34021 -0.97663,-7.87057 -1.22457,-8.9432 -0.37412,-1.61854 -0.95869,-1.01448 -1.74138,1.79945 -0.22265,0.80036 -0.71141,2.47427 -1.08619,3.7198 -0.37479,1.24553 -0.68144,2.39652 -0.68144,2.55775 0,0.16124 -0.23389,0.83881 -0.51977,1.50572 l -0.51975,1.21256 h -1.68902 -1.68902 l -0.4095,-0.99219 c -0.22524,-0.5457 -0.61367,-1.76609 -0.86317,-2.71197 -0.24948,-0.94589 -0.54666,-1.95792 -0.66035,-2.24896 -0.39238,-1.00434 -1.58692,-5.34343 -1.58692,-5.76438 0,-0.55223 -0.5339,-0.87376 -0.78264,-0.47132 -0.10686,0.17292 -0.33874,1.52762 -0.51527,3.01046 -0.17653,1.48284 -0.37632,3.05326 -0.44395,3.48982 -0.0676,0.43656 -0.21801,1.75315 -0.33416,2.92575 -0.11616,1.17261 -0.2989,2.27394 -0.40611,2.4474 -0.31041,0.50225 -5.42756,0.43111 -5.62301,-0.0782 z m -296.827157,-33.73769 -1.5875,-0.13229 -0.13229,-52.91666 -0.13229,-52.91667 -10.45104,-0.13229 -10.45104,-0.13229 -0.0692,-10.386493 -0.0692,-10.386489 20.9713,0.06774 20.9713,0.06774 0.0667,63.221642 c 0.0367,34.77191 -0.0338,63.32211 -0.15658,63.4449 -0.24387,0.24388 -16.39166,0.4152 -18.96011,0.20116 z m 29.0579103,-0.32764 c -0.11749,-0.1836 -0.25487,-31.40912 -0.30531,-69.39006 -0.0504,-37.980943 -0.1845,-69.153537 -0.29792,-69.272441 -0.11342,-0.118903 -6.5856803,-0.204374 -14.3828003,-0.189935 -7.79712,0.01444 -14.48183,-0.05036 -14.85492,-0.143997 l -0.67832,-0.17025 0.0692,-10.223148 0.0692,-10.223148 25.51585,-0.06748 c 15.1127603,-0.03997 25.57649,0.03063 25.66459,0.17316 0.0818,0.132351 0.0892,36.11959 0.0164,79.971649 l -0.1323,79.731 -10.2350697,0.0692 c -8.01034,0.0542 -10.28151,-0.003 -10.44869,-0.26459 z M 99.540033,204.58753 c -3.22389,-0.28189 -6.16574,-0.68405 -8.59896,-1.17549 -1.16417,-0.23513 -2.65245,-0.5313 -3.30729,-0.65816 -0.65485,-0.12685 -1.54782,-0.34402 -1.98438,-0.4826 -0.43656,-0.13857 -1.32953,-0.39992 -1.98437,-0.58079 -2.5176,-0.69534 -7.41551,-2.40602 -9.21989,-3.22021 -10.54077,-4.75626 -17.86827,-9.65521 -24.91136,-16.65499 -4.04431,-4.01943 -8.19671,-9.18459 -10.60794,-13.19518 -0.48119,-0.80036 -0.95761,-1.51474 -1.0587,-1.5875 -0.24151,-0.17383 -3.66028,-6.90008 -4.3706,-8.59896 -1.86102,-4.45094 -3.3746,-9.07758 -4.06818,-12.43541 -1.18039,-5.71458 -2.11632,-13.17573 -2.12413,-16.93334 -0.01,-4.68447 1.35389,-15.21589 2.55226,-19.71146 0.21335,-0.80036 0.5113,-1.93146 0.66211,-2.51354 0.6485,-2.50301 2.21534,-7.093133 3.34168,-9.789583 1.06711,-2.55465 4.0024,-8.57005 4.90337,-10.04867 4.21161,-6.911556 7.9365,-11.788882 12.64352,-16.55496 5.89676,-5.970755 12.41679,-10.778721 19.69015,-14.51981 0.7276,-0.374247 1.38245,-0.749569 1.45521,-0.834048 0.255,-0.296078 7.2984,-3.117261 9.525,-3.815174 1.23692,-0.387706 2.4557,-0.814199 2.70839,-0.947761 0.25268,-0.133563 0.65894,-0.242842 0.90278,-0.242842 0.24385,0 1.10867,-0.189627 1.92182,-0.421394 2.88609,-0.822597 5.9079,-1.427861 8.75451,-1.753511 3.53424,-0.404317 15.798667,-0.552205 18.653117,-0.224925 2.89364,0.331772 7.13966,0.99652 8.59896,1.346235 4.70936,1.128575 6.62722,1.644321 7.80521,2.098959 0.29104,0.112326 1.00542,0.353493 1.5875,0.535926 0.58208,0.182434 1.41552,0.480417 1.85208,0.662185 0.43657,0.181769 1.32953,0.538798 1.98438,0.793398 3.9238,1.525559 10.09049,4.829084 14.02292,7.512148 8.3946,5.727575 16.10369,13.675992 21.74807,22.423231 0.70837,1.097772 4.18109,7.233823 4.18109,7.387683 0,0.0455 0.40271,0.95457 0.89491,2.02022 2.61362,5.6587 4.67423,11.643043 5.72349,16.621933 0.16867,0.80036 0.41541,1.88574 0.54831,2.41195 0.13289,0.5262 0.24163,1.28307 0.24163,1.68193 0,0.39886 0.17087,1.51614 0.37972,2.48285 0.38558,1.78475 1.22174,9.68601 1.21272,11.45944 -0.01,1.94629 0.80264,1.80758 -10.58828,1.80758 -11.69924,0 -10.58333,0.28074 -10.58333,-2.66256 0,-3.59975 -2.19346,-15.75868 -2.98579,-16.55101 -0.10407,-0.10406 -0.18994,-0.43725 -0.19084,-0.74042 -7.9e-4,-0.30317 -0.17949,-0.89225 -0.39687,-1.30907 -0.21739,-0.41681 -0.39897,-0.9526 -0.40352,-1.19062 -0.005,-0.23803 -0.30112,-1.02809 -0.65904,-1.7557 -0.35792,-0.7276 -0.65186,-1.44444 -0.65319,-1.59298 -0.005,-0.56017 -3.53956,-7.148563 -5.22298,-9.735643 -2.80131,-4.30504 -6.89812,-8.971442 -10.65444,-12.135761 -8.90526,-7.501781 -18.91001,-11.641084 -31.08854,-12.862383 -2.20091,-0.220714 -12.554527,0.0737 -14.816667,0.421319 -3.709,0.569962 -11.59191,2.720798 -11.92051,3.252486 -0.0821,0.132828 -0.35712,0.241505 -0.61117,0.241505 -0.25405,0 -2.12226,0.825021 -4.15158,1.833377 -9.00755,4.475821 -16.41897,11.167594 -22.14503,19.994747 -2.14213,3.30226 -5.754,10.415143 -5.754,11.331403 0,0.1852 -0.0946,0.44984 -0.21024,0.58808 -0.11563,0.13825 -0.42896,0.96573 -0.69629,1.83885 -0.26733,0.87313 -0.63666,2.06375 -0.82074,2.64584 -0.57859,1.82965 -1.46146,5.45659 -1.73892,7.14375 -0.11966,0.7276 -0.4184,3.52557 -0.66387,6.21771 -0.57516,6.30799 -0.25781,10.94722 1.13116,16.53646 0.53666,2.15947 1.63,5.63865 2.09122,6.65457 0.20818,0.45855 0.37851,0.91478 0.37851,1.01384 0,0.0991 0.76914,1.71675 1.70919,3.59485 3.03037,6.05427 6.1247,10.24644 11.43186,15.48776 2.72744,2.6936 7.31645,6.45418 7.87599,6.45418 0.0869,0 0.89719,0.53789 1.80067,1.19531 1.74759,1.27163 7.70868,4.31065 9.87894,5.03637 0.71627,0.23952 1.6595,0.5912 2.09606,0.78153 0.43656,0.19032 1.4486,0.52519 2.24896,0.74415 0.80036,0.21896 1.99099,0.54533 2.64583,0.72526 2.62993,0.72261 4.6917,1.05779 9.657297,1.56997 1.4135,0.1458 39.31693,0.24948 93.26562,0.25513 49.98641,0.005 91.03321,0.01 91.21511,0.0103 0.259,5.3e-4 0.33073,2.26776 0.33073,10.4518 v 10.45105 l -92.40573,-0.0419 c -50.82315,-0.0231 -93.41777,-0.13041 -94.654687,-0.23857 z m 2.248957,-33.44257 c -6.002157,-0.59651 -10.410227,-1.89365 -16.404167,-4.82718 -8.9284,-4.36971 -17.44502,-13.75852 -21.07132,-23.22922 -0.27875,-0.72801 -0.61266,-1.56178 -0.74202,-1.85282 -0.12936,-0.29105 -0.31435,-0.82683 -0.41109,-1.19063 -0.0967,-0.3638 -0.35413,-1.3163 -0.57198,-2.11667 -0.99449,-3.65365 -1.21806,-5.54301 -1.32909,-11.2318 -0.0896,-4.59336 -0.0266,-6.22552 0.30157,-7.80521 0.2282,-1.09855 0.54551,-2.65221 0.70513,-3.45257 0.52525,-2.6336 1.49144,-5.28454 3.44663,-9.45651 4.10588,-8.761073 11.98145,-16.628303 20.99066,-20.968444 1.21072,-0.583259 2.28432,-1.060466 2.38579,-1.060466 0.10147,0 0.55968,-0.167363 1.01823,-0.371915 1.53384,-0.684217 3.12446,-1.16396 6.65457,-2.007063 1.90271,-0.454429 7.100897,-1.048599 9.230427,-1.055068 2.22412,-0.0067 5.96219,0.40572 8.62895,0.952167 11.14609,2.283946 21.47685,9.074146 28.31042,18.607869 3.93396,5.4884 7.41614,13.72858 8.22372,19.46047 0.12302,0.87313 0.34706,2.00343 0.49789,2.5118 0.15082,0.50836 0.27422,2.26453 0.27422,3.9026 v 2.97831 h -10.41567 -10.41567 l -0.13716,-2.57969 c -0.0754,-1.41883 -0.28202,-3.175 -0.45907,-3.9026 -0.17705,-0.72761 -0.44013,-1.79917 -0.58463,-2.38125 -2.05086,-8.26156 -8.57576,-15.47218 -15.69093,-17.33996 -0.43656,-0.1146 -1.15093,-0.33153 -1.5875,-0.48206 -1.85326,-0.63904 -5.84827,-0.90337 -8.65149,-0.57244 -5.945497,0.7019 -10.532537,2.86433 -14.312877,6.74741 -3.77036,3.87283 -5.63863,7.55756 -7.18843,14.17749 -0.61351,2.62065 -0.5544,9.1472 0.10182,11.23988 0.5961,1.90099 1.75089,4.34251 2.74746,5.80885 2.44665,3.59995 8.22824,7.94226 12.22227,9.17963 6.174567,1.91291 -0.6861,1.78887 99.284897,1.79504 l 89.7599,0.006 v 10.45105 10.45104 l -90.81823,-0.035 c -68.14646,-0.0263 -91.61084,-0.11378 -93.99323,-0.35055 z m 113.90312,-42.6022 c -4.47418,-0.71366 -8.41629,-2.70183 -11.52355,-5.81178 -3.1998,-3.20258 -4.39023,-5.31164 -5.78149,-10.24298 -0.6257,-2.21781 -0.57056,-7.10295 0.10781,-9.55092 1.30853,-4.722003 3.91691,-8.658533 7.67223,-11.578833 1.66706,-1.29638 6.04748,-3.43578 7.03472,-3.43578 1.45592,0 2.10725,-0.64104 2.60511,-2.563974 1.39412,-5.384707 3.89896,-9.651175 7.94893,-13.539302 2.97371,-2.854883 5.66111,-4.543599 9.59837,-6.031445 5.58472,-2.110406 13.40215,-2.048423 19.24725,0.152608 1.49916,0.564519 5.5866,2.768292 6.5359,3.523854 3.53271,2.811789 6.76031,6.565021 8.03047,9.338286 0.77711,1.696762 1.18912,2.04185 3.29301,2.758149 3.43905,1.170876 6.70972,3.241019 9.39662,5.947504 2.63131,2.65046 3.78579,4.42308 5.78414,8.88099 0.16306,0.3638 0.44553,0.75667 0.62767,0.87304 0.2514,0.16064 0.33115,1.88983 0.33115,7.181593 0,5.95149 -0.058,6.99226 -0.39688,7.1223 -0.21828,0.0838 -0.39687,0.33624 -0.39687,0.56106 0,0.22483 -0.10488,0.61552 -0.23307,0.8682 -0.12817,0.25269 -0.49999,1.05475 -0.82624,1.78235 -1.15483,2.57556 -4.02072,6.3804 -6.01001,7.97915 -0.69578,0.55918 -1.32459,1.09058 -1.39735,1.18089 -0.18089,0.22455 -3.36785,2.1129 -4.50239,2.66777 -1.66835,0.81596 -4.32157,1.56495 -6.87469,1.9407 -3.35976,0.49446 -47.16815,0.49148 -50.27084,-0.003 z m 48.32255,-11.45006 c 3.01776,-0.6423 4.63968,-1.36429 6.66986,-2.96905 2.72663,-2.1553 4.54181,-5.95983 4.53496,-9.50512 -0.0109,-5.613803 -3.65239,-10.485773 -9.12424,-12.207273 -0.58208,-0.18313 -2.48708,-0.40482 -4.23333,-0.49264 l -3.175,-0.15969 -0.21053,-1.5875 c -0.85164,-6.421603 -4.65894,-11.116722 -10.90197,-13.44419 -2.03129,-0.75729 -7.34941,-0.725821 -9.61996,0.05692 -2.60316,0.897414 -4.12893,1.798164 -5.80229,3.425434 -1.88076,1.828993 -2.70764,2.914526 -3.64612,4.786688 -1.11977,2.233838 -1.24475,2.972918 -1.41242,8.350148 l -0.15671,5.02708 -4.8948,0.15769 c -6.0647,0.19537 -7.41428,0.59949 -9.8271,2.942663 -1.64184,1.59446 -3.03453,5.24537 -2.72134,7.13402 0.82746,4.98979 3.52734,7.66575 8.71199,8.63473 1.91442,0.3578 44.07183,0.21983 45.809,-0.14991 z"
           id="path34"
           inkscape:connector-curvature="0" />
      </g>
    </g>
  </g>
</svg>
