<?xml version="1.0" encoding="UTF-8" standalone="no"?>
<!-- Created with Inkscape (http://www.inkscape.org/) -->

<svg
   xmlns:dc="http://purl.org/dc/elements/1.1/"
   xmlns:cc="http://creativecommons.org/ns#"
   xmlns:rdf="http://www.w3.org/1999/02/22-rdf-syntax-ns#"
   xmlns:svg="http://www.w3.org/2000/svg"
   xmlns="http://www.w3.org/2000/svg"
   xmlns:sodipodi="http://sodipodi.sourceforge.net/DTD/sodipodi-0.dtd"
   xmlns:inkscape="http://www.inkscape.org/namespaces/inkscape"
   width="355.07748mm"
   height="181.30595mm"
   viewBox="0 0 355.07749 181.30596"
   version="1.1"
   id="svg8"
   inkscape:version="0.92.1 r15371"
   sodipodi:docname="1c.svg">
  <defs
     id="defs2" />
  <sodipodi:namedview
     id="base"
     pagecolor="#ffffff"
     bordercolor="#666666"
     borderopacity="1.0"
     inkscape:pageopacity="0.0"
     inkscape:pageshadow="2"
     inkscape:zoom="0.35"
     inkscape:cx="1097.4846"
     inkscape:cy="461.46698"
     inkscape:document-units="mm"
     inkscape:current-layer="layer1"
     showgrid="false"
     fit-margin-top="0"
     fit-margin-left="0"
     fit-margin-right="0"
     fit-margin-bottom="0"
     inkscape:window-width="1600"
     inkscape:window-height="837"
     inkscape:window-x="-8"
     inkscape:window-y="147"
     inkscape:window-maximized="1" />
  <metadata
     id="metadata5">
    <rdf:RDF>
      <cc:Work
         rdf:about="">
        <dc:format>image/svg+xml</dc:format>
        <dc:type
           rdf:resource="http://purl.org/dc/dcmitype/StillImage" />
        <dc:title></dc:title>
      </cc:Work>
    </rdf:RDF>
  </metadata>
  <g
     inkscape:label="Layer 1"
     inkscape:groupmode="layer"
     id="layer1"
     transform="translate(184.54281,-89.623844)">
    <g
       id="layer1-0"
       transform="translate(-10.755259,47.524592)">
      <path
         style="fill:#000000;stroke-width:0.26458332"
         d=""
         id="path105"
         inkscape:connector-curvature="0" />
      <path
         style="fill:#000000;stroke-width:0.26458332"
         d=""
         id="path103"
         inkscape:connector-curvature="0" />
      <path
         style="fill:#000000;stroke-width:0.26458332"
         d=""
         id="path101"
         inkscape:connector-curvature="0" />
      <path
         style="fill:#000000;stroke-width:0.26458332"
         d=""
         id="path99"
         inkscape:connector-curvature="0" />
      <path
         style="fill:#000000;stroke-width:0.26458335"
         d="m -145.29563,223.22773 c -0.0976,-0.0976 -0.176,-28.82143 -0.17421,-63.83073 l 0.003,-63.653276 -14.16035,-0.0685 -14.16036,-0.0684 0.0691,-10.77947 0.0691,-10.77947 24.6724,-0.0675 24.67239,-0.0675 v 74.746156 74.74615 h -10.40694 c -5.72382,0 -10.4868,-0.0798 -10.5844,-0.17745 z m 31.04551,-79.59442 V 63.861434 h -14.29043 -14.29044 l 0.0691,-10.91406 c 0.038,-6.00274 0.15838,-10.8843 0.26752,-10.84792 0.10914,0.0364 11.27125,0.0661 24.80469,0.0661 h 24.606245 v 90.619796 90.61978 H -103.66677 -114.2501 Z M 5.6061244,223.22401 C -14.733116,221.10482 -32.437435,212.98402 -47.201577,199.0016 c -1.034724,-0.97994 -1.968712,-1.69431 -2.075524,-1.5875 -0.106812,0.10682 -0.154519,0.0571 -0.10601,-0.11043 0.04851,-0.16754 -0.751338,-1.23911 -1.777429,-2.38125 -2.692225,-2.9967 -5.016492,-5.89085 -7.458506,-9.28722 -1.177372,-1.6375 -2.190721,-2.88765 -2.25189,-2.77812 -0.06117,0.10953 -0.07511,0.0508 -0.03099,-0.13053 0.04412,-0.18133 -0.591473,-1.43148 -1.41243,-2.77813 -1.569495,-2.5745 -5.369102,-10.00127 -5.369102,-10.49453 0,-0.15856 -0.09922,-0.28829 -0.220486,-0.28829 -0.121269,0 -0.229854,-0.14883 -0.241305,-0.33073 -0.01146,-0.1819 -0.623062,-1.95309 -1.359135,-3.93597 -2.507711,-6.75543 -4.082071,-13.12138 -5.095591,-20.60414 -0.84481,-6.23715 -0.85429,-16.48191 -0.0211,-22.78414 1.28896,-9.74957 3.4844,-17.62774 7.291171,-26.163766 5.95888,-13.36178 15.098139,-25.20207 26.369362,-34.16262 12.43058,-9.88222 26.614416,-16.00333 42.3802264,-18.28942 5.45833,-0.79147 17.2632596,-0.85534 22.5749796,-0.12214 18.95497,2.61643 35.90193,10.88604 49.70798,24.25602 11.12949,10.77796 19.44519,24.50363 23.88905,39.430656 2.34032,7.86121 3.760016,16.96456 3.785866,24.27552 l 0.008,2.18281 H 90.802204 80.218874 l -0.004,-1.78594 c -0.0124,-5.28261 -1.09796,-12.345 -2.7777,-18.0707 -3.378,-11.51463 -9.15848,-21.229416 -17.70826,-29.760906 -9.78956,-9.76863 -21.89697,-16.05821 -35.73375,-18.56303 -3.67255,-0.66482 -4.49204,-0.71809 -10.98021,-0.71374 -6.4336796,0.004 -7.3275996,0.0625 -10.8479096,0.70645 -15.4695504,2.82963 -28.5752184,10.14329 -38.7439814,21.6212 -2.903027,3.27677 -5.732433,7.14212 -5.512287,7.53053 0.08563,0.15108 0.05975,0.18791 -0.0575,0.0819 -0.479679,-0.43384 -5.752513,9.178776 -7.144689,13.025106 -2.245072,6.20271 -3.242017,9.9854 -4.149064,15.74271 -0.857274,5.4414 -0.856411,14.53332 0.0019,20.10834 1.20963,7.85683 3.087955,13.86929 6.529927,20.90208 3.319804,6.78317 7.014475,12.07578 12.373544,17.72507 2.443324,2.57565 2.808772,2.86709 3.194106,2.5473 0.245705,-0.20392 0.435117,-0.24144 0.435117,-0.0862 0,0.15121 -0.139324,0.32137 -0.309607,0.37813 -0.406321,0.13544 2.724084,2.81631 6.02244,5.15761 9.414194,6.68253 19.7499244,10.64103 31.3288344,11.99868 3.1531,0.36971 24.3258896,0.25163 73.1572896,-0.40801 30.555166,-0.41275 62.910156,-0.81097 87.246346,-1.0738 l 14.75052,-0.15931 v 11.79203 11.79203 l -87.378636,-0.0423 c -48.0582,-0.0233 -87.7953096,-0.0858 -88.3046296,-0.13883 z M -36.594918,208.58852 c 0.08994,-0.14552 0.216027,-0.26459 0.280199,-0.26459 0.06417,0 0.116676,0.11907 0.116676,0.26459 0,0.14552 -0.12609,0.26458 -0.280199,0.26458 -0.154109,0 -0.206613,-0.11906 -0.116676,-0.26458 z m 47.757292,-19.75615 c -6.1198296,-0.33259 -11.03127965,-1.29034 -16.2718796,-3.17308 -2.69267,-0.96737 -7.8730104,-3.42914 -9.1912404,-4.36781 -0.39986,-0.28472 -0.87666,-0.43153 -1.05956,-0.32623 -0.18289,0.10529 -0.24702,0.0968 -0.14252,-0.019 0.10451,-0.11571 -0.97005,-1.01309 -2.38792,-1.99417 -1.41786,-0.98108 -2.73725,-1.97575 -2.93197,-2.21037 -0.19472,-0.23462 -0.478,-0.34997 -0.62952,-0.25633 -0.15998,0.0989 -0.19633,0.0422 -0.0867,-0.1352 0.10383,-0.16801 0.0896,-0.30547 -0.0316,-0.30547 -0.38073,0 -5.434992,-5.07122 -7.05393,-7.0776 -0.851297,-1.05503 -1.653463,-1.91823 -1.782593,-1.91823 -0.12913,0 -0.20606,-0.0893 -0.170956,-0.19844 0.0351,-0.10914 -0.649507,-1.26825 -1.521354,-2.57581 -2.10643,-3.15912 -2.974557,-4.7668 -5.002609,-9.26429 -4.683744,-10.38688 -5.747277,-25.13658 -2.642283,-36.64479 1.495822,-5.54405 4.302998,-11.98957 7.009628,-16.09473 0.714473,-1.08364 1.299043,-2.01194 1.299043,-2.06287 0,-0.10961 0.154712,-0.303976 2.71099,-3.405946 2.394553,-2.90572 6.530304,-6.97772 8.798384,-8.66276 0.14552,-0.10811 0.94116,-0.73329 1.76809,-1.3893 0.82693,-0.656 1.56898,-1.19273 1.64899,-1.19273 0.08,0 0.95124,-0.49602 1.93607,-1.10227 3.68321,-2.26734 10.9554904,-5.36296 13.89297035,-5.91386 0.54443,-0.1021 0.94276,-0.26189 0.88516,-0.35507 -0.0576,-0.0932 0.21134,-0.18118 0.59763,-0.19554 0.38629005,-0.0144 2.19062005,-0.295 4.00963005,-0.62363 2.98039,-0.53846 3.90879,-0.58578 9.3927096,-0.47875 5.35878,0.10459 6.46454,0.20328 9.26042,0.82653 3.87369,0.8635 4.56009,1.06301 8.03345,2.33499 1.50798,0.55224 2.8772,0.92671 3.04271,0.83216 0.16551,-0.0945 0.21431,-0.0761 0.10846,0.0409 -0.25373,0.28059 3.22214,2.02381 3.6027,1.80683 0.16166,-0.0922 0.20479,-0.0693 0.0958,0.0509 -0.10895,0.12016 0.42683,0.56875 1.19062,0.99688 2.44857,1.37248 5.56098,3.54422 7.83358,5.46602 1.21635,1.02858 2.38423,1.87015 2.59531,1.87015 0.21107,0 0.32214,0.0997 0.24682,0.22158 -0.19064,0.30845 1.81171,2.21756 2.06266,1.96661 0.1121,-0.1121 0.16506,-0.0848 0.11768,0.0608 -0.14135,0.43418 0.76564,1.52979 1.09692,1.32505 0.18025,-0.1114 0.26976,-0.0409 0.22049,0.17365 -0.1026,0.44677 2.29672,3.43998 2.55245,3.18424 0.10177,-0.10176 0.1478,-0.066 0.1023,0.0796 -0.12849,0.41098 0.90379,1.984376 1.30192,1.984376 0.19549,0 0.27363,0.13237 0.17364,0.29416 -0.1,0.16179 -0.0755,0.37015 0.0544,0.46302 0.12993,0.0929 0.84649,1.18089 1.59237,2.41782 4.75589,7.88696 7.44159,16.40491 8.04196,25.5059 0.14304,2.1683 0.22231,3.98012 0.17615,4.02628 -0.0462,0.0461 -4.77969,0.0958 -10.51898,0.11035 l -10.43506,0.0264 -0.45532,-3.73474 c -0.25042,-2.05403 -0.7083,-4.65165 -1.01751,-5.77242 -1.1334,-4.10819 -3.37728,-8.61579 -5.99351,-12.04003 -1.82728,-2.39163 -5.35262,-5.74999 -6.21743,-5.92296 -0.40288,-0.0806 -0.67269,-0.2433 -0.59956,-0.36162 0.31421,-0.50841 -5.42248,-3.89058 -5.99689,-3.53558 -0.18553,0.11466 -0.24164,0.0791 -0.13854,-0.0877 0.26053,-0.42154 -4.02521,-1.890696 -7.21396,-2.472966 -3.39886,-0.62063 -8.06676,-0.65681 -11.5996896,-0.0899 -3.54785,0.5693 -8.44794005,2.252066 -8.11702005,2.787516 0.079,0.12788 -0.0384,0.16262 -0.26104,0.0772 -0.52154995,-0.20014 -3.24581995,1.32709 -5.88442995,3.29881 -2.99974,2.24159 -7.2544304,6.80616 -6.7832704,7.27733 0.0927,0.0927 -0.0299,0.16857 -0.2724,0.16857 -0.24253,0 -0.44097,0.16867 -0.44097,0.37483 0,0.20615 -0.0914,0.41451 -0.20322,0.46302 -0.36643,0.15903 -1.85637,2.69417 -2.78077,4.73153 -3.95748,8.72209 -4.22012,18.8407 -0.71585,27.57938 1.98838,4.95848 4.42013,8.58583 8.1355704,12.13554 4.8045,4.59019 10.04001995,7.33879 16.66009,8.74639 l 2.84897,0.60577 85.7911496,0.0709 85.791136,0.0709 v 10.8432 10.84321 l -84.335936,-0.0489 c -46.38476,-0.0269 -84.99078,-0.0845 -85.79114,-0.12804 z m -26.19375,-73.64177 c 0,-0.14552 0.12609,-0.26459 0.2802,-0.26459 0.15411,0 0.20661,0.11907 0.11667,0.26459 -0.0899,0.14552 -0.21602,0.26458 -0.2802,0.26458 -0.0642,0 -0.11667,-0.11906 -0.11667,-0.26458 z m 67.73333,-21.431246 c 0,-0.14553 0.12609,-0.26459 0.2802,-0.26459 0.15411,0 0.20661,0.11906 0.11668,0.26459 -0.0899,0.14552 -0.21603,0.26458 -0.2802,0.26458 -0.0642,0 -0.11668,-0.11906 -0.11668,-0.26458 z m -1.5875,-1.5875 c 0,-0.14553 0.11906,-0.26459 0.26459,-0.26459 0.14552,0 0.26458,0.11906 0.26458,0.26459 0,0.14552 -0.11906,0.26458 -0.26458,0.26458 -0.14553,0 -0.26459,-0.11906 -0.26459,-0.26458 z m 39.81979,-3.70417 c 0.0899,-0.14552 0.21604,-0.26458 0.2802,-0.26458 0.0642,0 0.11668,0.11906 0.11668,0.26458 0,0.14552 -0.1261,0.26458 -0.2802,0.26458 -0.15412,0 -0.20661,-0.11906 -0.11668,-0.26458 z m -9.26041,-13.22917 c -0.0899,-0.14552 -0.0374,-0.26458 0.11667,-0.26458 0.15411,0 0.2802,0.11906 0.2802,0.26458 0,0.14552 -0.0525,0.26459 -0.11667,0.26459 -0.0642,0 -0.19027,-0.11907 -0.2802,-0.26459 z M -38.579293,58.569764 c 0,-0.14552 0.12609,-0.26458 0.280199,-0.26458 0.154109,0 0.206613,0.11906 0.116676,0.26458 -0.08994,0.14552 -0.216027,0.26459 -0.280199,0.26459 -0.06417,0 -0.116676,-0.11907 -0.116676,-0.26459 z m 102.658327,-0.26458 c 0,-0.14552 0.12609,-0.26458 0.2802,-0.26458 0.15411,0 0.20662,0.11906 0.11668,0.26458 -0.0899,0.14552 -0.21603,0.26458 -0.2802,0.26458 -0.0642,0 -0.11668,-0.11906 -0.11668,-0.26458 z"
         id="path120"
         inkscape:connector-curvature="0" />
    </g>
  </g>
</svg>
