<?xml version="1.0" encoding="UTF-8" standalone="no"?>
<!-- Created with Inkscape (http://www.inkscape.org/) -->

<svg
   xmlns:dc="http://purl.org/dc/elements/1.1/"
   xmlns:cc="http://creativecommons.org/ns#"
   xmlns:rdf="http://www.w3.org/1999/02/22-rdf-syntax-ns#"
   xmlns:svg="http://www.w3.org/2000/svg"
   xmlns="http://www.w3.org/2000/svg"
   xmlns:sodipodi="http://sodipodi.sourceforge.net/DTD/sodipodi-0.dtd"
   xmlns:inkscape="http://www.inkscape.org/namespaces/inkscape"
   width="95.976906mm"
   height="168.41858mm"
   viewBox="0 0 95.976906 168.41858"
   version="1.1"
   id="svg8"
   inkscape:version="0.92.1 r15371"
   sodipodi:docname="arrow-slider-next.svg">
  <defs
     id="defs2" />
  <sodipodi:namedview
     id="base"
     pagecolor="#ffffff"
     bordercolor="#666666"
     borderopacity="1.0"
     inkscape:pageopacity="0.0"
     inkscape:pageshadow="2"
     inkscape:zoom="0.35"
     inkscape:cx="160.97189"
     inkscape:cy="330.9539"
     inkscape:document-units="mm"
     inkscape:current-layer="layer1"
     showgrid="false"
     fit-margin-top="0"
     fit-margin-left="0"
     fit-margin-right="0"
     fit-margin-bottom="0"
     inkscape:window-width="1600"
     inkscape:window-height="837"
     inkscape:window-x="-8"
     inkscape:window-y="147"
     inkscape:window-maximized="1" />
  <metadata
     id="metadata5">
    <rdf:RDF>
      <cc:Work
         rdf:about="">
        <dc:format>image/svg+xml</dc:format>
        <dc:type
           rdf:resource="http://purl.org/dc/dcmitype/StillImage" />
        <dc:title></dc:title>
      </cc:Work>
    </rdf:RDF>
  </metadata>
  <g
     inkscape:label="Layer 1"
     inkscape:groupmode="layer"
     id="layer1"
     transform="translate(-63.242854,-67.979641)">
    <path
       style="fill:#000000;stroke-width:0.26458332"
       d="m 72.34464,236.12693 c -3.08305,-0.78805 -6.21928,-3.12255 -7.58508,-5.64607 -2.19389,-4.05354 -1.96958,-8.9888 0.57354,-12.61886 0.42168,-0.60189 15.29996,-15.61888 33.06286,-33.37107 L 130.69213,152.21422 97.93251,119.40344 C 65.61281,87.03324 65.16127,86.56674 64.30672,84.663566 c -2.03771,-4.538218 -1.09769,-9.750833 2.38681,-13.235333 3.73067,-3.730668 9.26863,-4.506105 14.10894,-1.975565 1.0303,0.538645 10.06188,9.41716 38.81527,38.157432 34.84157,34.82568 37.53173,37.5781 38.31546,39.20219 1.14902,2.38109 1.52091,4.69042 1.1457,7.1145 -0.6183,3.99452 1.94117,1.22385 -39.06569,42.28932 -20.53637,20.56571 -37.85465,37.75293 -38.48506,38.19381 -2.41673,1.69012 -6.38562,2.43217 -9.18351,1.71701 z"
       id="path21"
       inkscape:connector-curvature="0" />
  </g>
</svg>
