<?xml version="1.0" encoding="UTF-8" standalone="no"?>
<!-- Created with Inkscape (http://www.inkscape.org/) -->

<svg
   xmlns:dc="http://purl.org/dc/elements/1.1/"
   xmlns:cc="http://creativecommons.org/ns#"
   xmlns:rdf="http://www.w3.org/1999/02/22-rdf-syntax-ns#"
   xmlns:svg="http://www.w3.org/2000/svg"
   xmlns="http://www.w3.org/2000/svg"
   xmlns:sodipodi="http://sodipodi.sourceforge.net/DTD/sodipodi-0.dtd"
   xmlns:inkscape="http://www.inkscape.org/namespaces/inkscape"
   width="228.33542mm"
   height="228.20305mm"
   viewBox="0 0 228.33543 228.20305"
   version="1.1"
   id="svg8"
   inkscape:version="0.92.1 r15371"
   sodipodi:docname="briefcase.svg">
  <defs
     id="defs2" />
  <sodipodi:namedview
     id="base"
     pagecolor="#ffffff"
     bordercolor="#666666"
     borderopacity="1.0"
     inkscape:pageopacity="0.0"
     inkscape:pageshadow="2"
     inkscape:zoom="0.35"
     inkscape:cx="826.41816"
     inkscape:cy="636.75165"
     inkscape:document-units="mm"
     inkscape:current-layer="layer1"
     showgrid="false"
     fit-margin-top="0"
     fit-margin-left="0"
     fit-margin-right="0"
     fit-margin-bottom="0"
     inkscape:window-width="1600"
     inkscape:window-height="837"
     inkscape:window-x="-8"
     inkscape:window-y="147"
     inkscape:window-maximized="1" />
  <metadata
     id="metadata5">
    <rdf:RDF>
      <cc:Work
         rdf:about="">
        <dc:format>image/svg+xml</dc:format>
        <dc:type
           rdf:resource="http://purl.org/dc/dcmitype/StillImage" />
        <dc:title></dc:title>
      </cc:Work>
    </rdf:RDF>
  </metadata>
  <g
     inkscape:label="Layer 1"
     inkscape:groupmode="layer"
     id="layer1"
     transform="translate(112.82314,-89.104142)">
    <g
       transform="translate(-60.595436,7.9911436)"
       id="layer1-8"
       inkscape:label="Layer 1">
      <g
         style="fill:#000000"
         inkscape:label="Layer 1"
         id="layer1-5"
         transform="translate(-12.83282,117.24454)">
        <path
           style="fill:#000000;stroke-width:0.26458332"
           d=""
           id="path21"
           inkscape:connector-curvature="0" />
        <path
           style="fill:#000000;stroke-width:0.26458335"
           d="M -31.192806,129.24316 V 66.414809 l -0.99218,-0.2592 c -0.54571,-0.14256 -2.39118,-0.58515 -4.10105,-0.98353 l -3.10885,-0.72433 V 32.083582 -0.28058543 H -4.4889257 30.417024 l 0.0886,-10.38489557 0.0887,-10.384896 0.7903,-2.250325 c 1.17346,-3.341359 2.15344,-4.911216 4.63677,-7.427731 1.80413,-1.828238 2.67715,-2.48473 4.48832,-3.375108 4.36799,-2.147317 2.30914,-2.028318 35.05687,-2.026236 32.563236,0.0021 30.130106,-0.134831 34.235796,1.926302 3.69893,1.856937 6.53452,4.70921 8.36539,8.414609 1.63556,3.31012 1.83774,4.970826 1.93271,15.8752296 l 0.0839,9.63305097 h 34.37808 34.37808 V 32.083259 64.447099 l -3.59167,0.81707 c -1.97542,0.44939 -3.64229,0.86769 -3.70417,0.92956 -0.0619,0.0619 -0.11249,28.40968 -0.11249,62.995131 V 192.0715 H 75.169699 -31.192806 Z M 172.27178,124.9818 c 0,-54.195591 -0.0231,-57.028691 -0.46302,-56.897951 -0.91447,0.27175 -16.76378,3.33475 -24.67239,4.76814 -14.65596,2.65629 -29.88905,5.038 -40.5685,6.34293 l -4.80755,0.58744 -0.0684,14.20811 -0.0684,14.208111 H 75.564282 49.505122 V 94.175669 c 0,-11.0419 -0.07031,-14.02294 -0.330729,-14.02301 -2.433519,-5.3e-4 -22.666459,-2.70003 -32.742189,-4.36828 -11.2818397,-1.86795 -33.95571,-6.20422 -37.50468,-7.17258 l -0.59532,-0.16243 v 56.783981 56.78399 H 75.301998 172.27179 Z M 91.044699,82.798579 V 67.452749 H 74.905116 58.765532 v 15.34583 15.34584 H 74.905116 91.044699 Z M 49.505115,64.145459 v -6.21771 h 26.061459 26.061456 v 6.20107 6.20108 l 0.8599,-0.12059 c 0.47294,-0.0663 3.30068,-0.42137 6.28385,-0.78899 18.27035,-2.25148 45.82388,-7.10784 65.61667,-11.56507 l 3.83646,-0.86395 0.0676,-23.608859 0.0676,-23.6088584 H 74.772824 -28.814396 l 0.0676,23.6032414 0.0676,23.603246 1.4552,0.30786 c 7.24298,1.53236 28.05231029,5.65763 33.8666703,6.71378 14.7210797,2.674 38.0444597,6.19893 41.8703137,6.32799 l 0.992187,0.0335 z M 110.62187,-8.6811064 c -0.001,-4.6202866 -0.12491,-9.1579846 -0.27513,-10.0837736 -0.52354,-3.226461 -2.33122,-5.679465 -5.23688,-7.106377 l -1.49745,-0.73537 H 75.301991 46.991574 l -1.45521,0.685314 c -1.77811,0.837379 -2.9509,1.804042 -3.9493,3.255177 -1.50037,2.180707 -1.60695,3.054387 -1.60695,13.1731556 v 9.21239497 h 35.321877 35.321879 z"
           id="path49"
           inkscape:connector-curvature="0" />
      </g>
    </g>
  </g>
</svg>
