<?xml version="1.0" encoding="UTF-8" standalone="no"?>
<!-- Created with Inkscape (http://www.inkscape.org/) -->

<svg
   xmlns:dc="http://purl.org/dc/elements/1.1/"
   xmlns:cc="http://creativecommons.org/ns#"
   xmlns:rdf="http://www.w3.org/1999/02/22-rdf-syntax-ns#"
   xmlns:svg="http://www.w3.org/2000/svg"
   xmlns="http://www.w3.org/2000/svg"
   xmlns:sodipodi="http://sodipodi.sourceforge.net/DTD/sodipodi-0.dtd"
   xmlns:inkscape="http://www.inkscape.org/namespaces/inkscape"
   width="319.46121mm"
   height="212.95132mm"
   viewBox="0 0 319.46123 212.95133"
   version="1.1"
   id="svg8"
   inkscape:version="0.92.1 r15371"
   sodipodi:docname="cloud.svg">
  <defs
     id="defs2" />
  <sodipodi:namedview
     id="base"
     pagecolor="#ffffff"
     bordercolor="#666666"
     borderopacity="1.0"
     inkscape:pageopacity="0.0"
     inkscape:pageshadow="2"
     inkscape:zoom="0.35"
     inkscape:cx="1241.553"
     inkscape:cy="810.60791"
     inkscape:document-units="mm"
     inkscape:current-layer="layer1"
     showgrid="false"
     fit-margin-top="0"
     fit-margin-left="0"
     fit-margin-right="0"
     fit-margin-bottom="0"
     inkscape:window-width="1600"
     inkscape:window-height="837"
     inkscape:window-x="-8"
     inkscape:window-y="147"
     inkscape:window-maximized="1" />
  <metadata
     id="metadata5">
    <rdf:RDF>
      <cc:Work
         rdf:about="">
        <dc:format>image/svg+xml</dc:format>
        <dc:type
           rdf:resource="http://purl.org/dc/dcmitype/StillImage" />
        <dc:title></dc:title>
      </cc:Work>
    </rdf:RDF>
  </metadata>
  <g
     inkscape:label="Layer 1"
     inkscape:groupmode="layer"
     id="layer1"
     transform="translate(222.66089,-150.35534)">
    <g
       id="layer1-6"
       transform="translate(-147.63247,286.64932)">
      <path
         style="fill:#000000;stroke-width:0.26458332"
         d=""
         id="path105"
         inkscape:connector-curvature="0" />
      <path
         style="fill:#000000;stroke-width:0.26458332"
         d=""
         id="path103"
         inkscape:connector-curvature="0" />
      <path
         style="fill:#000000;stroke-width:0.26458332"
         d=""
         id="path101"
         inkscape:connector-curvature="0" />
      <path
         style="fill:#000000;stroke-width:0.26458332"
         d=""
         id="path99"
         inkscape:connector-curvature="0" />
      <path
         style="fill:#000000;stroke-width:0.26458335"
         d="M -0.59805422,76.49365 C -33.579311,74.24124 -62.082295,51.44171 -71.717026,19.60562 c -4.90964,-16.2229601 -4.340364,-34.49609 1.578164,-50.65739 2.64765,-7.22974 7.52624,-15.82254 12.543207,-22.09271 2.838679,-3.54775 8.604885,-9.31719 12.111568,-12.11834 11.362044,-9.07606 25.175043,-15.18837 39.3515628,-17.41325 l 2.91933,-0.45817 1.57859,-2.90541 c 7.05952,-12.9931 18.0480802,-25.0646 30.4181802,-33.41595 7.72899,-5.21802 15.01708,-8.79408 23.94479,-11.749 10.9275,-3.61683 19.99103,-5.06962 31.75,-5.08919 11.6846,-0.0195 21.275494,1.4505 31.750004,4.86617 31.70929,10.3402 56.27588,35.88184 65.33171,67.92476 0.57111,2.02079 1.1815,4.40163 1.35642,5.29074 0.36036,1.83167 -0.0837,1.60954 4.3525,2.17737 10.43498,1.33569 22.51575,6.63147 31.61771,13.86011 1.0914,0.86678 3.33846,2.89058 4.99342,4.49733 10.96339,10.64394 17.74352,23.75146 20.05579,38.7724199 0.66453,4.31692 0.66212,13.6864601 -0.005,18.3885401 -0.58126,4.09857 -2.1386,10.39748 -3.47128,14.04016 -1.44584,3.95199 -4.6428,10.24327 -6.99947,13.77421 -7.15106,10.71423 -17.50113,19.26975 -29.20376,24.14026 -5.23587,2.17911 -10.99984,3.74158 -17.38455,4.71253 -2.84825,0.43314 -8.84261,0.46526 -93.794804,0.5026 -49.91365,0.0219 -92.0675702,-0.05 -93.67538022,-0.15976 z M 183.48513,49.64799 c 15.04977,-1.98826 27.20754,-11.75366 32.07034,-25.75962 1.77009,-5.0982 2.12122,-7.3821 2.12122,-13.79743 0,-6.4153301 -0.35113,-8.6992301 -2.12122,-13.7974301 C 211.35106,-15.81618 201.39531,-25.05877 188.95091,-28.40532 c -4.6256,-1.24392 -7.49115,-1.45582 -19.68713,-1.45582 h -11.23124 l -0.004,-4.43177 c -0.005,-5.343 -0.33544,-9.65702 -1.07902,-14.08907 -2.50514,-14.93175 -9.68603,-28.75461 -20.61577,-39.68435 -17.18897,-17.18897 -41.028014,-24.75233 -64.555194,-20.48126 -22.53142,4.09029 -42.24403,19.03083 -52.74184,39.97399 -1.49695,2.9864 -4.31251,9.85764 -4.57303,11.16022 l -0.15083,0.75416 -7.1843402,0.15353 c -4.49999,0.0962 -8.22235,0.3125 -9.96246,0.57899 -23.6930098,3.62844 -42.0154798,22.30413 -45.1409788,46.0111999 -0.517596,3.92599 -0.378174,11.77136 0.273254,15.37623 1.531744,8.4763701 4.419502,15.3517301 9.413555,22.4124201 2.009431,2.84098 6.90167,8.01097 9.7686,10.3232 7.83469,6.31883 17.68292,10.41154 27.80222978,11.55399 1.09141,0.12322 42.31070022,0.23948 91.59844022,0.25836 78.094884,0.0299 89.998414,-0.0165 92.604164,-0.36071 z"
         id="path159"
         inkscape:connector-curvature="0" />
    </g>
  </g>
</svg>
