<?xml version="1.0" encoding="UTF-8" standalone="no"?>
<!-- Created with Inkscape (http://www.inkscape.org/) -->

<svg
   xmlns:dc="http://purl.org/dc/elements/1.1/"
   xmlns:cc="http://creativecommons.org/ns#"
   xmlns:rdf="http://www.w3.org/1999/02/22-rdf-syntax-ns#"
   xmlns:svg="http://www.w3.org/2000/svg"
   xmlns="http://www.w3.org/2000/svg"
   xmlns:sodipodi="http://sodipodi.sourceforge.net/DTD/sodipodi-0.dtd"
   xmlns:inkscape="http://www.inkscape.org/namespaces/inkscape"
   width="323.32141mm"
   height="292.84344mm"
   viewBox="0 0 323.32143 292.84345"
   version="1.1"
   id="svg8"
   inkscape:version="0.92.1 r15371"
   sodipodi:docname="coin-2.svg">
  <defs
     id="defs2" />
  <sodipodi:namedview
     id="base"
     pagecolor="#ffffff"
     bordercolor="#666666"
     borderopacity="1.0"
     inkscape:pageopacity="0.0"
     inkscape:pageshadow="2"
     inkscape:zoom="0.35"
     inkscape:cx="1006.5111"
     inkscape:cy="578.0176"
     inkscape:document-units="mm"
     inkscape:current-layer="layer1"
     showgrid="false"
     fit-margin-top="0"
     fit-margin-left="0"
     fit-margin-right="0"
     fit-margin-bottom="0"
     inkscape:window-width="1600"
     inkscape:window-height="837"
     inkscape:window-x="-8"
     inkscape:window-y="147"
     inkscape:window-maximized="1" />
  <metadata
     id="metadata5">
    <rdf:RDF>
      <cc:Work
         rdf:about="">
        <dc:format>image/svg+xml</dc:format>
        <dc:type
           rdf:resource="http://purl.org/dc/dcmitype/StillImage" />
        <dc:title></dc:title>
      </cc:Work>
    </rdf:RDF>
  </metadata>
  <g
     inkscape:label="Layer 1"
     inkscape:groupmode="layer"
     id="layer1"
     transform="translate(160.47273,-8.9237021)">
    <g
       transform="translate(-131.0556,-78.422668)"
       id="layer1-0"
       inkscape:label="Layer 1">
      <g
         style="fill:#000000"
         inkscape:label="Layer 1"
         id="layer1-8"
         transform="translate(140.91838,98.661838)">
        <path
           style="fill:#000000;stroke-width:0.26458335"
           d="m -93.473532,281.35556 c -13.254508,-0.56388 -27.907418,-3.15637 -39.290618,-6.95153 -22.16397,-7.38947 -35.21841,-19.38268 -37.28709,-34.25595 -0.19461,-1.39915 -0.28375,-19.60309 -0.28375,-57.94562 0,-60.96802 -0.0723,-57.92763 1.49134,-62.72176 7.46083,-22.875127 43.96579,-37.500831 90.054498,-36.080304 19.846218,0.61169 39.745838,4.876665 52.442948,11.23981 l 2.30441,1.15485 0.0924,-32.73947 c 0.091,-32.241074 0.10084,-32.773706 0.64956,-34.988428 1.70703,-6.889824 4.77758,-12.144112 10.08923,-17.264558 8.6333802,-8.3226 22.8274002,-14.938162 39.856,-18.576126 30.34409,-6.482667 66.32399,-3.91475 90.489454,6.45831 17.37159,7.456781 27.68389,18.422304 29.48189,31.349374 0.15605,1.122024 0.28374,2.567207 0.28374,3.211521 v 1.171479 h 3.04271 3.04271 l -0.004,81.425522 c -0.005,87.94636 0.0802,82.43417 -1.34133,86.84948 -2.0074,6.23516 -6.98852,13.05228 -13.1971,18.06139 -22.66585,18.28641 -70.047564,25.98945 -110.076334,17.89546 -6.79057,-1.37309 -14.79497,-3.66603 -19.3391698,-5.53991 -1.04515,-0.43098 -1.98502,-0.78361 -2.0886,-0.78361 -0.10358,0 -0.25971,1.22039 -0.34696,2.71198 -0.51741,8.84609 -5.34353,17.56906 -13.54714,24.48581 -17.6647302,14.89372 -51.1280102,23.33789 -86.5187582,21.83228 z m 23.231202,-24.69401 c 4.353736,-0.36184 10.453396,-1.2097 14.471926,-2.01165 13.64039,-2.72206 26.10745,-8.18291 31.9002,-13.97299 3.15427,-3.15281 3.0248,-2.52076 3.0248,-14.76656 v -10.4814 l -2.97656,1.41347 c -16.96738,8.05725 -39.84174,12.84428 -61.317188,12.83217 -20.013308,-0.0113 -40.852858,-3.74009 -54.880528,-9.8197 -1.2984,-0.56273 -2.45926,-1.02315 -2.57968,-1.02315 -0.12043,0 -0.21896,3.99242 -0.21896,8.87204 0,7.25748 0.0717,9.04359 0.39386,9.81467 0.58787,1.40698 3.92935,4.70595 6.53321,6.4501 10.86094,7.275 27.06077,11.82514 46.121888,12.95451 4.55207,0.26972 14.78402,0.13269 19.527032,-0.26151 z M 72.287936,217.23593 c 8.04055,-0.46056 14.42148,-1.32743 21.43125,-2.91151 14.443824,-3.26403 27.119024,-9.72525 30.960114,-15.782 l 0.78989,-1.24553 v -10.66382 c 0,-5.8651 -0.0429,-10.66383 -0.0954,-10.66383 -0.0525,0 -1.35527,0.58978 -2.89507,1.31062 -17.12016,8.01458 -39.602834,12.70411 -60.906374,12.70411 -17.90921,0 -35.93046,-3.23767 -50.01109,-8.98493 -2.1801498,-0.88986 -4.1722698,-1.68512 -4.4269298,-1.76722 -0.436,-0.14058 -0.46302,0.49969 -0.46302,10.96943 v 11.11872 l 1.25677,1.04872 c 1.93463,1.61438 5.4541498,3.81517 8.6650998,5.4184 14.3162,7.14804 34.89905,10.64 55.69479,9.44884 z m -147.240628,-12.1665 c 21.304048,-1.15597 38.898218,-6.37038 49.278648,-14.6048 l 1.65364,-1.31178 v -13.47392 -13.47392 l -2.05052,1.02987 c -8.38903,4.2134 -21.84607,8.03628 -34.52546,9.808 -7.721832,1.07898 -11.941988,1.38148 -21.286868,1.5258 -12.6308,0.19507 -20.128808,-0.30836 -30.768168,-2.06585 -10.11306,-1.67055 -20.03646,-4.40477 -27.25648,-7.51005 -1.23693,-0.53199 -2.39779,-1.0311 -2.57969,-1.10912 -0.53333,-0.22877 -0.47326,20.4927 0.0631,21.77646 0.58787,1.40698 3.92935,4.70595 6.53321,6.45009 13.8276,9.26217 37.255158,14.24428 60.938558,12.95922 z M 72.023356,165.37796 c 11.45351,-0.63699 21.2459,-2.35011 30.333734,-5.30671 10.49867,-3.41558 19.36737,-8.72787 22.30552,-13.36085 l 0.80658,-1.27184 v -11.58987 c 0,-6.37442 -0.0442,-11.58987 -0.0982,-11.58987 -0.054,0 -1.33392,0.55123 -2.84427,1.22496 -13.62133,6.07608 -30.102094,9.83589 -49.136344,11.20962 -4.89942,0.3536 -18.62864,0.35225 -23.72547,-0.002 -16.33238,-1.13617 -31.19233,-4.3664 -43.0989098,-9.36872 -1.58584,-0.66627 -2.9253,-1.21139 -2.97656,-1.21139 -0.0513,0 -0.0932,1.06562 -0.0932,2.36805 v 2.36804 l 1.52135,0.0794 1.52136,0.0793 0.0692,10.23055 0.0692,10.23055 1.25368,1.04614 c 0.68953,0.57538 2.2657198,1.7023 3.5026398,2.50428 13.73461,8.90496 37.08244,13.6681 60.58959,12.36074 z M -71.909986,149.79041 c 17.035482,-1.74633 31.024362,-6.00937 40.568202,-12.36296 4.59233,-3.05724 7.32138,-6.19646 7.32138,-8.42175 0,-3.64179 -6.72366,-9.13114 -16.18308,-13.21225 -16.72734,-7.21671 -40.002408,-9.83516 -62.454146,-7.02609 -8.01217,1.00244 -16.54643,3.00249 -23.10938,5.4158 -3.92349,1.44274 -10.83076,4.92275 -13.36403,6.73306 -3.67373,2.62529 -6.09989,5.27985 -6.71602,7.34827 -0.16284,0.54666 -0.0808,0.58651 1.36158,0.66146 l 1.53487,0.0797 0.0769,2.5103 c 0.0927,3.02742 0.15327,3.11068 4.26593,5.86795 10.42193,6.98725 26.24023,11.44493 45.266538,12.75633 2.78834,0.19219 18.67313,-0.0671 21.431246,-0.34987 z M 78.884066,109.97982 c 19.76275,-2.14537 37.417704,-8.65689 44.336454,-16.352201 2.37776,-2.64464 2.24867,-1.759932 2.24867,-15.411379 0,-6.626995 -0.0651,-12.049082 -0.14475,-12.049082 -0.0796,0 -1.00235,0.469733 -2.05052,1.04385 -1.04818,0.574119 -3.27499,1.65327 -4.94848,2.398114 C 87.162336,83.479345 37.228386,83.670642 5.6790762,70.040666 l -2.18281,-0.94302 v 10.389055 10.389057 l 0.67324,1.351016 c 0.83915,1.683961 4.02177,4.766757 6.8734498,6.657861 2.85921,1.896105 9.32563,5.028965 13.35539,6.470455 8.48994,3.03692 18.76143,5.10882 29.63334,5.97745 4.55633,0.36403 20.30932,0.14045 24.85238,-0.35272 z m -7.70404,-51.495263 c 15.25883,-1.076928 28.43344,-4.324524 38.678744,-9.534477 4.13303,-2.101725 6.87303,-3.949972 9.31622,-6.284187 2.52137,-2.408899 3.52981,-4.235977 3.2752,-5.933869 -0.61008,-4.068249 -5.10982,-8.436625 -12.19454,-11.838532 -8.42934,-4.047543 -19.514264,-6.7671 -32.940634,-8.081587 -5.98005,-0.585467 -19.34051,-0.803238 -25.00312,-0.40754 -14.25506,0.996124 -26.68717,3.821737 -36.66822,8.334076 -5.24708,2.372156 -10.2802398,5.654114 -12.7032198,8.283353 l -1.16398,1.263072 0.85989,0.08291 0.8599,0.08291 v 4.05964 4.059639 l 1.25677,1.046692 c 9.3619998,7.797056 26.8006498,13.365546 46.5005198,14.848496 4.29248,0.323125 15.46888,0.33401 19.92647,0.01939 z"
           id="path151"
           inkscape:connector-curvature="0" />
      </g>
    </g>
  </g>
</svg>
