<?xml version="1.0" encoding="UTF-8" standalone="no"?>
<!-- Created with Inkscape (http://www.inkscape.org/) -->

<svg
   xmlns:dc="http://purl.org/dc/elements/1.1/"
   xmlns:cc="http://creativecommons.org/ns#"
   xmlns:rdf="http://www.w3.org/1999/02/22-rdf-syntax-ns#"
   xmlns:svg="http://www.w3.org/2000/svg"
   xmlns="http://www.w3.org/2000/svg"
   xmlns:sodipodi="http://sodipodi.sourceforge.net/DTD/sodipodi-0.dtd"
   xmlns:inkscape="http://www.inkscape.org/namespaces/inkscape"
   width="244.75465mm"
   height="244.77989mm"
   viewBox="0 0 244.75467 244.7799"
   version="1.1"
   id="svg8"
   inkscape:version="0.92.1 r15371"
   sodipodi:docname="coin-1.svg">
  <defs
     id="defs2" />
  <sodipodi:namedview
     id="base"
     pagecolor="#ffffff"
     bordercolor="#666666"
     borderopacity="1.0"
     inkscape:pageopacity="0.0"
     inkscape:pageshadow="2"
     inkscape:zoom="0.35"
     inkscape:cx="932.65286"
     inkscape:cy="590.32694"
     inkscape:document-units="mm"
     inkscape:current-layer="layer1"
     showgrid="false"
     fit-margin-top="0"
     fit-margin-left="0"
     fit-margin-right="0"
     fit-margin-bottom="0"
     inkscape:window-width="1600"
     inkscape:window-height="837"
     inkscape:window-x="-8"
     inkscape:window-y="147"
     inkscape:window-maximized="1" />
  <metadata
     id="metadata5">
    <rdf:RDF>
      <cc:Work
         rdf:about="">
        <dc:format>image/svg+xml</dc:format>
        <dc:type
           rdf:resource="http://purl.org/dc/dcmitype/StillImage" />
        <dc:title></dc:title>
      </cc:Work>
    </rdf:RDF>
  </metadata>
  <g
     inkscape:label="Layer 1"
     inkscape:groupmode="layer"
     id="layer1"
     transform="translate(140.93107,-60.244105)">
    <g
       transform="translate(-238.34674,372.0543)"
       id="layer1-3"
       inkscape:label="Layer 1">
      <path
         inkscape:connector-curvature="0"
         id="path105"
         d=""
         style="fill:#000000;stroke-width:0.26458332" />
      <path
         inkscape:connector-curvature="0"
         id="path103"
         d=""
         style="fill:#000000;stroke-width:0.26458332" />
      <path
         inkscape:connector-curvature="0"
         id="path101"
         d=""
         style="fill:#000000;stroke-width:0.26458332" />
      <path
         inkscape:connector-curvature="0"
         id="path99"
         d=""
         style="fill:#000000;stroke-width:0.26458332" />
      <path
         inkscape:connector-curvature="0"
         id="path172"
         d="m 206.43155,-67.093647 c -0.87312,-0.05103 -3.84968,-0.219522 -6.61458,-0.374422 -26.72826,-1.497423 -51.49126,-6.246355 -69.58542,-13.344764 -1.74625,-0.685062 -5.31812,-2.298949 -7.9375,-3.586416 -13.61145,-6.690265 -21.52507,-14.502483 -24.259502,-23.948661 l -0.611332,-2.11186 v -78.84584 c 0,-89.60286 -0.267167,-79.99892 2.377377,-85.46042 3.646447,-7.53061 10.500087,-13.58787 21.831997,-19.29518 18.62508,-9.38051 44.01509,-15.04238 78.05209,-17.40532 6.60057,-0.45822 33.6161,-0.45822 40.21667,0 34.037,2.36294 59.427,8.02481 78.05208,17.40532 11.33192,5.70731 18.18556,11.76457 21.832,19.29518 2.6441,5.46057 2.37738,-4.05301 2.37738,84.79896 v 78.18438 l -0.59687,2.24896 c -2.54925,9.605298 -10.84746,17.959425 -24.67084,24.837086 -18.67623,9.292135 -43.1894,14.763716 -77.25834,17.244823 -3.67561,0.267681 -29.91155,0.55068 -33.20521,0.358174 z m 33.07292,-21.258306 c 18.11859,-1.378071 31.39179,-3.339152 44.18542,-6.528284 20.5793,-5.129893 35.55932,-12.631143 37.66385,-18.860163 0.32558,-0.96367 0.46141,-48.18083 0.1386,-48.18083 -0.0909,0 -2.03146,0.93335 -4.31236,2.07411 -19.69863,9.85202 -48.56274,15.9009 -83.62863,17.52556 -7.57251,0.35084 -27.99798,0.19146 -34.66042,-0.27047 -32.87884,-2.27958 -58.23352,-7.87932 -76.66715,-16.93244 l -4.30361,-2.11358 0.0703,23.86935 c 0.0807,27.42494 -0.19767,24.70474 2.83566,27.7058 7.40939,7.33059 27.15129,14.496993 50.96297,18.499811 10.52435,1.769178 20.36805,2.763311 35.30394,3.565406 3.57416,0.191942 28.86446,-0.08449 32.41146,-0.35427 z m 0.52917,-74.610087 c 30.06887,-2.32642 52.57056,-7.30898 68.79167,-15.23259 4.87011,-2.37892 7.66459,-4.19501 9.94788,-6.46496 3.04392,-3.02613 2.74166,-0.0576 2.82367,-27.73091 0.0503,-16.98221 -0.0122,-24.14323 -0.2109,-24.14323 -0.15535,0 -1.14005,0.46843 -2.18822,1.04097 -1.04817,0.57253 -3.57264,1.77879 -5.60993,2.68059 -38.6207,17.09521 -106.49501,21.0793 -159.01459,9.33386 -12.14973,-2.71715 -23.54535,-6.56591 -32.14688,-10.85726 -2.25557,-1.12532 -4.19219,-2.0908 -4.3036,-2.14552 -0.11141,-0.0547 -0.17094,10.71597 -0.13229,23.93487 0.0674,23.03639 0.0912,24.07657 0.57495,25.05081 2.31993,4.67245 12.17901,10.34543 25.65563,14.76244 15.49395,5.07819 35.1796,8.5069 55.99281,9.75244 2.54662,0.15239 5.28506,0.31927 6.08542,0.37083 3.12643,0.20142 30.23687,-0.0817 33.73438,-0.35234 z m 0.26458,-75.40015 c 26.33425,-2.0561 45.75735,-5.90595 62.44167,-12.37655 3.51737,-1.36412 10.02474,-4.60575 12.37382,-6.16398 4.18551,-2.77639 6.80064,-5.85727 6.80599,-8.01812 0.0133,-5.37582 -12.43182,-12.80455 -30.17088,-18.00956 -16.90935,-4.96155 -35.34889,-7.81533 -57.66831,-8.92499 -7.04128,-0.35008 -28.29662,-0.1811 -34.26354,0.27239 -18.95765,1.44078 -32.29685,3.47977 -46.16979,7.05739 -20.64729,5.32462 -35.9663,13.62335 -35.98086,19.49182 -0.0122,4.90688 10.03563,11.47086 25.39752,16.59158 16.55736,5.51921 36.82112,8.99627 60.06042,10.30579 5.42765,0.30584 32.46857,0.14162 37.17396,-0.22577 z"
         style="fill:#000000;stroke-width:0.26458335" />
    </g>
  </g>
</svg>
