<?xml version="1.0" encoding="UTF-8" standalone="no"?>
<!-- Created with Inkscape (http://www.inkscape.org/) -->

<svg
   xmlns:dc="http://purl.org/dc/elements/1.1/"
   xmlns:cc="http://creativecommons.org/ns#"
   xmlns:rdf="http://www.w3.org/1999/02/22-rdf-syntax-ns#"
   xmlns:svg="http://www.w3.org/2000/svg"
   xmlns="http://www.w3.org/2000/svg"
   xmlns:sodipodi="http://sodipodi.sourceforge.net/DTD/sodipodi-0.dtd"
   xmlns:inkscape="http://www.inkscape.org/namespaces/inkscape"
   width="247.56584mm"
   height="329.11316mm"
   viewBox="0 0 247.56586 329.11316"
   version="1.1"
   id="svg8"
   inkscape:version="0.92.1 r15371"
   sodipodi:docname="imprint.svg">
  <defs
     id="defs2" />
  <sodipodi:namedview
     id="base"
     pagecolor="#ffffff"
     bordercolor="#666666"
     borderopacity="1.0"
     inkscape:pageopacity="0.0"
     inkscape:pageshadow="2"
     inkscape:zoom="0.35"
     inkscape:cx="740.06633"
     inkscape:cy="739.96371"
     inkscape:document-units="mm"
     inkscape:current-layer="layer1"
     showgrid="false"
     fit-margin-top="0"
     fit-margin-left="0"
     fit-margin-right="0"
     fit-margin-bottom="0"
     inkscape:window-width="1600"
     inkscape:window-height="837"
     inkscape:window-x="-8"
     inkscape:window-y="147"
     inkscape:window-maximized="1" />
  <metadata
     id="metadata5">
    <rdf:RDF>
      <cc:Work
         rdf:about="">
        <dc:format>image/svg+xml</dc:format>
        <dc:type
           rdf:resource="http://purl.org/dc/dcmitype/StillImage" />
        <dc:title></dc:title>
      </cc:Work>
    </rdf:RDF>
  </metadata>
  <g
     inkscape:label="Layer 1"
     inkscape:groupmode="layer"
     id="layer1"
     transform="translate(89.975886,-15.502237)">
    <g
       transform="translate(-61.95756,22.400874)"
       id="layer1-6"
       inkscape:label="Layer 1">
      <path
         inkscape:connector-curvature="0"
         id="path21"
         d="m 83.594409,321.82862 c -2.83842,-0.96089 -4.91974,-3.98907 -4.90743,-7.13997 0.0122,-3.13502 1.77434,-5.44147 6.58335,-8.61713 3.50565,-2.315 4.70462,-2.77617 9.9656,-3.8331 2.23213,-0.44842 5.308571,-1.15721 6.836541,-1.57506 4.33984,-1.18682 5.73953,-1.4105 8.86354,-1.41648 2.8408,-0.005 3.01621,0.03 7.33335,1.4814 5.52352,1.85693 6.27417,2.24219 8.43668,4.32983 4.582,4.42338 4.49464,8.49318 -0.25106,11.69445 -3.41428,2.30312 -5.06665,2.38041 -9.16097,0.42844 -3.25364,-1.55114 -5.93744,-2.0951 -9.40071,-1.90529 -3.76655,0.20643 -6.19088,0.95867 -10.139691,3.14624 -3.90223,2.16175 -7.0256,3.30663 -9.62468,3.52796 -0.98954,0.0843 -2.09814,0.19859 -2.46356,0.25405 -0.36541,0.0555 -1.29734,-0.11343 -2.07096,-0.37534 z M 41.799269,304.2315 c -1.76821,-0.42802 -3.1569,-1.54152 -4.00362,-3.21024 -0.54582,-1.07572 -0.66116,-1.68757 -0.66896,-3.54878 -0.0207,-4.93617 2.01164,-6.93925 8.73176,-8.60613 1.01318,-0.2513 3.38996,-1.14771 5.28173,-1.99197 4.0986,-1.82919 5.16891,-2.20437 7.87669,-2.76114 4.23589,-0.87095 7.30369,-1.98178 11.8842,-4.30315 2.51943,-1.27683 5.43095,-2.71352 6.47005,-3.19262 1.0391,-0.47911 2.64645,-1.52951 3.57188,-2.33424 1.88765,-1.64145 2.11229,-1.77469 6.18051,-3.6659 1.60073,-0.74415 3.98198,-2.03513 5.29167,-2.86886 2.70176,-1.71987 4.39432,-2.31658 8.345961,-2.94232 1.5216,-0.24093 3.82932,-0.60957 5.12827,-0.8192 1.29895,-0.20963 2.91508,-0.38114 3.59139,-0.38114 0.67632,0 2.29245,0.17151 3.5914,0.38114 1.29895,0.20963 3.61024,0.57885 5.13619,0.82052 3.99227,0.63228 5.51614,1.18441 8.55188,3.09859 1.48312,0.93514 4.00626,2.37178 5.60699,3.19249 1.78768,0.91654 3.62489,2.11428 4.7625,3.10483 1.01865,0.88694 2.80458,2.193 3.96875,2.90232 1.16416,0.70932 2.59291,1.72022 3.175,2.24645 2.49445,2.25509 3.69286,3.03585 6.65406,4.33506 3.94438,1.73062 5.29255,2.71391 6.94286,5.06386 2.25738,3.2144 2.26481,5.69378 0.027,8.98917 -1.77268,2.61038 -3.64754,3.70149 -6.4422,3.74912 -2.23014,0.038 -3.30199,-0.35528 -6.25564,-2.29529 -1.38245,-0.908 -3.70898,-2.2507 -5.17007,-2.98376 -1.46108,-0.73305 -3.30655,-1.85253 -4.10104,-2.48774 -2.44412,-1.95411 -3.21018,-2.47431 -5.75087,-3.90517 -1.34985,-0.76023 -3.42525,-2.20369 -4.61201,-3.20771 -1.23047,-1.041 -2.96149,-2.19628 -4.02802,-2.68829 -1.02866,-0.47453 -3.53715,-1.69289 -5.57445,-2.70746 l -3.70416,-1.84465 -2.77813,-0.009 -2.77812,-0.009 -2.91042,1.48323 c -1.60073,0.81579 -3.981981,1.87296 -5.291661,2.34929 -3.24416,1.17985 -3.99508,1.58673 -6.28069,3.40302 -2.69217,2.13936 -3.86435,2.8476 -6.93961,4.19287 -1.45033,0.63445 -3.49363,1.68749 -4.54066,2.34006 -2.49627,1.55585 -4.24826,2.31351 -7.9311,3.42984 -3.34889,1.01508 -3.87302,1.24847 -6.62618,2.95029 -2.51128,1.55231 -4.02238,2.05066 -8.61611,2.84139 -2.11993,0.36491 -5.42388,1.02613 -7.3421,1.46942 -3.77847,0.87312 -6.08217,0.9883 -8.42488,0.42119 z M 9.9883686,278.66653 c -3.0175,-0.33036 -5.12211,-1.61689 -6.54698,-4.00211 -2.73788003,-4.58319 -0.0706,-9.27434 5.92288,-10.41715 4.9920304,-0.95184 7.0193104,-1.51778 9.5010204,-2.65226 3.3152,-1.51548 5.8072,-2.39017 7.88133,-2.76627 2.83785,-0.51459 5.53056,-1.51641 8.45264,-3.14474 1.56447,-0.87177 4.24337,-2.07891 5.95312,-2.6825 4.47418,-1.5795 6.06275,-2.3594 8.00343,-3.92925 0.9795,-0.79234 3.08647,-2.0455 4.89479,-2.91126 1.97462,-0.94539 4.1253,-2.24446 5.68854,-3.43606 1.45411,-1.1084 3.68449,-2.47419 5.29166,-3.24039 1.52797,-0.72844 3.7574,-2.03337 4.95428,-2.89986 2.75964,-1.99786 4.73743,-2.9127 8.4878,-3.92611 1.64506,-0.44452 3.72735,-1.11814 4.62729,-1.49692 5.30124,-2.23126 9.45638,-3.26735 15.28469,-3.81124 4.079111,-0.38066 20.051381,-0.21657 21.414691,0.22001 0.50933,0.1631 2.53339,0.54046 4.49792,0.83858 4.15861,0.63109 4.47953,0.72308 8.34294,2.39142 1.60544,0.69328 4.46294,1.76619 6.35,2.38425 4.12062,1.34961 4.4352,1.50088 7.13518,3.43112 1.16417,0.83228 3.34992,2.14347 4.85723,2.91377 2.90918,1.4867 5.92443,4.01241 11.27041,9.44063 1.51317,1.53645 3.36612,3.06264 5.03903,4.15042 1.45521,0.94623 3.23543,2.19639 3.95605,2.77813 0.82822,0.6686 2.06584,1.30744 3.3642,1.73657 1.80321,0.59594 2.49928,0.67908 5.70124,0.68085 6.19673,0.003 9.19437,0.83875 11.20451,3.12237 1.01534,1.15351 1.83545,3.15497 1.83545,4.4794 0,1.3209 -0.61872,2.98894 -1.4834,3.99912 -1.86719,2.18139 -6.39786,4.46133 -9.36451,4.71244 -2.53146,0.21429 -7.34045,-0.54451 -11.00501,-1.73646 -1.73261,-0.56356 -3.86457,-1.16988 -4.7377,-1.34736 -2.27954,-0.46342 -5.02569,-1.82134 -7.02348,-3.47303 -1.73915,-1.43785 -3.22044,-2.43038 -5.67652,-3.80354 -0.7276,-0.4068 -2.51891,-1.94284 -3.98068,-3.41344 -5.3991,-5.43172 -7.8362,-7.45255 -10.75272,-8.91611 -1.49105,-0.74825 -3.74216,-2.06077 -5.00246,-2.91673 -2.93559,-1.99374 -3.25198,-2.11741 -8.30997,-3.24817 -2.32833,-0.52052 -4.94771,-1.13374 -5.82083,-1.36271 -3.04671,-0.79899 -5.58678,-1.18205 -9.86724,-1.48805 -4.87578,-0.34857 -7.12497,-0.13503 -10.428311,0.99004 -2.22991,0.75948 -6.13866,1.57348 -8.80862,1.83441 -2.87586,0.28104 -6.28221,1.49649 -9.15526,3.26676 -1.39737,0.86101 -3.65955,2.00641 -5.02708,2.54533 -3.42073,1.34804 -5.16725,2.32695 -6.71974,3.76625 -1.66739,1.54583 -3.40665,2.64131 -6.03039,3.7982 -1.1339,0.49999 -2.97937,1.60372 -4.10105,2.4528 -2.31675,1.75365 -4.09682,2.71404 -6.8888,3.71668 -2.44783,0.87902 -2.71719,1.02177 -4.80788,2.54775 -2.77388,2.02465 -4.39644,2.70187 -9.17714,3.83027 -1.0456,0.24677 -3.46768,1.21123 -5.3824,2.1432 -4.96522,2.41676 -8.68588,3.43358 -16.26442,4.44498 -4.07236,0.54345 -5.5621,0.62357 -7.5497304,0.40597 z m -16.13048,-26.84433 c -3.80361,-1.06582 -5.8208296,-3.59525 -5.8208296,-7.29886 0,-3.07323 1.15091,-4.61409 4.8947896,-6.55323 4.01223,-2.07813 6.50155997,-2.86386 15.21354,-4.80201 3.1646604,-0.70404 4.2663304,-1.19076 6.9063504,-3.05123 1.16508,-0.82106 3.23302,-1.94813 4.59542,-2.50459 3.45593,-1.41156 3.767,-1.59337 6.05877,-3.54101 1.11925,-0.95118 3.37076,-2.51741 5.00337,-3.4805 1.63261,-0.9631 3.74229,-2.4121 4.68817,-3.22 0.94589,-0.80789 2.62718,-2.10514 3.73621,-2.88276 1.10903,-0.77763 2.82003,-2.31176 3.80222,-3.40919 0.9822,-1.09744 2.69419,-2.73273 3.80442,-3.63398 1.11024,-0.90125 2.18139,-1.79558 2.38034,-1.9874 0.19896,-0.19181 1.52135,-1.28784 2.93865,-2.43561 1.4173,-1.14777 3.2718,-2.8985 4.12111,-3.8905 0.8493,-0.992 2.21966,-2.51802 3.04525,-3.39114 0.82558,-0.87313 2.08633,-2.36141 2.80167,-3.30729 1.98088,-2.61929 8.6379,-9.1875 11.5494,-11.39531 5.20547,-3.94735 6.27399,-4.28401 13.22003,-4.16528 5.90121,0.10086 6.30262,0.2518 9.69732,3.6465 2.08936,2.08937 2.48211,2.65646 4.376701,6.31959 3.52622,6.81784 5.67921,8.61404 10.3298,8.61798 2.67824,0.002 3.83413,-0.42832 5.39592,-2.01007 1.83613,-1.85961 3.46879,-6.32241 3.46622,-9.47476 -0.003,-3.26121 -1.19598,-9.05573 -2.31682,-11.25011 -0.69863,-1.36777 -5.75142,-7.60493 -7.39479,-9.12813 -1.9684,-1.82445 -4.45932,-3.77169 -5.5113,-4.30838 -2.22724,-1.13626 -9.321141,-2.94259 -12.556931,-3.19738 -1.09141,-0.0859 -2.75828,-0.0541 -3.70417,0.0708 -0.94588,0.12488 -3.74385,0.48067 -6.21771,0.79064 -7.82606,0.98062 -10.01345,1.64077 -13.61942,4.11034 -1.21497,0.83208 -3.17201,1.9968 -4.34898,2.58828 -2.63897,1.32619 -4.75867,2.76018 -5.97639,4.04307 -0.50932,0.53658 -2.10699,2.00708 -3.55037,3.26777 -1.44338,1.26069 -3.62747,3.54232 -4.85353,5.07029 -1.22606,1.52797 -2.84852,3.43297 -3.60547,4.23333 -0.75695,0.80037 -2.33945,2.64584 -3.51668,4.10104 -1.17723,1.45521 -2.52321,3.00303 -2.99108,3.43959 -0.46787,0.43656 -1.60548,1.87212 -2.52802,3.19012 -1.78683,2.5528 -2.41327,3.17985 -7.51832,7.5255 -1.79497,1.52797 -4.53443,3.97298 -6.08768,5.43336 -2.01556,1.89504 -3.62568,3.12283 -5.62395,4.2885 -1.53992,0.8983 -3.73432,2.41505 -4.87644,3.37056 -1.14212,0.9555 -3.20767,2.32105 -4.5901204,3.03454 -1.38245,0.71349 -3.39805,1.96916 -4.47911,2.79038 -1.08106,0.82122 -2.4131,1.72144 -2.96009,2.00049 -1.62333003,0.82816 -6.81044,2.10431 -9.25787,2.27765 -2.0583396,0.14578 -2.4144596,0.0982 -3.7041696,-0.49498 -2.79524,-1.2856 -5.11974,-4.56837 -5.10438,-7.20865 0.0132,-2.26752 1.48205,-4.29548 4.72377,-6.52179 0.72098,-0.49515 2.2908796,-1.63163 3.4886796,-2.52552 1.1978,-0.89389 2.75104,-1.8354 3.45164,-2.09225 4.55018997,-1.66819 5.53640997,-2.13305 7.28826,-3.43539 1.79808,-1.33671 4.22593,-3.01045 6.67503,-4.60172 0.5763,-0.37444 1.8910004,-1.48178 2.9215804,-2.46075 1.03057,-0.97898 2.41912,-2.1696 3.08566,-2.64584 1.5044,-1.07487 9.13949,-8.52667 12.01033,-11.72201 1.17262,-1.30517 2.97856,-3.4446 4.01319,-4.75429 1.03464,-1.30968 2.55119,-3.02683 3.3701,-3.81587 0.81892,-0.78905 2.24525,-2.51546 3.16963,-3.83646 1.79846,-2.57014 5.28523,-6.11763 8.08483,-8.22563 0.94588,-0.71222 2.59624,-2.09587 3.66744,-3.0748 1.24918,-1.14156 2.87623,-2.26805 4.53688,-3.14112 1.42408,-0.7487 3.20903,-1.89031 3.96657,-2.53694 2.31549,-1.97646 4.36152,-2.95499 8.73119,-4.17576 0.80037,-0.2236 2.64583,-0.98814 4.10104,-1.69899 2.68372,-1.31096 5.32989,-2.2697 7.01146,-2.54034 2.32039,-0.37346 10.83127,-1.21767 12.28,-1.21808 1.43568,-5.3e-4 4.92086,0.52856 11.400211,1.73026 1.40835,0.26121 3.13487,0.87316 5.15937,1.8287 1.67349,0.78987 4.23334,1.87291 5.68854,2.40675 3.28594,1.20545 4.02738,1.65003 6.36279,3.81519 1.02567,0.95091 2.63033,2.32506 3.56589,3.05367 0.93556,0.7286 2.2395,2.02422 2.89763,2.87915 0.65814,0.85493 2.11763,2.55213 3.24332,3.77155 2.3558,2.55197 2.66869,3.10332 4.10772,7.2381 0.58242,1.67349 1.54227,4.1738 2.13299,5.55625 2.1288,4.98194 2.29113,5.91821 2.29367,13.22917 0.003,7.5644 -0.0747,7.94208 -2.44899,11.96209 -0.83463,1.41316 -2.11283,3.66113 -2.84043,4.99549 -2.25147,4.129 -4.1237,5.5801 -9.82683,7.61644 -1.58024,0.56424 -3.64708,1.3645 -4.59296,1.77835 -1.65041,0.7221 -1.91856,0.75641 -6.6459,0.85031 -3.8416,0.0763 -5.27914,0.007 -6.52971,-0.31298 -1.91305,-0.4901 -6.831981,-2.77162 -8.160861,-3.78521 -1.45886,-1.11273 -5.84584,-6.35392 -7.0478,-8.42012 -3.06535,-5.2694 -5.53444,-5.48306 -9.43238,-0.81622 -1.05045,1.25766 -7.47302,7.86549 -14.27237,14.68406 -11.24323,11.27502 -12.61282,12.55916 -15.12786,14.18395 -1.52098,0.9826 -3.59885,2.50563 -4.6175,3.3845 -1.01864,0.87888 -2.80458,2.2209 -3.96875,2.98226 -1.16416,0.76138 -2.77151,1.99452 -3.57187,2.74032 -1.05932,0.9871 -2.49891,1.86461 -5.29167,3.22556 -2.11005,1.02825 -4.82626,2.57536 -6.03601,3.43801 -1.91312,1.36421 -2.79507,1.77029 -6.77234,3.11823 -2.51503,0.85237 -5.81147,2.08666 -7.32544,2.74288 -3.4068604,1.47667 -4.7840604,1.94617 -7.6474604,2.60711 -3.09792,0.71507 -8.63052,0.89896 -10.58333,0.35177 z M 193.71764,239.02909 c -0.74572,-0.2544 -2.234,-1.00837 -3.30729,-1.67549 -2.29517,-1.42662 -3.38162,-1.94501 -7.09744,-3.38649 -3.20832,-1.2446 -4.91841,-2.23825 -6.61248,-3.8422 -0.66722,-0.63173 -1.98545,-1.75579 -2.9294,-2.49793 -0.94395,-0.74214 -2.90732,-2.5648 -4.36304,-4.05036 -1.45573,-1.48556 -3.2891,-3.29504 -4.07416,-4.02107 -0.78507,-0.72602 -2.07966,-2.33337 -2.87687,-3.57187 -0.79721,-1.23851 -2.03025,-2.98377 -2.74008,-3.87838 -1.71221,-2.1579 -2.68633,-4.32374 -3.67143,-8.16303 -0.44806,-1.74625 -1.23916,-4.1275 -1.758,-5.29167 -2.10722,-4.72821 -2.26343,-5.21865 -2.52153,-7.91675 -0.1403,-1.46662 -0.49932,-4.15486 -0.79783,-5.97387 -0.33513,-2.04218 -0.61786,-5.43268 -0.73912,-8.86354 -0.28503,-8.06457 -0.99632,-11.06622 -3.69911,-15.61042 -0.98628,-1.65822 -1.54506,-2.85626 -2.93692,-6.29674 -0.45911,-1.13488 -1.44631,-2.88875 -2.19376,-3.8975 -0.74745,-1.00874 -2.30874,-3.1163 -3.46953,-4.68346 -2.27479,-3.07116 -9.54945,-10.53854 -11.68933,-11.999 -0.70476,-0.481 -2.46139,-1.81198 -3.90361,-2.95773 -3.18345,-2.52905 -4.7315,-3.33538 -8.5022,-4.42853 -1.59418,-0.46216 -4.28018,-1.48722 -5.9689,-2.27791 -4.32805,-2.02648 -5.3644,-2.17798 -15.463681,-2.26059 -9.52985,-0.078 -9.88089,-0.0301 -14.27425,1.94484 -3.4136,1.53453 -3.98733,1.71493 -9.12813,2.87011 -5.11877,1.15024 -5.95923,1.4519 -8.46666,3.03888 -0.94589,0.59867 -2.06249,1.30087 -2.48135,1.56046 -0.41885,0.25959 -1.88151,0.86706 -3.25034,1.34993 -3.06421,1.08093 -4.2261,1.75242 -6.48014,3.74507 -1.11584,0.98644 -2.88596,2.13357 -4.83265,3.13181 -1.89133,0.96986 -3.75667,2.17181 -4.85379,3.1276 -0.98007,0.85381 -2.79397,2.24224 -4.0309,3.0854 -2.86312,1.95167 -8.98666,7.48776 -11.03833,9.97939 -0.50608,0.61459 -1.89601,1.81548 -3.08875,2.66864 -2.49638,1.78564 -9.01252,7.08999 -11.5375004,9.3919 -0.94588,0.86232 -2.85088,2.37439 -4.23333,3.36015 -1.38245,0.98577 -3.42636,2.62764 -4.54203003,3.64861 -1.11566,1.02097 -2.75473997,2.34951 -3.64239997,2.95231 -0.88766,0.60279 -2.35609,1.75944 -3.26319,2.57032 -1.76418,1.57707 -8.6892296,6.4269 -10.6465796,7.45615 -2.4773,1.30265 -5.78254,0.58721 -7.7145,-1.66985 -2.9248,-3.41698 -3.16147,-6.95538 -0.7351,-10.99047 1.05956,-1.76206 2.10489,-2.76817 5.4668,-5.26167 1.41457,-1.04917 2.63969,-2.0172 2.72249,-2.15116 0.0828,-0.13396 1.54478,-1.25099 3.24887,-2.48229 1.70409,-1.23131 4.05085,-3.086 5.2150096,-4.12154 1.16417,-1.03554 2.92786,-2.42056 3.91932,-3.07783 0.99146,-0.65726 2.65833,-2.00403 3.70417,-2.99282 1.04582997,-0.98879 2.8134,-2.44906 3.92793,-3.24505 2.35417,-1.68131 5.88606,-4.83535 9.4701204,-8.45694 1.38951,-1.40407 3.24075,-3.02697 4.11388,-3.60644 0.87312,-0.57947 2.65906,-1.99552 3.96875,-3.14678 1.30969,-1.15125 3.33375,-2.77298 4.49791,-3.60384 1.16417,-0.83085 2.71198,-2.05037 3.43959,-2.71004 1.91268,-1.73411 4.22896,-3.35706 6.35,-4.44927 1.01864,-0.52454 2.50693,-1.49563 3.30729,-2.15798 0.80036,-0.66234 2.88396,-1.93041 4.63021,-2.81793 1.74625,-0.88752 4.30609,-2.40977 5.68854,-3.38277 2.9513,-2.07721 2.90335,-2.05643 8.21412,-3.56111 2.89542,-0.82035 4.85364,-1.55893 6.61458,-2.4948 3.27874,-1.7425 4.90695,-2.26059 9.66234,-3.07448 8.00642,-1.3703 9.67429,-1.51139 19.53124,-1.65213 7.95073,-0.11353 10.015331,-0.0638 12.700001,0.30592 8.09352,1.11459 10.29391,1.79493 18.81626,5.81785 5.6186,2.65222 6.5586,3.16607 7.65473,4.18445 0.59209,0.55009 1.95127,1.56312 3.02041,2.25118 3.64723,2.34721 5.01442,3.50513 9.76776,8.27258 3.34556,3.3555 5.27312,5.53051 6.50513,7.34026 0.96294,1.4145 2.51587,3.44119 3.45095,4.50377 1.1302,1.2843 1.94243,2.526 2.42288,3.70401 1.51018,3.70278 2.31908,5.28868 3.94034,7.72519 1.87855,2.82318 2.1976,3.66577 3.3061,8.73125 0.42991,1.96453 1.01648,4.34578 1.30348,5.29166 0.67755,2.233 1.0121,4.02496 1.35815,7.27449 0.15487,1.45435 0.50803,3.59747 0.7848,4.7625 0.58693,2.47059 0.72988,3.47057 1.05932,7.40989 0.23853,2.85232 1.5495,10.60844 2.1466,12.7 0.39168,1.37199 1.15489,2.87969 2.20991,4.36562 0.46494,0.65485 1.30576,2.02407 1.86848,3.04271 1.78047,3.22301 2.90882,4.69332 5.60859,7.30835 1.78086,1.72496 3.28182,2.90449 4.65499,3.65813 1.11466,0.61176 3.03839,1.86658 4.27496,2.7885 1.58663,1.18289 3.00975,1.96788 4.83557,2.66726 4.65809,1.7843 5.76966,2.47731 9.29358,5.79415 2.17465,2.04685 2.82043,3.32562 2.81029,5.56486 -0.007,1.48039 -0.14979,2.1233 -0.71297,3.20347 -0.95433,1.83041 -3.07641,3.69743 -4.77633,4.20225 -1.76819,0.5251 -4.74431,0.47883 -6.44151,-0.10015 z m 12.20378,-42.73385 c -2.52637,-0.80108 -3.19495,-1.31788 -9.75182,-7.53799 -0.70683,-0.67053 -1.94899,-2.35024 -2.76034,-3.73269 -0.81135,-1.38244 -1.91952,-3.10885 -2.4626,-3.83646 -1.34971,-1.80832 -2.27283,-4.0096 -2.75753,-6.57558 -1.18566,-6.27697 -1.55651,-7.91659 -2.28284,-10.09317 -1.07761,-3.2292 -2.43218,-8.38132 -3.13033,-11.90625 -1.41791,-7.15892 -1.8688,-8.40667 -4.34595,-12.02639 -0.75148,-1.09809 -1.70565,-2.82996 -2.12038,-3.84861 -1.59562,-3.91904 -2.55968,-5.75215 -4.06801,-7.73504 -0.85955,-1.13 -2.13298,-2.94751 -2.82985,-4.03891 -0.69686,-1.09141 -2.24431,-2.99641 -3.43875,-4.23334 -1.19446,-1.23693 -2.54785,-2.80726 -3.00756,-3.48962 -0.45971,-0.68236 -1.68355,-1.99205 -2.71964,-2.91042 -1.0361,-0.91836 -2.79154,-2.49453 -3.90098,-3.5026 -1.10944,-1.00806 -2.8506,-2.46208 -3.86925,-3.23114 -1.01865,-0.76907 -2.56646,-2.05261 -3.43958,-2.85231 -0.87313,-0.79971 -2.83766,-2.20055 -4.36563,-3.11299 -1.52797,-0.91245 -3.41016,-2.137876 -4.18266,-2.723185 -3.45058,-2.614459 -4.2362,-3.091492 -6.59906,-4.007025 -1.3798,-0.53463 -3.77486,-1.741321 -5.32236,-2.681533 -1.54749,-0.940213 -3.11128,-1.828978 -3.47508,-1.975028 -0.62425,-0.250613 -6.83054,-1.92963 -10.09446,-2.730897 -0.82252,-0.201924 -3.32283,-1.021688 -5.55624,-1.821698 -4.76499,-1.706819 -5.57406,-1.896015 -9.08784,-2.125126 -1.455211,-0.09488 -4.015051,-0.357981 -5.688541,-0.58466 -7.68611,-1.041098 -17.29662,0.207608 -26.72292,3.472154 -1.38245,0.478771 -4.12088,1.254529 -6.08541,1.723906 -5.76636,1.377722 -6.96017,1.783723 -10.5171,3.576748 -1.85682,0.936006 -4.68515,2.16897 -6.28519,2.739914 -4.21776,1.505027 -5.73006,2.230237 -8.02846,3.849965 -1.38425,0.975509 -3.1629,1.877945 -5.48432,2.782595 -3.48313,1.35736 -5.33926,2.36675 -6.96195,3.78599 -0.49325,0.4314 -2.39387,1.51119 -4.2236,2.39954 -1.91633,0.93039 -4.30753,2.35876 -5.64005,3.36904 -1.2723,0.96464 -3.48598,2.38151 -4.9192904,3.14862 -1.43331,0.76711 -3.40547,2.09371 -4.38258,2.94801 -0.97712,0.8543 -2.63735,2.05092 -3.68941,2.65916 -3.12998,1.80958 -4.44532,2.71093 -6.67534,4.57434 -1.16417,0.97278 -3.01534,2.28854 -4.11372,2.92391 -1.0983796,0.63537 -2.9189896,1.99261 -4.0457996,3.0161 -2.58223,2.34544 -4.06378,2.95515 -7.1301,2.93429 -3.55453,-0.0242 -5.65974,-1.19489 -6.97866,-3.88085 -1.07533,-2.18988 -1.06424,-4.62276 0.0308,-6.75058 1.60724,-3.12322 4.73518,-6.26898 8.61148,-8.66056 0.80037,-0.49381 2.48034,-1.75769 3.73328,-2.80862 1.25294,-1.05094 3.28691,-2.5616 4.51994,-3.35704 1.2330196,-0.79544 3.0221996,-2.10823 3.9759496,-2.91732 0.95375,-0.80909 2.90837,-2.14542 4.3436,-2.96964 1.43523997,-0.82421 3.68109,-2.313178 4.99077,-3.308821 1.37349,-1.044147 3.28104,-2.194849 4.50736,-2.719012 3.2124704,-1.37309 4.0688304,-1.856928 5.9436904,-3.358158 2.36328,-1.892321 3.56073,-2.553139 6.27025,-3.460258 3.46121,-1.158777 4.26086,-1.545005 6.33633,-3.060438 2.33598,-1.70565 3.81731,-2.456759 6.708,-3.401319 2.7632,-0.902901 3.9023,-1.463739 5.98734,-2.947885 2.14308,-1.525457 3.85975,-2.251326 7.37412,-3.118032 3.4222,-0.843973 5.56549,-1.586672 8.46666,-2.933896 1.16417,-0.540605 3.10194,-1.324345 4.30616,-1.741646 2.67536,-0.927095 10.2644,-2.229057 15.27301,-2.620211 2.98936,-0.233458 4.41742,-0.498137 7.40027,-1.37159 l 3.69611,-1.082312 4.63827,0.153204 c 3.56586,0.117782 5.37235,0.31224 7.81327,0.841055 4.840421,1.04866 6.925961,1.405932 10.077811,1.726422 3.38849,0.344556 9.99202,1.427898 11.8826,1.949402 1.6644,0.459113 4.23522,1.445242 6.55995,2.516307 0.9886,0.455475 3.78657,1.50037 6.21771,2.321994 4.67659,1.580486 4.6907,1.587302 7.62948,3.68445 1.03765,0.740481 3.06179,1.86051 4.49808,2.488957 3.06648,1.341725 4.28969,2.072102 5.94137,3.547565 0.66729,0.596098 2.45323,1.818962 3.96875,2.717474 1.51552,0.898512 3.5294,2.316962 4.47528,3.152114 0.94589,0.835149 2.90777,2.40924 4.35974,3.497977 1.67139,1.25326 5.22946,4.577977 9.69803,9.061977 5.69465,5.71433 7.27457,7.45744 8.17879,9.02358 1.4728,2.55094 2.69769,4.37384 3.70441,5.51299 1.19215,1.34896 2.68367,3.60818 3.57505,5.41516 0.42833,0.86828 1.58046,2.65422 2.5603,3.96875 1.80603,2.42291 2.6142,4.28606 3.38945,7.81401 0.51249,2.33223 1.46973,5.01502 2.9885,8.37568 1.43179,3.16819 2.63965,7.21425 2.94963,9.88057 1.12652,9.68991 1.63107,11.72891 4.14931,16.76842 2.23589,4.47448 3.30078,5.85786 7.92749,10.29842 l 4.05246,3.88941 h 1.52821 1.52821 v 3.83646 3.83646 h -1.53322 c -1.47449,0 -1.58851,0.0511 -2.97656,1.33455 -2.10053,1.94221 -3.7298,2.6384 -6.12331,2.6165 -1.06404,-0.01 -2.41086,-0.16871 -2.99295,-0.35329 z M 189.43535,94.498898 c -1.62359,-0.623802 -3.30107,-2.145305 -11.95664,-10.844876 -4.85372,-4.878393 -6.13507,-6.010389 -8.73124,-7.713507 -1.67349,-1.097827 -3.81662,-2.671003 -4.7625,-3.495947 -0.94589,-0.824947 -2.6723,-2.129126 -3.83646,-2.89818 -1.16417,-0.769051 -2.85025,-2.038966 -3.74686,-2.822035 -1.7399,-1.519579 -1.9074,-1.617586 -6.17502,-3.613066 -1.52797,-0.714457 -3.69611,-1.960271 -4.81809,-2.768475 -1.12198,-0.808207 -2.90792,-1.798842 -3.96875,-2.201413 -1.06083,-0.402572 -2.70269,-1.025149 -3.64857,-1.383506 -0.94589,-0.358357 -3.33268,-1.399591 -5.30398,-2.313856 -4.06096,-1.883418 -7.75245,-3.097165 -11.23248,-3.693197 -3.40676,-0.583483 -9.41008,-2.084922 -12.60468,-3.152447 -4.30419,-1.438314 -4.77302,-1.51606 -10.533151,-1.746744 -2.99044,-0.119764 -6.98498,-0.417148 -8.87675,-0.660856 -3.79503,-0.488894 -7.4095,-0.411548 -12.43542,0.26611 -1.60073,0.215832 -4.33916,0.397087 -6.08541,0.402789 -4.16562,0.0136 -6.44932,0.330557 -9.30001,1.290754 -1.28791,0.433805 -3.949,1.103773 -5.91353,1.488816 -1.96454,0.385045 -4.16719,0.865441 -4.8948,1.067548 -0.7276,0.202108 -3.46604,0.734164 -6.08541,1.182344 -6.37712,1.091144 -7.43731,1.388303 -10.55842,2.959404 -1.46891,0.739423 -3.08747,1.549263 -3.59679,1.799643 -0.50932,0.250383 -2.1762,0.775195 -3.70417,1.166249 -4.70224,1.203455 -6.7396,1.974546 -9.27499,3.510381 -2.81424,1.704742 -4.23404,2.197639 -6.33034,2.197639 -2.8893204,0 -4.8634404,-1.105426 -6.6721704,-3.736131 -2.03054,-2.953324 -2.12649,-5.785143 -0.28814,-8.50402 2.12758,-3.146653 3.65792,-4.144299 9.0590304,-5.905709 2.88055,-0.939409 4.44035,-1.626839 6.32428,-2.787219 2.70606,-1.666767 4.68379,-2.423115 7.57921,-2.898534 3.47168,-0.57004 8.1951,-1.814299 12.95745,-3.413289 6.64386,-2.230724 9.29901,-2.822538 14.8238,-3.304114 2.61937,-0.228325 5.62701,-0.540766 6.68364,-0.694315 1.05662,-0.153551 4.27131,-0.378161 7.14375,-0.499136 3.82403,-0.161055 5.75401,-0.362067 7.20698,-0.750626 3.24076,-0.866658 5.45076,-1.13121 9.92188,-1.18772 3.35412,-0.04239 4.53555,0.04001 5.68854,0.396767 4.6085,1.425956 5.05689,1.505894 9.335411,1.664322 2.35984,0.08738 5.24313,0.268975 6.40729,0.403539 11.74577,1.357694 14.73528,1.984952 20.70752,4.344856 2.07581,0.820242 4.75471,1.730393 5.95313,2.022557 4.59348,1.119851 7.8745,2.460977 10.27512,4.199977 0.58893,0.42662 2.52056,1.330479 4.29251,2.008577 4.57186,1.749583 6.10433,2.487027 8.54613,4.112506 1.18218,0.78696 3.3253,2.057828 4.7625,2.824152 1.4372,0.76632 3.65622,2.217652 4.93116,3.225178 1.27495,1.007528 3.34257,2.450687 4.59472,3.207022 1.25215,0.756336 3.00698,2.028312 3.89963,2.826613 0.89265,0.798301 2.33737,1.992617 3.2105,2.654035 0.87312,0.661419 2.54,2.112939 3.70416,3.225599 1.16417,1.112663 3.06917,2.7471 4.23334,3.632081 2.17668,1.654683 6.7503,6.22055 10.71562,10.697464 2.63024,2.969586 3.48139,4.756997 3.52939,7.411715 0.0601,3.325453 -1.15957,5.581325 -3.64293,6.737692 -1.80298,0.839549 -5.40855,0.869603 -7.50899,0.06259 z M 161.69246,34.516824 c -2.28612,-0.675857 -4.83295,-2.286878 -7.73701,-4.894117 -1.36889,-1.228976 -3.61484,-2.931054 -4.991,-3.782393 -1.37617,-0.851337 -3.3518,-2.293596 -4.39028,-3.20502 -1.82387,-1.60071 -2.43586,-1.954448 -7.31212,-4.22648 -1.23692,-0.576332 -3.1759,-1.654461 -4.30883,-2.395845 -2.29476,-1.501679 -3.16611,-1.798357 -9.13383,-3.109888 -2.28367,-0.501883 -4.92604,-1.144283 -5.87192,-1.427556 -0.94589,-0.283272 -3.2676,-0.699149 -5.15938,-0.92417 -2.10728,-0.250656 -4.41318,-0.7226026 -5.95312,-1.2184231 -3.31494,-1.067324 -6.02861,-1.368378 -9.549431,-1.059414 -3.49185,0.306423 -10.05763,1.3893741 -13.7339,2.2652551 -10.28981,2.451568 -12.70143,2.544888 -16.5915,0.642021 -3.47073,-1.6977411 -5.05521,-5.2002331 -3.9902,-8.8203361 0.71852,-2.44234219 5.64017,-5.9547622 9.86607,-7.0410892 1.45051,-0.372873 3.65716,-0.624069 7.01146,-0.798155 5.44605,-0.282645 6.50539,-0.400194 8.99583,-0.99822 2.45922,-0.590526 13.370241,-0.551916 17.065631,0.06039 1.45521,0.24112 4.66989,0.553845 7.14375,0.694946 7.16624,0.40874 12.84573,1.648913 17.59479,3.841998 1.67349,0.772808 4.23333,1.71439401 5.68854,2.09241401 4.67379,1.21411419 5.931,1.72888519 8.49066,3.47655819 1.36532,0.932208 3.9173,2.336218 5.67106,3.120022 2.25581,1.008185 3.70818,1.861031 4.96451,2.9152129 0.97672,0.8195632 2.62543,2.0750592 3.6638,2.7899902 1.03837,0.714931 3.89886,3.299738 6.35664,5.744014 4.92554,4.898475 5.85061,6.271715 6.10348,9.060363 0.17519,1.932059 -0.60965,3.832452 -2.1809,5.280784 -2.38357,2.1971 -4.7642,2.788844 -7.7128,1.917138 z"
         style="fill:#000000;stroke-width:0.26458332" />
    </g>
  </g>
</svg>
