<?xml version="1.0" encoding="UTF-8" standalone="no"?>
<!-- Created with Inkscape (http://www.inkscape.org/) -->

<svg
   xmlns:dc="http://purl.org/dc/elements/1.1/"
   xmlns:cc="http://creativecommons.org/ns#"
   xmlns:rdf="http://www.w3.org/1999/02/22-rdf-syntax-ns#"
   xmlns:svg="http://www.w3.org/2000/svg"
   xmlns="http://www.w3.org/2000/svg"
   xmlns:sodipodi="http://sodipodi.sourceforge.net/DTD/sodipodi-0.dtd"
   xmlns:inkscape="http://www.inkscape.org/namespaces/inkscape"
   width="307.93668mm"
   height="221.94891mm"
   viewBox="0 0 307.9367 221.94891"
   version="1.1"
   id="svg8"
   inkscape:version="0.92.1 r15371"
   sodipodi:docname="message.svg">
  <defs
     id="defs2" />
  <sodipodi:namedview
     id="base"
     pagecolor="#ffffff"
     bordercolor="#666666"
     borderopacity="1.0"
     inkscape:pageopacity="0.0"
     inkscape:pageshadow="2"
     inkscape:zoom="0.35"
     inkscape:cx="913.42247"
     inkscape:cy="613.68046"
     inkscape:document-units="mm"
     inkscape:current-layer="layer1"
     showgrid="false"
     fit-margin-top="0"
     fit-margin-left="0"
     fit-margin-right="0"
     fit-margin-bottom="0"
     inkscape:window-width="1600"
     inkscape:window-height="837"
     inkscape:window-x="-8"
     inkscape:window-y="147"
     inkscape:window-maximized="1" />
  <metadata
     id="metadata5">
    <rdf:RDF>
      <cc:Work
         rdf:about="">
        <dc:format>image/svg+xml</dc:format>
        <dc:type
           rdf:resource="http://purl.org/dc/dcmitype/StillImage" />
        <dc:title></dc:title>
      </cc:Work>
    </rdf:RDF>
  </metadata>
  <g
     inkscape:label="Layer 1"
     inkscape:groupmode="layer"
     id="layer1"
     transform="translate(135.84303,-89.254031)">
    <g
       transform="translate(-41.546846,32.984207)"
       id="layer1-4"
       inkscape:label="Layer 1">
      <g
         style="fill:#000000"
         inkscape:label="Layer 1"
         id="layer1-2"
         transform="translate(60.277197,25.066763)">
        <path
           style="fill:#000000;stroke-width:0.26458335"
           d="m -121.56984,252.91158 c -17.16942,-1.5295 -30.73043,-13.70544 -32.77836,-29.4305 -0.19736,-1.51549 -0.2602,-26.64168 -0.20723,-82.87281 l 0.076,-80.697918 0.7013,-2.536056 c 1.76961,-6.399354 4.35268,-10.929847 8.72395,-15.301122 5.67689,-5.676884 13.47541,-9.474506 21.74859,-10.590844 1.42693,-0.192543 39.605461,-0.279269 122.9388122,-0.279269 118.4948178,0 120.9282378,0.0101 123.8773678,0.51428 3.69961,0.632482 6.72454,1.568787 9.98929,3.092 10.30168,4.806365 17.66758,14.033728 19.47463,24.39614 0.33626,1.928193 0.38878,13.122714 0.38878,82.857999 0,71.35358 -0.0468,80.89692 -0.40677,82.96118 -2.06571,11.84563 -11.17598,21.90038 -23.58081,26.02546 -3.05438,1.0157 -5.69391,1.54091 -9.38689,1.86778 -3.57177,0.31615 -238.00769,0.31001 -241.55866,-0.006 z m 241.62185,-30.0928 c 0.8051,-0.4206 1.6125,-1.08384 1.8828,-1.54667 0.45175,-0.77348 0.47022,-3.88602 0.40658,-68.47979 l -0.0667,-67.669478 -52.717441,42.228528 c -28.994595,23.22569 -53.307232,42.65225 -54.028082,43.17013 -0.720849,0.51788 -2.001126,1.20254 -2.845054,1.52147 -1.475197,0.5575 -1.95758,0.58287 -12.498504,0.65722 -11.408794,0.0805 -12.406874,0.01 -14.920085,-1.05971 -0.960038,-0.40847 -17.361519,-13.38569 -55.00631,-43.52222 -29.501122,-23.61711 -53.700574,-42.9402 -53.776564,-42.9402 -0.076,0 -0.13817,30.36685 -0.13817,67.48189 0,72.96721 -0.0951,68.12785 1.36581,69.49188 0.34229,0.31959 1.03821,0.76141 1.5465,0.98184 0.82081,0.35595 14.25609,0.40192 120.1548783,0.41112 l 119.2307217,0.0103 z M 51.18569,101.9791 102.53751,60.704102 51.13203,60.637292 c -28.273013,-0.03674 -74.674707,-0.03674 -103.114876,0 l -51.709404,0.06681 51.454687,41.350348 c 28.300077,22.74269 51.5934542,41.31644 51.7630601,41.275 0.1696085,-0.0414 23.4166949,-18.6491 51.6601929,-41.35035 z"
           id="path125"
           inkscape:connector-curvature="0" />
      </g>
    </g>
  </g>
</svg>
