<?xml version="1.0" encoding="UTF-8" standalone="no"?>
<!-- Created with Inkscape (http://www.inkscape.org/) -->

<svg
   xmlns:dc="http://purl.org/dc/elements/1.1/"
   xmlns:cc="http://creativecommons.org/ns#"
   xmlns:rdf="http://www.w3.org/1999/02/22-rdf-syntax-ns#"
   xmlns:svg="http://www.w3.org/2000/svg"
   xmlns="http://www.w3.org/2000/svg"
   xmlns:sodipodi="http://sodipodi.sourceforge.net/DTD/sodipodi-0.dtd"
   xmlns:inkscape="http://www.inkscape.org/namespaces/inkscape"
   width="154.5248mm"
   height="181.49336mm"
   viewBox="0 0 154.52481 181.49336"
   version="1.1"
   id="svg8"
   inkscape:version="0.92.1 r15371"
   sodipodi:docname="refresh.svg">
  <defs
     id="defs2" />
  <sodipodi:namedview
     id="base"
     pagecolor="#ffffff"
     bordercolor="#666666"
     borderopacity="1.0"
     inkscape:pageopacity="0.0"
     inkscape:pageshadow="2"
     inkscape:zoom="0.35"
     inkscape:cx="891.15212"
     inkscape:cy="373.80291"
     inkscape:document-units="mm"
     inkscape:current-layer="layer1"
     showgrid="false"
     fit-margin-top="0"
     fit-margin-left="0"
     fit-margin-right="0"
     fit-margin-bottom="0"
     inkscape:window-width="1600"
     inkscape:window-height="837"
     inkscape:window-x="-8"
     inkscape:window-y="147"
     inkscape:window-maximized="1" />
  <metadata
     id="metadata5">
    <rdf:RDF>
      <cc:Work
         rdf:about="">
        <dc:format>image/svg+xml</dc:format>
        <dc:type
           rdf:resource="http://purl.org/dc/dcmitype/StillImage" />
        <dc:title></dc:title>
      </cc:Work>
    </rdf:RDF>
  </metadata>
  <g
     inkscape:label="Layer 1"
     inkscape:groupmode="layer"
     id="layer1"
     transform="translate(129.95067,-66.241975)">
    <g
       transform="translate(-121.43185,-28.398483)"
       id="layer1-94"
       inkscape:label="Layer 1">
      <g
         style="fill:#000000"
         inkscape:label="Layer 1"
         id="layer1-9"
         transform="translate(19.014203,40.184003)">
        <path
           style="fill:#000000;stroke-width:0.26458335"
           d="m -15.024014,235.38404 c -1.631974,-0.62671 -3.362351,-2.21907 -4.117453,-3.78904 -0.705777,-1.46741 -0.837657,-3.99068 -0.294107,-5.62716 0.566992,-1.70705 1.991274,-3.34415 3.688081,-4.23914 l 1.35939,-0.71703 15.27968786,-0.0744 c 8.40382904,-0.0409 15.27968814,-0.13513 15.27968814,-0.2094 0,-0.0743 -5.527299,-5.87689 -12.2828901,-12.89472 -6.75559,-7.01783 -13.126509,-13.7697 -14.1575989,-15.00414 -10.267883,-12.29298 -16.4773,-28.10479 -17.173572,-43.73118 -0.516537,-11.5926 1.171903,-21.60226 5.39351,-31.97462 5.895613,-14.48534 16.4413449,-27.026034 29.8861759,-35.539815 3.0019681,-1.900961 11.0977181,-5.890152 14.4743841,-7.132272 4.099462,-1.508002 6.860805,-1.217957 9.361588,0.983321 3.348423,2.947397 3.378023,8.30916 0.06154,11.147941 -0.666234,0.570273 -2.350037,1.413696 -4.540708,2.274462 -20.9611231,8.236109 -35.3881001,26.048193 -38.677521,47.752713 -2.414902,15.93419 2.3150499,33.11381 12.6604589,45.98395 0.795144,0.98919 6.786176,7.35172 13.3134021,14.13895 l 11.867685,12.34042 0.132292,-13.87437 c 0.127785,-13.4019 0.151262,-13.91537 0.689414,-15.07844 1.360644,-2.94066 3.929534,-4.60206 7.11579,-4.60206 3.18627,0 5.75516,1.6614 7.1158,4.60206 0.55375,1.19678 0.55712,1.35233 0.55712,25.67803 v 24.47396 l -0.56947,1.23198 c -0.77918,1.68567 -2.48171,3.26438 -4.223,3.91588 -1.41841,0.5307 -1.90043,0.54042 -26.107559,0.52689 -24.307059,-0.0136 -24.683075,-0.0217 -26.092133,-0.5628 z m 85.256077,-18.90668 c -1.5571,-0.55174 -3.48818,-2.34557 -4.22239,-3.92228 -0.89673,-1.9257 -0.87253,-4.57062 0.0589,-6.43979 0.95936,-1.92519 2.40219,-3.05103 5.37763,-4.19616 12.9567,-4.98654 23.04897,-12.93656 30.305407,-23.8726 13.09949,-19.74197 13.16567,-45.50123 0.16779,-65.30215 -2.974667,-4.5316 -3.903837,-5.58149 -16.915707,-19.113335 l -11.81473,-12.286869 -0.13229,13.874369 c -0.12779,13.401905 -0.15126,13.915375 -0.68941,15.078445 -1.36065,2.94066 -3.92954,4.60206 -7.1158,4.60206 -3.18626,0 -5.75515,-1.6614 -7.11579,-4.60206 -0.55375,-1.19678 -0.55713,-1.35233 -0.55713,-25.678034 V 60.144997 l 0.56948,-1.231988 c 0.77918,-1.685666 2.4817,-3.264377 4.22299,-3.915876 1.41727,-0.530269 1.91844,-0.540678 26.03149,-0.540678 24.440697,0 24.595327,0.0033 26.093037,0.563704 2.78186,1.040826 4.61022,3.506812 4.81172,6.48975 0.20758,3.073066 -1.28228,5.738094 -4.01307,7.17848 l -1.35939,0.717025 -15.279687,0.07437 c -8.40383,0.0409 -15.27969,0.140084 -15.27969,0.220407 0,0.08032 4.49124,4.809358 9.98053,10.508967 5.48929,5.699611 11.367617,11.81025 13.062947,13.579199 11.43711,11.933733 18.72844,27.724173 20.36521,44.103823 0.40883,4.0913 0.18171,14.42604 -0.39919,18.16428 -3.30459,21.26597 -15.08694,39.65831 -33.087617,51.65004 -4.38089,2.91846 -11.08272,6.37543 -15.68593,8.09119 -3.30684,1.23255 -5.30074,1.4162 -7.37933,0.67967 z"
           id="path47"
           inkscape:connector-curvature="0" />
      </g>
    </g>
  </g>
</svg>
