<?xml version="1.0" encoding="UTF-8" standalone="no"?>
<!-- Created with Inkscape (http://www.inkscape.org/) -->

<svg
   xmlns:dc="http://purl.org/dc/elements/1.1/"
   xmlns:cc="http://creativecommons.org/ns#"
   xmlns:rdf="http://www.w3.org/1999/02/22-rdf-syntax-ns#"
   xmlns:svg="http://www.w3.org/2000/svg"
   xmlns="http://www.w3.org/2000/svg"
   xmlns:sodipodi="http://sodipodi.sourceforge.net/DTD/sodipodi-0.dtd"
   xmlns:inkscape="http://www.inkscape.org/namespaces/inkscape"
   width="328.55719mm"
   height="293.12027mm"
   viewBox="0 0 328.55719 293.12027"
   version="1.1"
   id="svg8"
   inkscape:version="0.92.1 r15371"
   sodipodi:docname="reply.svg">
  <defs
     id="defs2" />
  <sodipodi:namedview
     id="base"
     pagecolor="#ffffff"
     bordercolor="#666666"
     borderopacity="1.0"
     inkscape:pageopacity="0.0"
     inkscape:pageshadow="2"
     inkscape:zoom="0.35"
     inkscape:cx="1420.8995"
     inkscape:cy="693.92135"
     inkscape:document-units="mm"
     inkscape:current-layer="layer1"
     showgrid="false"
     fit-margin-top="0"
     fit-margin-left="0"
     fit-margin-right="0"
     fit-margin-bottom="0"
     inkscape:window-width="1600"
     inkscape:window-height="837"
     inkscape:window-x="-8"
     inkscape:window-y="147"
     inkscape:window-maximized="1" />
  <metadata
     id="metadata5">
    <rdf:RDF>
      <cc:Work
         rdf:about="">
        <dc:format>image/svg+xml</dc:format>
        <dc:type
           rdf:resource="http://purl.org/dc/dcmitype/StillImage" />
        <dc:title></dc:title>
      </cc:Work>
    </rdf:RDF>
  </metadata>
  <g
     inkscape:label="Layer 1"
     inkscape:groupmode="layer"
     id="layer1"
     transform="translate(270.11299,-39.313077)">
    <path
       style="fill:#000000;stroke-width:0.26458332"
       d="m 20.76979,332.08703 c -1.11636,-0.48726 -2.69092,-2.3186 -3.02364,-3.51674 -0.35374,-1.27388 -0.36097,-4.2338 -0.0153,-6.30258 0.44492,-2.66375 1.01692,-11.19931 1.33863,-19.97604 0.75398,-20.56817 -1.32355,-37.90202 -6.37397,-53.18125 -5.6295095,-17.03101 -14.4227805,-28.66427 -29.099641,-38.49796 -12.122494,-8.12222 -25.667398,-12.73571 -46.566665,-15.86094 -16.277963,-2.43417 -29.647321,-3.05087 -66.202924,-3.0538 l -23.47271,-0.002 -0.0752,24.6724 -0.0752,24.67239 -0.61182,1.51468 c -2.7325,6.76477 -10.01533,9.7219 -16.32151,6.6272 -1.98251,-0.9729 -97.93696,-96.89916 -99.0498,-99.02069 -2.04659,-3.90168 -1.7148,-8.6529 0.84511,-12.1021 0.51633,-0.6957 22.46643,-22.77103 48.77799,-49.056274 45.42768,-45.382254 47.93151,-47.83594 49.67042,-48.6758 1.6072,-0.776246 2.14623,-0.897096 4.40623,-0.98787 1.94331,-0.07805 2.92204,0.0088 3.98961,0.353941 4.16941,1.348042 7.45373,5.143469 8.14672,9.414499 0.17581,1.08353 0.27607,10.185761 0.27735,25.178774 l 0.002,23.481771 21.76198,0.0046 c 28.06365,0.0059 39.774873,0.330234 52.850514,1.463513 40.96482,3.550466 72.3338935,13.724946 94.821746,30.755186 15.12522,11.45447 26.31532,26.51055 32.94194,44.32281 5.83536,15.68547 9.20933,39.00528 8.67783,59.97889 -0.32493,12.8223 -2.79979,25.62217 -8.28749,42.8625 -4.05177,12.72922 -13.39543,35.99381 -19.40409,48.31387 -1.67584,3.43612 -3.51888,5.78803 -5.13762,6.55619 -1.08588,0.51528 -3.67382,0.54806 -4.79044,0.0607 z"
       id="path23"
       inkscape:connector-curvature="0" />
    <path
       style="fill:#000000;stroke-width:0.26458332"
       d=""
       id="path21"
       inkscape:connector-curvature="0" />
  </g>
</svg>
