<?xml version="1.0" encoding="UTF-8" standalone="no"?>
<!-- Created with Inkscape (http://www.inkscape.org/) -->

<svg
   xmlns:dc="http://purl.org/dc/elements/1.1/"
   xmlns:cc="http://creativecommons.org/ns#"
   xmlns:rdf="http://www.w3.org/1999/02/22-rdf-syntax-ns#"
   xmlns:svg="http://www.w3.org/2000/svg"
   xmlns="http://www.w3.org/2000/svg"
   xmlns:sodipodi="http://sodipodi.sourceforge.net/DTD/sodipodi-0.dtd"
   xmlns:inkscape="http://www.inkscape.org/namespaces/inkscape"
   width="156.89026mm"
   height="143.58258mm"
   viewBox="0 0 156.89027 143.58258"
   version="1.1"
   id="svg8"
   inkscape:version="0.92.1 r15371"
   sodipodi:docname="reporting.svg">
  <defs
     id="defs2" />
  <sodipodi:namedview
     id="base"
     pagecolor="#ffffff"
     bordercolor="#666666"
     borderopacity="1.0"
     inkscape:pageopacity="0.0"
     inkscape:pageshadow="2"
     inkscape:zoom="0.35"
     inkscape:cx="876.20908"
     inkscape:cy="453.7115"
     inkscape:document-units="mm"
     inkscape:current-layer="layer1"
     showgrid="false"
     fit-margin-top="0"
     fit-margin-left="0"
     fit-margin-right="0"
     fit-margin-bottom="0"
     inkscape:window-width="1600"
     inkscape:window-height="837"
     inkscape:window-x="-8"
     inkscape:window-y="147"
     inkscape:window-maximized="1" />
  <metadata
     id="metadata5">
    <rdf:RDF>
      <cc:Work
         rdf:about="">
        <dc:format>image/svg+xml</dc:format>
        <dc:type
           rdf:resource="http://purl.org/dc/dcmitype/StillImage" />
        <dc:title></dc:title>
      </cc:Work>
    </rdf:RDF>
  </metadata>
  <g
     inkscape:label="Layer 1"
     inkscape:groupmode="layer"
     id="layer1"
     transform="translate(125.99699,-125.29524)">
    <g
       transform="translate(-223.83303,86.337458)"
       id="layer1-9"
       inkscape:label="Layer 1">
      <path
         inkscape:connector-curvature="0"
         id="path47"
         d="m 118.65073,182.40325 c -0.719,-0.23586 -1.24669,-0.60602 -1.7198,-1.20638 -0.34758,-0.44109 -0.4133,-5.59062 -0.52916,-41.46404 -0.12188,-37.73602 -0.16694,-40.995052 -0.57237,-41.400442 -0.33561,-0.33557 -0.6779,-0.39541 -1.44196,-0.25207 -0.76376,0.14328 -1.494,0.66685 -3.07229,2.202752 -1.13871,1.10814 -2.34561,2.49726 -2.68198,3.08694 -0.33637,0.58968 -0.98589,1.66746 -1.44336,2.39506 -1.30064,2.06863 -2.42593,6.75652 -2.42802,10.11496 -0.001,1.78106 0.13331,3.04775 0.39309,3.70417 0.21713,0.54865 0.63349,1.93792 0.92525,3.08728 0.32535,1.28169 0.84141,2.50938 1.33462,3.175 1.01055,1.36381 2.88755,4.20242 3.4965,5.2878 0.52788,0.94087 0.60632,2.73501 0.16219,3.70976 -0.35009,0.76836 -1.69798,1.48295 -2.78145,1.4746 -1.19886,-0.009 -2.83294,-0.8943 -3.72075,-2.01525 -2.74462,-3.46536 -3.79064,-5.49438 -5.709941,-11.07582 -0.795473,-2.31328 -0.82179,-2.54107 -0.922052,-7.98118 l -0.103207,-5.59993 0.809818,-1.67611 c 0.4454,-0.92186 1.168526,-2.63243 1.606952,-3.80127 1.60242,-4.272102 5.14826,-8.885792 8.65624,-11.263122 1.045,-0.70818 1.97627,-1.41102 2.06949,-1.56186 0.0932,-0.15084 1.04494,-0.68969 2.11491,-1.19744 1.46281,-0.69416 2.09806,-1.16868 2.56072,-1.9128 0.61307,-0.98602 0.61549,-1.02587 0.66528,-10.95951 0.0552,-11.01966 0.0681,-11.10872 1.74881,-12.13353 0.83137,-0.50691 1.68374,-0.5165 46.03779,-0.51747 49.86941,-10e-4 46.23454,-0.12868 47.21051,1.65714 0.43303,0.79233 0.47301,2.29925 0.54218,20.43458 0.0668,17.502902 0.0293,19.698462 -0.35278,20.704092 -0.23511,0.61871 -0.68216,1.30332 -0.99345,1.52136 -0.68646,0.48082 -3.30908,0.51923 -3.91075,0.0573 -1.02293,-0.78538 -1.03518,-1.00549 -1.04382,-18.759612 -0.009,-18.59302 0.0427,-17.90577 -1.39036,-18.45063 -0.98262,-0.37359 -78.9135,-0.42746 -79.88062,-0.0552 -1.50064,0.57759 -1.58813,1.01811 -1.4912,7.50796 0.0999,6.6869 0.20718,7.09345 2.00403,7.59245 1.68865,0.46896 4.67937,0.35462 5.37089,-0.20534 0.83028,-0.67232 0.587,-1.41058 -1.19962,-3.64047 -1.75306,-2.188 -2.18217,-3.34233 -1.74024,-4.68139 0.49963,-1.51387 1.47741,-2.30611 2.84621,-2.30611 0.64223,0 1.48919,0.17064 1.88215,0.37919 1.08867,0.57781 11.89514,11.55506 12.21119,12.40418 0.42018,1.12889 0.33123,2.60328 -0.21047,3.4885 -0.26715,0.43657 -3.05169,3.36426 -6.18788,6.50598 -4.94345,4.952182 -5.86032,5.756512 -6.89086,6.045052 -1.3183,0.3691 -1.77646,0.2282 -2.79327,-0.85906 -0.65864,-0.70427 -1.01209,-2.36419 -0.73689,-3.46068 0.0917,-0.36532 0.79801,-1.354782 1.56959,-2.198792 3.71333,-4.06195 3.46477,-4.99518 -1.27403,-4.78338 -2.77888,0.1242 -3.85923,0.57833 -4.3945,1.84726 -0.30867,0.73173 -0.368,7.164262 -0.368,39.898422 0,37.10086 0.0234,39.06053 0.47482,39.7252 0.30642,0.45122 0.8875,0.80309 1.63851,0.99219 1.58697,0.3996 77.08394,0.41291 78.52095,0.0138 2.02645,-0.56277 1.90958,0.71231 1.9664,-21.45452 0.0553,-21.55561 0.002,-20.80913 1.54791,-21.82185 0.88055,-0.57696 2.60263,-0.34351 3.4886,0.47293 1.43771,1.32487 1.39514,0.5814 1.39469,24.35485 -2.6e-4,20.45552 -0.0336,22.1001 -0.46302,22.9423 -0.25443,0.49898 -0.79875,1.15382 -1.20958,1.45521 l -0.74697,0.54797 -45.15824,0.0413 c -24.83703,0.0227 -45.39636,-0.0368 -45.6874,-0.13229 z m 14.68437,-21.45126 c -2.46493,-0.28781 -3.43958,-1.17989 -3.43958,-3.14817 0,-1.34789 0.68535,-2.47565 1.77907,-2.9275 0.54148,-0.22371 8.93794,-0.28503 31.9553,-0.23338 29.62649,0.0665 31.27046,0.0947 32.19258,0.55352 0.60562,0.30131 1.1436,0.84563 1.42788,1.4447 0.40611,0.85581 0.41561,1.07848 0.0866,2.03008 -0.30196,0.87336 -0.61148,1.18981 -1.69246,1.73029 l -1.32292,0.66146 -29.76563,0.0295 c -16.37109,0.0162 -30.42046,-0.047 -31.22083,-0.14046 z m 86.78725,-4.01775 c -1.0805,-0.48376 -2.30726,-1.81872 -2.54621,-2.77081 -0.39045,-1.55567 0.91419,-3.30641 2.85296,-3.82847 0.5839,-0.15723 2.67386,-0.2526 4.67238,-0.21321 2.48069,0.0489 3.79999,-0.0305 4.20224,-0.25294 1.05873,-0.5854 1.1608,-1.8169 1.0787,-13.01386 l -0.0775,-10.57321 -0.66146,-0.64996 c -0.60628,-0.59575 -0.88218,-0.65342 -3.30729,-0.6913 -4.02867,-0.0629 -4.04466,-0.0605 -4.52327,0.66991 -0.59402,0.90658 -0.14962,1.93187 1.38098,3.18608 2.47322,2.02662 3.05501,5.07628 1.28554,6.73861 -0.51822,0.48684 -0.96242,0.62655 -1.99212,0.62655 h -1.32519 l -5.87249,-5.80557 c -3.22986,-3.19306 -6.08095,-6.1014 -6.33576,-6.46297 -0.63466,-0.90057 -0.84718,-2.59839 -0.49088,-3.92159 0.24564,-0.91226 1.08017,-1.88508 4.85159,-5.65559 7.52593,-7.5241 7.64562,-7.62479 9.06355,-7.62479 1.48827,0 2.11261,0.3125 2.63237,1.31762 0.4999,0.9667 0.51689,3.18956 0.033,4.31327 -0.20167,0.46827 -0.91604,1.3822 -1.5875,2.03097 -0.86315,0.83396 -1.22085,1.39045 -1.22085,1.89933 0,1.31782 0.54306,1.55131 3.60817,1.55131 1.52714,0 3.017,-0.12865 3.31079,-0.28588 1.31909,-0.70596 1.28313,0.27917 1.28313,-35.146772 0,-22.32548 -0.0913,-33.49387 -0.28088,-34.378069 -0.51533,-2.402931 3.7425,-2.173884 -40.30739,-2.168304 -26.62199,0.0034 -39.23668,0.09294 -39.58823,0.281077 -1.117,0.597805 -1.40063,1.745063 -1.43803,5.816686 -0.0392,4.26621 -0.236,4.97973 -1.60745,5.82734 -0.965,0.5964 -2.8266,0.68851 -3.80044,0.18804 -0.34977,-0.17976 -0.87267,-0.64574 -1.16201,-1.03551 -0.49574,-0.66784 -0.52527,-1.12525 -0.51249,-7.9375 0.008,-4.554934 0.12029,-7.504331 0.30211,-7.973652 0.15871,-0.409656 0.28856,-1.034734 0.28856,-1.389063 v -0.644234 h 47.09583 47.09583 v 0.776526 c 0,0.427089 0.12551,1.106636 0.27891,1.510103 0.19083,0.501912 0.27227,11.90949 0.2579,36.12237 l -0.021,35.388802 0.65808,0.43119 c 0.55222,0.36182 0.8109,0.38076 1.60806,0.11767 1.15982,-0.38278 3.56849,-2.6817 4.306,-4.10981 0.29775,-0.57657 1.01753,-1.68162 1.59951,-2.45567 0.65184,-0.86697 1.17591,-1.93369 1.36486,-2.77812 0.1687,-0.75392 0.53579,-2.31617 0.81575,-3.47166 0.65092,-2.686562 0.65509,-5.783852 0.011,-8.200982 -0.27389,-1.02793 -0.63827,-2.54755 -0.80973,-3.37694 -0.17146,-0.8294 -0.62322,-1.96049 -1.00392,-2.51355 -2.10908,-3.06395 -2.77529,-3.99772 -3.40587,-4.77373 -1.42836,-1.75778 -1.00275,-4.60826 0.81701,-5.4718 1.75054,-0.83068 3.4292,-0.32303 5.04458,1.52554 1.81658,2.0788 3.5271,4.70053 3.96304,6.07417 0.24013,0.75662 0.89876,2.32818 1.46363,3.49235 l 1.02702,2.11667 0.1679,5.02708 c 0.11475,3.43569 0.0683,5.57151 -0.14686,6.746882 -0.17311,0.94588 -0.41655,2.28691 -0.54097,2.98007 -0.12442,0.69315 -0.39309,1.42715 -0.59705,1.63111 -0.20396,0.20395 -0.51488,0.76792 -0.69094,1.25326 -0.17606,0.48534 -0.57094,1.35868 -0.87751,1.94076 -0.30657,0.58209 -0.92531,1.77096 -1.37497,2.64195 -1.1358,2.20001 -5.73971,6.91157 -8.61412,8.81553 -1.23217,0.81617 -2.81753,2.04033 -3.52304,2.72034 l -1.28275,1.2364 0.0564,14.78253 c 0.0551,14.44084 0.0439,14.80699 -0.4861,15.84081 -0.29838,0.58205 -0.85311,1.34819 -1.23272,1.70253 l -0.69021,0.64426 -6.79516,0.018 c -5.70457,0.0151 -6.94793,-0.0504 -7.74701,-0.40817 z m -87.8414,-10.0306 c -1.12719,-0.26772 -2.03907,-1.27528 -2.27046,-2.5087 -0.24594,-1.31094 0.0489,-2.20183 1.06479,-3.21775 l 0.88399,-0.88399 29.85823,-0.0596 c 16.42202,-0.0328 30.35911,-0.0437 30.97129,-0.0243 2.52344,0.0801 4.57548,1.47396 4.57548,3.10785 0,1.0947 -0.9199,2.47591 -2.11757,3.17947 -0.91769,0.5391 -1.17103,0.54381 -31.48451,0.58473 -16.80766,0.0227 -30.97421,-0.0573 -31.48124,-0.17769 z m 0.0716,-14.76352 c -0.91635,-0.1303 -2.13075,-1.43545 -2.33154,-2.50577 -0.23405,-1.24761 0.48267,-2.74848 1.69958,-3.55901 l 0.89902,-0.59881 30.98327,0.001 c 30.44975,0.001 30.99812,0.0101 31.84559,0.52675 1.57157,0.9582 2.34197,2.94408 1.64636,4.24386 -0.1482,0.2769 -0.79014,0.80861 -1.42653,1.18156 l -1.15707,0.67809 -30.7865,0.0578 c -16.93257,0.0318 -31.05005,0.0203 -31.37218,-0.0255 z m -0.76683,-14.59581 c -2.20824,-0.89223 -2.21142,-4.77451 -0.005,-5.69655 0.77363,-0.32325 5.57264,-0.38376 31.86406,-0.40176 l 30.95324,-0.0212 1.25033,0.58773 c 1.65571,0.77827 2.22576,1.97203 1.68269,3.52379 -0.2787,0.79637 -0.63714,1.18375 -1.53006,1.65364 l -1.16608,0.61365 -31.24537,-0.0168 c -17.18495,-0.009 -31.49681,-0.11836 -31.80413,-0.24253 z m 32.25804,-14.03073 c -0.92492,-0.37257 -1.50625,-1.50728 -1.50625,-2.94014 0,-1.517202 0.61045,-2.511532 1.97266,-3.213152 0.83996,-0.43263 1.98622,-0.46206 15.45931,-0.39687 14.49348,0.0701 14.55655,0.0728 15.65908,0.66217 1.38478,0.74027 1.93599,1.51187 1.93473,2.708252 -0.001,1.24255 -0.78343,2.46283 -1.92599,3.00502 -0.83722,0.39728 -2.44805,0.44015 -15.97238,0.42507 -8.2727,-0.009 -15.30222,-0.12188 -15.62116,-0.25035 z m 0.26201,-14.270552 c -1.09391,-0.67177 -1.66649,-1.80428 -1.66649,-3.29612 0,-1.52208 0.44118,-2.48004 1.36129,-2.95585 1.13418,-0.58651 29.71113,-0.55669 31.1212,0.0325 1.98226,0.82824 2.81092,2.29563 2.17007,3.84278 -0.17718,0.42776 -0.92939,1.22357 -1.67157,1.76846 l -1.34941,0.99071 -14.55902,0.0689 c -14.07602,0.0666 -14.58712,0.0516 -15.40607,-0.45132 z"
         style="fill:#000000;stroke-width:0.26458335" />
    </g>
  </g>
</svg>
