<?xml version="1.0" encoding="UTF-8" standalone="no"?>
<!-- Created with Inkscape (http://www.inkscape.org/) -->

<svg
   xmlns:dc="http://purl.org/dc/elements/1.1/"
   xmlns:cc="http://creativecommons.org/ns#"
   xmlns:rdf="http://www.w3.org/1999/02/22-rdf-syntax-ns#"
   xmlns:svg="http://www.w3.org/2000/svg"
   xmlns="http://www.w3.org/2000/svg"
   xmlns:sodipodi="http://sodipodi.sourceforge.net/DTD/sodipodi-0.dtd"
   xmlns:inkscape="http://www.inkscape.org/namespaces/inkscape"
   width="170.56284mm"
   height="200.97945mm"
   viewBox="0 0 170.56285 200.97945"
   version="1.1"
   id="svg8"
   inkscape:version="0.92.1 r15371"
   sodipodi:docname="security.svg">
  <defs
     id="defs2" />
  <sodipodi:namedview
     id="base"
     pagecolor="#ffffff"
     bordercolor="#666666"
     borderopacity="1.0"
     inkscape:pageopacity="0.0"
     inkscape:pageshadow="2"
     inkscape:zoom="0.35"
     inkscape:cx="958.53257"
     inkscape:cy="559.22947"
     inkscape:document-units="mm"
     inkscape:current-layer="layer1"
     showgrid="false"
     fit-margin-top="0"
     fit-margin-left="0"
     fit-margin-right="0"
     fit-margin-bottom="0"
     inkscape:window-width="1600"
     inkscape:window-height="837"
     inkscape:window-x="-8"
     inkscape:window-y="147"
     inkscape:window-maximized="1" />
  <metadata
     id="metadata5">
    <rdf:RDF>
      <cc:Work
         rdf:about="">
        <dc:format>image/svg+xml</dc:format>
        <dc:type
           rdf:resource="http://purl.org/dc/dcmitype/StillImage" />
        <dc:title></dc:title>
      </cc:Work>
    </rdf:RDF>
  </metadata>
  <g
     inkscape:label="Layer 1"
     inkscape:groupmode="layer"
     id="layer1"
     transform="translate(147.77841,-95.816668)">
    <g
       transform="translate(-101.75843,-34.437888)"
       id="layer1-5"
       inkscape:label="Layer 1">
      <g
         style="fill:#000000"
         inkscape:label="Layer 1"
         id="layer1-4"
         transform="translate(-93.375326,150.82065)">
        <path
           style="fill:#000000;stroke-width:0.26458335"
           d="M 128.5802,179.48029 C 116.0032,175.02597 103.94259,168.97503 94.609152,162.43665 69.936824,145.15288 55.527484,121.23626 50.105087,88.568812 47.64697,73.759782 47.044339,60.879062 47.490983,32.694554 c 0.285725,-18.030092 0.310559,-18.604963 0.857248,-19.84375 1.371382,-3.1075316 3.655687,-4.3177326 8.153581,-4.3196856 4.097202,-0.0018 10.939158,-0.471344 15.666637,-1.075211 21.347479,-2.726827 38.620151,-10.628638 53.950431,-24.6809554 3.09864,-2.840326 4.09133,-3.348665 6.52425,-3.34096 2.52085,0.008 3.45885,0.501469 6.91415,3.637558 13.8371,12.5587684 29.02838,20.0658904 47.44034,23.4437424 6.40191,1.174491 15.26408,2.002385 21.56354,2.01444 1.60073,0.0031 3.34825,0.127172 3.88337,0.275801 1.67672,0.465701 3.40968,1.8495756 4.29645,3.4309816 l 0.81602,1.455209 0.17153,9.392708 c 0.26946,14.75452 0.24824,36.42103 -0.0411,41.93646 -1.61286,30.74752 -8.02897,52.744518 -20.83515,71.431278 -12.86479,18.77228 -32.71573,33.12371 -58.93489,42.60754 -4.71706,1.70623 -5.59543,1.74579 -9.33721,0.42058 z m 8.63079,-15.2702 c 31.2252,-12.38463 50.34374,-31.34959 59.58347,-59.10483 5.71898,-17.179238 7.5812,-35.893628 6.90691,-69.411268 -0.14299,-7.107499 -0.32293,-12.985692 -0.39989,-13.062643 -0.077,-0.07695 -1.72297,-0.244364 -3.65782,-0.37202 -25.60281,-1.689232 -46.72584,-9.700813 -64.92437,-24.6246276 -1.03136,-0.845773 -1.95428,-1.537769 -2.05094,-1.537769 -0.0967,0 -1.39594,0.98713 -2.8873,2.193622 C 111.81003,12.82892 91.289258,20.496632 65.594205,22.274352 c -1.942344,0.134382 -3.602275,0.315071 -3.688735,0.401532 -0.333929,0.333928 -0.196215,42.240808 0.1535,46.710628 1.616783,20.66464 4.920696,34.473218 11.426663,47.757298 4.591034,9.37411 9.718447,16.47121 17.11352,23.68765 7.863613,7.67366 16.856657,13.83258 28.186867,19.30389 3.40852,1.64596 13.19428,5.76653 13.79476,5.80867 0.12079,0.008 2.20438,-0.77179 4.63021,-1.73393 z m -16.88837,-58.23986 c -1.27178,-0.44455 -2.68643,-1.76504 -16.22435,-15.144548 -7.432824,-7.34585 -7.963607,-8.06921 -7.965671,-10.85583 -0.0021,-2.8275 1.366046,-5.0718 3.913821,-6.42024 1.57955,-0.83599 4.60252,-0.81749 6.25328,0.0383 0.76116,0.39459 3.91272,3.32705 8.73721,8.12981 4.15062,4.13191 7.6431,7.51257 7.76106,7.51257 0.11796,0 7.99887,-7.70929 17.51313,-17.13177 19.11826,-18.93385 18.79017,-18.65474 21.90747,-18.63675 4.989,0.0288 8.23639,4.6784 6.60807,9.46147 -0.40183,1.18034 -2.0002,2.84584 -16.86742,17.57577 -25.24177,25.008698 -25.20703,24.975558 -26.7228,25.488188 -1.59748,0.54027 -3.3368,0.53426 -4.9138,-0.017 z"
           id="path60"
           inkscape:connector-curvature="0" />
      </g>
    </g>
  </g>
</svg>
