<?xml version="1.0" encoding="UTF-8" standalone="no"?>
<!-- Created with Inkscape (http://www.inkscape.org/) -->

<svg
   xmlns:dc="http://purl.org/dc/elements/1.1/"
   xmlns:cc="http://creativecommons.org/ns#"
   xmlns:rdf="http://www.w3.org/1999/02/22-rdf-syntax-ns#"
   xmlns:svg="http://www.w3.org/2000/svg"
   xmlns="http://www.w3.org/2000/svg"
   xmlns:sodipodi="http://sodipodi.sourceforge.net/DTD/sodipodi-0.dtd"
   xmlns:inkscape="http://www.inkscape.org/namespaces/inkscape"
   width="201.61246mm"
   height="201.58946mm"
   viewBox="0 0 201.61247 201.58947"
   version="1.1"
   id="svg8"
   inkscape:version="0.92.1 r15371"
   sodipodi:docname="settings.svg">
  <defs
     id="defs2" />
  <sodipodi:namedview
     id="base"
     pagecolor="#ffffff"
     bordercolor="#666666"
     borderopacity="1.0"
     inkscape:pageopacity="0.0"
     inkscape:pageshadow="2"
     inkscape:zoom="0.35"
     inkscape:cx="1139.5325"
     inkscape:cy="405.90022"
     inkscape:document-units="mm"
     inkscape:current-layer="layer1"
     showgrid="false"
     fit-margin-top="0"
     fit-margin-left="0"
     fit-margin-right="0"
     fit-margin-bottom="0"
     inkscape:window-width="1600"
     inkscape:window-height="837"
     inkscape:window-x="-8"
     inkscape:window-y="147"
     inkscape:window-maximized="1" />
  <metadata
     id="metadata5">
    <rdf:RDF>
      <cc:Work
         rdf:about="">
        <dc:format>image/svg+xml</dc:format>
        <dc:type
           rdf:resource="http://purl.org/dc/dcmitype/StillImage" />
        <dc:title></dc:title>
      </cc:Work>
    </rdf:RDF>
  </metadata>
  <g
     inkscape:label="Layer 1"
     inkscape:groupmode="layer"
     id="layer1"
     transform="translate(195.66797,5.8379024)">
    <g
       transform="translate(-162.09342,1.7958776)"
       id="layer1-0"
       inkscape:label="Layer 1">
      <g
         style="fill:#000000"
         inkscape:label="Layer 1"
         id="layer1-3"
         transform="translate(-16.409367,-4.1007358)">
        <path
           style="fill:#000000;stroke-width:0.26458332"
           d="m 71.823542,197.68843 c -3.54836,-0.86055 -6.65088,-3.37107 -8.20174,-6.63674 -0.7958,-1.67573 -1.07453,-2.8947 -2.21546,-9.68885 -0.71782,-4.27458 -1.30694,-7.79202 -1.30916,-7.81654 -0.002,-0.0245 -0.80771,-0.30697 -1.78997,-0.62767 -2.49126,-0.81338 -7.08148,-2.69506 -9.30081,-3.8127 -1.02555,-0.51646 -1.97822,-0.93901 -2.11706,-0.93901 -0.13883,0 -3.18095,2.07618 -6.76026,4.61373 -4.04155,2.86527 -7.08181,4.83021 -8.0224,5.18494 -1.92822,0.7272 -5.0869,0.96243 -6.96766,0.51889 -3.29607,-0.77732 -4.08756,-1.39356 -12.35156,-9.61679 -6.7198596,-6.68669 -7.8685096,-7.94726 -8.6380896,-9.47971 -1.70854,-3.40219 -1.81218,-7.38573 -0.27944,-10.74091 0.35073,-0.76773 2.62089,-4.14325 5.04482,-7.50114 l 4.4071196,-6.10525 -1.47227,-3.08219 c -1.53179,-3.20679 -3.3202596,-7.56833 -3.8904196,-9.48761 -0.38824,-1.30687 0.42915,-1.07256 -9.51395,-2.72734 -5.85282,-0.97405 -6.68784,-1.17875 -8.5989604,-2.10793 -2.37975,-1.15703 -3.86319,-2.52695 -5.25993,-4.85744 -1.60761,-2.68233 -1.75153,-3.92273 -1.75153,-15.095766 0,-10.36538 0.10574,-11.61833 1.18565,-14.04986 1.30811,-2.94532 4.42015,-5.73882 7.3738204,-6.61905 0.74932,-0.22331 4.57709,-0.94492 8.50615998,-1.60358 3.92906002,-0.65866 7.21831002,-1.28067 7.30944002,-1.38225 0.0911,-0.10159 0.43483,-1.01814 0.76379,-2.03678 0.89913,-2.78427 2.5152596,-6.77036 3.7017896,-9.13025 0.5815,-1.15654 1.05727,-2.21799 1.05727,-2.35879 0,-0.14079 -1.97411,-3.02445 -4.3869196,-6.40814 -2.4128,-3.38368 -4.61602,-6.60125 -4.89605,-7.15014 -1.25236,-2.45484 -1.62963,-5.97141 -0.92471,-8.61934 0.8105,-3.04455 1.23485,-3.57744 9.3891896,-11.7906 7.01863,-7.069241 8.02185,-7.980977 9.68203,-8.799043 2.19248,-1.080366 4.44602,-1.546678 6.5635,-1.358149 3.04654,0.271246 4.5204,1.041201 11.33024,5.919025 3.51978,2.521182 6.42232,4.583967 6.45008,4.583967 0.0278,0 1.52692,-0.69918 3.33145,-1.55373 1.80454,-0.854551 4.6502,-2.054132 6.32369,-2.665733 1.67349,-0.611602 3.27636,-1.202394 3.56193,-1.312871 0.45394,-0.175614 0.69191,-1.207096 1.89272,-8.204141 1.17896,-6.8697617 1.49415,-8.2483637 2.22541,-9.7337627 1.62364,-3.29808701 5.01034,-5.90108 8.67098,-6.664459 0.89017,-0.185633 5.092383,-0.286818 11.509375,-0.277135 8.668425,0.01308 10.355175,0.07996 11.848563,0.469802 3.383804,0.883323 6.34517,3.28228499 7.93185,6.42548 0.81603,1.616537 1.06911,2.759293 2.59171,11.7026027 l 0.9842,5.780846 2.90048,0.993942 c 3.30849,1.133755 3.82575,1.344551 8.21874,3.349299 l 3.2016,1.46105 6.19111,-4.421139 c 3.40512,-2.431628 6.77618,-4.69454 7.49126,-5.028693 3.33411,-1.558025 7.13178,-1.449638 10.71744,0.305881 1.83939,0.900553 2.61079,1.586257 9.32175,8.286131 4.02402,4.01739 7.69015,7.89965 8.14693,8.62725 2.07959,3.31252 2.46646,8.06236 0.93467,11.47563 -0.41093,0.9157 -2.73999,4.45738 -5.17567,7.87041 l -4.42851,6.20552 1.53379,3.23151 c 1.39545,2.94008 3.9755,9.58488 3.9755,10.23873 0,0.14786 0.0298,0.26981 0.0661,0.271 0.0364,10e-4 3.57561,0.59605 7.86495,1.32191 6.84009,1.15751 8.03774,1.43321 9.74243,2.24277 3.23808,1.53776 5.60876,4.42587 6.52714,7.95177 0.33062,1.26931 0.40559,3.45184 0.40559,11.80728 0,6.439466 -0.10837,10.771386 -0.2915,11.652216 -0.75785,3.64525 -3.26631,6.86783 -6.637,8.52644 -1.74054,0.85647 -2.71961,1.0846 -9.74025,2.26956 -4.29287,0.72455 -7.82527,1.31835 -7.84979,1.31954 -0.0245,0.001 -0.3088,0.80584 -0.63176,1.78811 -0.94055,2.8607 -2.0309,5.53331 -3.61076,8.85047 l -1.47442,3.09577 4.31624,6.03235 c 2.37394,3.31779 4.64591,6.68076 5.04882,7.47327 1.59119,3.12983 1.62565,7.11034 0.0918,10.60943 -0.67668,1.5437 -1.49884,2.46369 -8.54749,9.56465 -8.28807,8.34956 -9.13031,9.02177 -12.3568,9.86216 -2.78804,0.72619 -5.67726,0.41532 -8.32338,-0.89556 -0.80037,-0.3965 -4.16613,-2.66112 -7.47947,-5.03249 l -6.02426,-4.31158 -2.54127,1.23649 c -2.77608,1.35074 -6.62511,2.91852 -9.42115,3.8374 -0.98226,0.32281 -1.78632,0.66652 -1.78678,0.76379 -5.3e-4,0.0973 -0.59606,3.62968 -1.32356,7.84979 -1.1759,6.82127 -1.42796,7.88769 -2.27088,9.60796 -1.65031,3.36802 -4.873937,5.87848 -8.522428,6.637 -2.037122,0.42352 -21.44357,0.35264 -23.24773,-0.0849 z m 21.608196,-11.59599 c 0.13988,-0.32742 0.915617,-4.58391 1.723858,-9.45885 0.808242,-4.87495 1.663711,-9.31422 1.901045,-9.86504 0.580919,-1.34825 2.178063,-2.7397 3.568909,-3.10928 5.07533,-1.34863 11.46603,-3.87609 15.64512,-6.18748 3.97669,-2.19944 5.14331,-2.44447 7.19018,-1.51017 0.58209,0.26569 4.41917,2.88245 8.52686,5.81502 4.10768,2.93257 7.68272,5.33195 7.94453,5.33195 0.60253,0 13.55882,-12.96096 13.55882,-13.56371 0,-0.24338 -2.49056,-3.95706 -5.53459,-8.25262 -3.04402,-4.29555 -5.67804,-8.24476 -5.85337,-8.77602 -0.55445,-1.67998 -0.16432,-3.25865 1.5757,-6.37617 2.48801,-4.45766 4.66477,-9.87058 6.23162,-15.49607 0.47634,-1.7102 1.75247,-3.33191 3.12384,-3.96974 0.46952,-0.21838 4.96133,-1.07772 9.9818,-1.90964 5.02047,-0.83192 9.33649,-1.62217 9.59115,-1.75611 0.42788,-0.22506 0.46302,-0.96611 0.46302,-9.764896 v -9.52137 l -0.59531,-0.24728 c -0.32743,-0.136 -4.58391,-0.91009 -9.45886,-1.7202 -4.87495,-0.81011 -9.32012,-1.67142 -9.87817,-1.91402 -1.74137,-0.75703 -2.6327,-2.10052 -3.60275,-5.43043 -1.28127,-4.39822 -2.97427,-8.5605 -5.33612,-13.11897 -2.26876,-4.37879 -2.61719,-5.63573 -2.03009,-7.32338 0.20249,-0.58208 2.83281,-4.52624 5.84515,-8.7648 3.01234,-4.23855 5.47698,-7.93265 5.47698,-8.20911 0,-0.60396 -12.92503,-13.58546 -13.52635,-13.58546 -0.22284,0 -3.72972,2.39621 -7.79306,5.32491 -4.06333,2.92871 -7.91087,5.56116 -8.55009,5.84991 -1.94531,0.87872 -3.61197,0.58513 -6.77529,-1.19352 -4.36075,-2.45193 -10.28222,-4.81675 -16.10295,-6.43093 -1.731755,-0.48025 -3.304671,-1.71423 -3.968669,-3.1135 -0.228005,-0.48049 -1.115949,-5.073666 -1.97321,-10.207064 -1.052348,-6.30162 -1.678546,-9.4093697 -1.927746,-9.5671627 -0.202999,-0.128541 -4.49801,-0.235534 -9.544463,-0.237762 -7.402333,-0.0033 -9.24514,0.06571 -9.5364,0.356978 -0.21739,0.217383 -0.97648,4.0334877 -1.90787,9.5911447 -1.69972,10.142376 -1.99746,11.123916 -3.74072,12.331616 -0.5718,0.39614 -2.46839,1.14962 -4.21464,1.67441 -5.05038,1.51776 -10.27139,3.77422 -14.44875,6.2446 -2.01246,1.19011 -3.82944,1.53042 -5.42472,1.01602 -0.56574,-0.18242 -4.52179,-2.81644 -8.79123,-5.85337 -4.26944,-3.03694 -7.90172,-5.5217 -8.07174,-5.5217 -0.17001,0 -3.33674,3.02937 -7.03717,6.73194 -6.23803,6.24163 -6.70769,6.77639 -6.44833,7.34219 0.15385,0.33563 2.67843,3.97152 5.61017,8.07973 2.93175,4.10822 5.44742,7.77715 5.59038,8.15317 0.14296,0.37602 0.25993,1.34328 0.25993,2.14948 0,1.29107 -0.20205,1.84889 -1.69489,4.67913 -2.63636,4.99823 -4.46833,9.67784 -6.10452,15.59353 -0.5168,1.86848 -1.84407,3.43297 -3.39605,4.003 -0.60922,0.22375 -5.1557896,1.07604 -10.1034996,1.89396 -6.58516,1.08862 -9.08446,1.59995 -9.32656,1.90815 -0.51463,0.65514 -0.47429,18.656776 0.0428,19.085896 0.20543,0.17049 4.58097998,1.0274 9.72344,1.90424 5.14247,0.87685 9.7340896,1.7762 10.2036196,1.99858 1.24375,0.58905 2.64519,2.2664 2.98785,3.57607 1.11189,4.24975 2.97487,9.00779 5.47031,13.97115 2.88284,5.73391 3.10097,6.49979 2.41923,8.49394 -0.16911,0.49466 -2.47068,3.93547 -5.1146,7.64626 -5.6116,7.87595 -6.2196,8.76663 -6.2196,9.11124 0,0.14143 2.94364,3.20942 6.54141,6.81774 4.75795,4.77192 6.70725,6.5606 7.14971,6.5606 0.36721,0 3.54816,-2.09771 8.02582,-5.2927 4.07963,-2.91099 7.79765,-5.49561 8.26227,-5.7436 0.51999,-0.27755 1.45505,-0.45346 2.43225,-0.45757 1.42913,-0.006 1.86466,0.14183 4.36563,1.48181 3.82993,2.05203 7.90423,3.78015 11.86605,5.033 1.84112,0.58222 3.83294,1.22831 4.42627,1.43575 1.27215,0.44478 2.6936,1.74957 3.18826,2.92661 0.19382,0.46118 1.01546,4.86649 1.82588,9.78958 0.81041,4.92309 1.58419,9.21897 1.7195,9.54639 l 0.24602,0.59531 h 9.53635 9.536345 z M 78.481687,140.47229 c -4.788745,-0.59531 -10.134315,-2.27354 -14.684375,-4.6101 -11.75045,-6.03415 -19.91991,-16.83457 -22.79564,-30.13694 -0.51962,-2.40362 -0.60058,-3.54496 -0.60058,-8.466656 0,-4.9217 0.081,-6.06305 0.60058,-8.46667 3.77916,-17.48138 16.63441,-30.40703 34.00134,-34.18756 2.318313,-0.50466 3.497789,-0.58524 8.63805,-0.59014 5.195414,-0.005 6.295419,0.0696 8.642445,0.58537 4.040598,0.888 7.279029,2.02083 10.804433,3.77948 12.71672,6.34374 21.52873,18.54882 23.67715,32.7941 0.38674,2.56429 0.38517,9.622006 -0.003,12.170826 -1.46716,9.64111 -5.55226,17.72746 -12.43036,24.60556 -6.82246,6.82246 -14.817837,10.88444 -24.208677,12.29902 -2.404653,0.36222 -9.439971,0.49741 -11.641667,0.22371 z m 10.614821,-11.60283 c 13.277052,-2.28109 23.813482,-12.76323 26.187002,-26.05208 0.59896,-3.353436 0.53208,-8.532156 -0.1538,-11.908786 -2.62184,-12.90761 -12.80176,-22.83606 -25.895481,-25.2558 -2.837926,-0.52445 -8.037671,-0.52409 -11.047455,7.9e-4 -11.588962,2.02095 -21.222862,10.31589 -24.969632,21.49925 -2.10435,6.28106 -2.10435,13.930486 0,20.211546 3.70381,11.05514 13.34777,19.42264 24.761064,21.48372 2.8213,0.50949 8.216903,0.51986 11.118302,0.0214 z"
           id="path73"
           inkscape:connector-curvature="0" />
      </g>
    </g>
  </g>
</svg>
