<?xml version="1.0" encoding="UTF-8" standalone="no"?>
<!-- Created with Inkscape (http://www.inkscape.org/) -->

<svg
   xmlns:dc="http://purl.org/dc/elements/1.1/"
   xmlns:cc="http://creativecommons.org/ns#"
   xmlns:rdf="http://www.w3.org/1999/02/22-rdf-syntax-ns#"
   xmlns:svg="http://www.w3.org/2000/svg"
   xmlns="http://www.w3.org/2000/svg"
   xmlns:sodipodi="http://sodipodi.sourceforge.net/DTD/sodipodi-0.dtd"
   xmlns:inkscape="http://www.inkscape.org/namespaces/inkscape"
   width="344.06693mm"
   height="344.23395mm"
   viewBox="0 0 344.06695 344.23396"
   version="1.1"
   id="svg8"
   inkscape:version="0.92.1 r15371"
   sodipodi:docname="tel.svg">
  <defs
     id="defs2" />
  <sodipodi:namedview
     id="base"
     pagecolor="#ffffff"
     bordercolor="#666666"
     borderopacity="1.0"
     inkscape:pageopacity="0.0"
     inkscape:pageshadow="2"
     inkscape:zoom="0.35"
     inkscape:cx="1341.1663"
     inkscape:cy="770.70675"
     inkscape:document-units="mm"
     inkscape:current-layer="layer1"
     showgrid="false"
     fit-margin-top="0"
     fit-margin-left="0"
     fit-margin-right="0"
     fit-margin-bottom="0"
     inkscape:window-width="1600"
     inkscape:window-height="837"
     inkscape:window-x="-8"
     inkscape:window-y="147"
     inkscape:window-maximized="1" />
  <metadata
     id="metadata5">
    <rdf:RDF>
      <cc:Work
         rdf:about="">
        <dc:format>image/svg+xml</dc:format>
        <dc:type
           rdf:resource="http://purl.org/dc/dcmitype/StillImage" />
        <dc:title></dc:title>
      </cc:Work>
    </rdf:RDF>
  </metadata>
  <g
     inkscape:label="Layer 1"
     inkscape:groupmode="layer"
     id="layer1"
     transform="translate(249.01691,51.960646)">
    <g
       transform="translate(-169.9175,-51.623677)"
       id="layer1-8"
       inkscape:label="Layer 1">
      <g
         style="fill:#000000"
         inkscape:label="Layer 1"
         id="layer1-7"
         transform="translate(66.192342,34.804205)">
        <path
           style="fill:#000000;stroke-width:0.26458335"
           d="M 112.66964,309.03048 C 95.433699,307.25227 84.775379,304.94018 71.130049,300.01941 53.110229,293.52111 37.220638,285.63089 17.625617,273.45096 -6.6283734,258.37505 -24.603665,243.848 -49.614441,219.1097 -74.471892,194.52304 -88.98708,177.34024 -104.76368,153.8251 c -10.9137,-16.26696 -19.16519,-31.21551 -26.18387,-47.43517 -6.51222,-15.049279 -11.55304,-32.61059 -13.74419,-47.882319 -0.53137,-3.703492 -0.60641,-5.259901 -0.59961,-12.435416 0.008,-8.848463 0.13704,-10.087899 1.4763,-14.222945 0.98832,-3.051497 2.22658,-5.69432 3.94577,-8.421473 1.22482,-1.942925 4.74173,-5.572201 27.62018,-28.5027153 18.96008,-19.0032267 26.732967,-26.6240477 28.082028,-27.5326427 2.808282,-1.891386 5.111046,-2.550522 8.850241,-2.533264 3.434652,0.01585 5.022088,0.471332 7.672917,2.20157 2.089523,1.363864 5.027467,4.427171 6.41232,6.685931 1.017672,1.659872 37.012493,69.883072 39.706864,75.258863 1.382609,2.758569 1.854245,4.806516 1.853176,8.046884 -0.0013,4.280535 -1.384316,8.744331 -3.837633,12.387297 -0.507868,0.754141 -5.469578,6.005882 -11.026019,11.670535 -10.974859,11.188591 -11.225134,11.507112 -11.241422,14.306751 -0.01707,2.933933 2.680741,10.449344 6.302019,17.555834 5.800283,11.38262 15.157839,24.67263 25.363451,36.02229 7.2453876,8.0576 22.8824826,23.60734 30.480663,30.31039 11.783709,10.39549 25.953983,20.20579 36.504294,25.2725 5.22531,2.50942 8.28996,3.62302 12.28876,4.4654 l 3.29292,0.69367 1.83557,-0.55753 c 2.12673,-0.64598 1.39192,0.0333 15.15953,-14.01464 4.63504,-4.72942 9.04548,-9.08735 9.80097,-9.68428 1.87347,-1.48027 5.120371,-3.12962 7.503451,-3.8116 1.34496,-0.38489 3.08007,-0.61321 5.42656,-0.71408 4.09777,-0.17615 6.82971,0.27324 9.91203,1.63047 2.16755,0.95443 70.57859,41.30297 73.1573,43.14785 3.40971,2.43942 5.89648,5.6363 7.02707,9.03379 0.48897,1.46939 0.55202,2.15776 0.46342,5.06024 -0.11235,3.68059 -0.52589,5.10444 -2.36292,8.13551 -0.60552,0.99909 -7.50049,8.05222 -22.05424,22.56012 -30.29101,30.19552 -32.37076,32.20027 -34.99464,33.73258 -2.83043,1.65293 -6.64197,3.23548 -9.82861,4.0808 -2.359,0.62579 -3.02445,0.67947 -9.15842,0.73908 -3.63802,0.0353 -7.09083,0.0151 -7.67291,-0.0449 z"
           id="path86"
           inkscape:connector-curvature="0" />
      </g>
    </g>
  </g>
</svg>
