<?xml version="1.0" encoding="UTF-8" standalone="no"?>
<!-- Created with Inkscape (http://www.inkscape.org/) -->

<svg
   xmlns:dc="http://purl.org/dc/elements/1.1/"
   xmlns:cc="http://creativecommons.org/ns#"
   xmlns:rdf="http://www.w3.org/1999/02/22-rdf-syntax-ns#"
   xmlns:svg="http://www.w3.org/2000/svg"
   xmlns="http://www.w3.org/2000/svg"
   xmlns:sodipodi="http://sodipodi.sourceforge.net/DTD/sodipodi-0.dtd"
   xmlns:inkscape="http://www.inkscape.org/namespaces/inkscape"
   width="180.41704mm"
   height="197.80513mm"
   viewBox="0 0 180.41704 197.80513"
   version="1.1"
   id="svg8"
   inkscape:version="0.92.1 r15371"
   sodipodi:docname="timer.svg">
  <defs
     id="defs2" />
  <sodipodi:namedview
     id="base"
     pagecolor="#ffffff"
     bordercolor="#666666"
     borderopacity="1.0"
     inkscape:pageopacity="0.0"
     inkscape:pageshadow="2"
     inkscape:zoom="0.35"
     inkscape:cx="435.41306"
     inkscape:cy="577.67538"
     inkscape:document-units="mm"
     inkscape:current-layer="layer1"
     showgrid="false"
     fit-margin-top="0"
     fit-margin-left="0"
     fit-margin-right="0"
     fit-margin-bottom="0"
     inkscape:window-width="1600"
     inkscape:window-height="837"
     inkscape:window-x="-8"
     inkscape:window-y="147"
     inkscape:window-maximized="1" />
  <metadata
     id="metadata5">
    <rdf:RDF>
      <cc:Work
         rdf:about="">
        <dc:format>image/svg+xml</dc:format>
        <dc:type
           rdf:resource="http://purl.org/dc/dcmitype/StillImage" />
        <dc:title></dc:title>
      </cc:Work>
    </rdf:RDF>
  </metadata>
  <g
     inkscape:label="Layer 1"
     inkscape:groupmode="layer"
     id="layer1"
     transform="translate(9.3697052,-103.87148)">
    <g
       transform="translate(-11.883459,122.91962)"
       id="layer1-9"
       inkscape:label="Layer 1"
       style="fill:#000000">
      <path
         inkscape:connector-curvature="0"
         id="path99"
         d="M 84.63117,178.57439 C 57.062427,175.9849 32.39324,161.31372 17.213628,138.48005 4.8436183,119.87267 0.06470429,97.567963 3.7002873,75.408993 9.4440803,40.400423 36.145886,11.833743 71.078801,3.3247129 c 3.515275,-0.85626 9.722414,-1.921015 12.595762,-2.160642 l 2.147232,-0.17907304 v -2.99220296 -2.992204 l -9.458855,-0.07861 c -9.114935,-0.07575 -9.497335,-0.09941 -10.517187,-0.650737 -1.250387,-0.67595 -2.527202,-1.975254 -3.20783,-3.264331 -0.356338,-0.674888 -0.489947,-1.5001049 -0.492641,-3.0427079 -0.0032,-1.836284 0.09265,-2.280564 0.723646,-3.353959 0.400037,-0.68051 1.173943,-1.606664 1.719792,-2.05812 1.987762,-1.644024 1.210429,-1.599379 27.847658,-1.599379 27.586582,0 26.110142,-0.108803 28.304812,2.085864 2.91919,2.919194 2.79158,7.5447119 -0.2807,10.1744709 -1.96318,1.680409 -2.51944,1.762581 -11.93166,1.762581 h -8.41953 v 3.008544 3.00854396 l 2.18281,0.18586404 c 5.11463,0.435505 12.96574,2.070798 18.69576,3.894108 7.787,2.47783 16.51478,6.7582401 23.23333,11.3944101 l 1.91086,1.3186 3.83916,-3.66597 c 2.11154,-2.01629 3.84126,-3.79272 3.84383,-3.94764 0.003,-0.15491 -0.8931,-1.1328701 -1.99036,-2.1732501 -2.32124,-2.20088 -3.1113,-3.68617 -3.12743,-5.87946 -0.0145,-1.97126204 0.48819,-3.303493 1.77212,-4.696393 1.62769,-1.765829 2.83491,-2.301616 5.20242,-2.308933 1.61966,-0.005 2.21053,0.115438 3.21492,0.655326 1.71467,0.921689 19.01156,18.0175001 19.6756,19.4468701 1.18956,2.56059 0.70126,5.58541 -1.24199,7.69358 -1.50097,1.62836 -3.29879,2.3212 -5.6306,2.1699 -2.35633,-0.15288 -3.13393,-0.56581 -5.7222,-3.03863 l -2.09603,-2.00254 -3.37225,3.27021 c -1.85473,1.79861 -3.41242,3.36419 -3.46152,3.47905 -0.0491,0.11486 0.77297,1.13012 1.8268,2.25614 13.35935,14.2743 21.53527,31.97249 23.66448,51.22584 0.53989,4.88195 0.53486,14.41071 -0.0101,19.11262 -2.04965,17.684507 -8.75897,33.378317 -20.14045,47.110627 -2.81792,3.39997 -9.25649,9.68258 -12.91775,12.60487 -12.9848,10.364 -28.58487,16.93496 -45.38267,19.11578 -3.93365,0.51069 -15.55494,0.72622 -19.446878,0.36066 z m 19.18229,-14.11788 c 13.94644,-2.21162 26.30173,-7.58976 36.97835,-16.09632 1.12623,-0.89732 3.57986,-3.12303 5.4525,-4.94603 15.7435,-15.32614 23.81523,-35.90815 22.62313,-57.686417 -1.97578,-36.09521 -30.29032,-66.0396 -66.64148,-70.47751 -13.099064,-1.59919 -26.166901,0.088 -38.099999,4.91915 -32.561946,13.18275 -51.870983,46.37329 -46.821855,80.482647 4.980192,33.64368 32.07707,59.77925 66.401022,64.04533 4.175646,0.51899 16.227055,0.37464 20.108332,-0.24085 z M 90.177577,95.096283 c -1.532498,-0.54413 -2.941558,-1.80609 -3.76958,-3.37604 l -0.718494,-1.36229 v -23.15104 -23.15104 l 0.628724,-1.39099 c 0.716605,-1.58542 1.989997,-2.81684 3.690869,-3.56922 0.909523,-0.40233 1.592908,-0.49485 3.056152,-0.41378 2.992633,0.1658 4.936704,1.44523 6.155528,4.05107 l 0.618766,1.32292 0.0026,18.70718 0.0026,18.70719 12.501568,0.0782 c 13.88527,0.0869 13.40308,0.0274 15.48956,1.91236 1.51611,1.36972 2.17137,2.91554 2.17137,5.12249 0,3.09384 -1.69024,5.54653 -4.50728,6.54043 -1.62623,0.57377 -33.699263,0.54883 -35.322352,-0.0275 z"
         style="fill:#000000;stroke-width:0.26458332" />
    </g>
  </g>
</svg>
