<?xml version="1.0" encoding="UTF-8" standalone="no"?>
<!-- Created with Inkscape (http://www.inkscape.org/) -->

<svg
   xmlns:dc="http://purl.org/dc/elements/1.1/"
   xmlns:cc="http://creativecommons.org/ns#"
   xmlns:rdf="http://www.w3.org/1999/02/22-rdf-syntax-ns#"
   xmlns:svg="http://www.w3.org/2000/svg"
   xmlns="http://www.w3.org/2000/svg"
   xmlns:sodipodi="http://sodipodi.sourceforge.net/DTD/sodipodi-0.dtd"
   xmlns:inkscape="http://www.inkscape.org/namespaces/inkscape"
   width="214.4949mm"
   height="197.16472mm"
   viewBox="0 0 214.49491 197.16472"
   version="1.1"
   id="svg8"
   inkscape:version="0.92.1 r15371"
   sodipodi:docname="upload.svg">
  <defs
     id="defs2" />
  <sodipodi:namedview
     id="base"
     pagecolor="#ffffff"
     bordercolor="#666666"
     borderopacity="1.0"
     inkscape:pageopacity="0.0"
     inkscape:pageshadow="2"
     inkscape:zoom="0.35"
     inkscape:cx="526.47205"
     inkscape:cy="581.69869"
     inkscape:document-units="mm"
     inkscape:current-layer="layer1"
     showgrid="false"
     fit-margin-top="0"
     fit-margin-left="0"
     fit-margin-right="0"
     fit-margin-bottom="0"
     inkscape:window-width="1600"
     inkscape:window-height="837"
     inkscape:window-x="-8"
     inkscape:window-y="147"
     inkscape:window-maximized="1" />
  <metadata
     id="metadata5">
    <rdf:RDF>
      <cc:Work
         rdf:about="">
        <dc:format>image/svg+xml</dc:format>
        <dc:type
           rdf:resource="http://purl.org/dc/dcmitype/StillImage" />
        <dc:title></dc:title>
      </cc:Work>
    </rdf:RDF>
  </metadata>
  <g
     inkscape:label="Layer 1"
     inkscape:groupmode="layer"
     id="layer1"
     transform="translate(33.462397,-105.57639)">
    <g
       transform="translate(129.55929,82.058587)"
       id="layer1-6"
       inkscape:label="Layer 1"
       style="fill:#000000">
      <path
         inkscape:connector-curvature="0"
         id="path112"
         d="m -58.075831,220.34492 c -1.213739,-0.54748 -2.293969,-1.59216 -3.000793,-2.90206 l -0.571082,-1.05833 -0.132291,-49.54113 -0.132292,-49.54113 -11.244791,11.05108 c -11.892074,11.68721 -11.918326,11.70865 -14.318197,11.69307 -1.055092,-0.007 -3.019301,-0.84554 -3.897656,-1.66426 -1.488009,-1.38696 -2.172724,-3.88998 -1.624378,-5.93799 0.312571,-1.16742 1.488781,-2.41204 16.768918,-17.74429 9.286367,-9.31803 16.950557,-16.796768 17.623395,-17.196956 1.464424,-0.871008 3.803444,-0.963811 5.3467,-0.212135 1.511324,0.736124 33.621879,32.677401 34.338259,34.157231 2.4665,5.09511 -2.96092,10.46237 -8.00566,7.91692 -0.47044,-0.23736 -5.82528,-5.38466 -11.899647,-11.43843 l -11.044306,-11.00685 -0.06819,50.01637 -0.06819,50.01636 -0.729863,1.10287 c -1.131149,1.70925 -2.503461,2.48141 -4.628232,2.60419 -1.248077,0.0721 -2.064443,-0.0226 -2.711696,-0.31453 z m -64.426039,-38.8762 c -4.86743,-0.7711 -8.94101,-2.12841 -13.62604,-4.54017 -9.47121,-4.8756 -17.13458,-12.86955 -21.94524,-22.89191 -7.91687,-16.4937 -6.26255,-34.88787 4.44637,-49.43858 1.88496,-2.56119 6.00155,-6.799329 8.30439,-8.54959 1.4074,-1.069689 1.77663,-1.489506 1.67449,-1.903899 -0.33901,-1.375371 -0.68575,-6.791376 -0.54134,-8.455539 0.77552,-8.937099 3.96167,-15.908581 10.04042,-21.969096 4.86432,-4.849725 10.32935,-7.804396 17.2032,-9.300924 2.56828,-0.55915 8.24097,-0.757629 10.98021,-0.384183 2.0133,0.274476 2.27668,0.260784 2.51354,-0.130694 8.701422,-14.381557 22.169883,-24.480916 38.062085,-28.540953 5.819463,-1.486719 8.811414,-1.842559 15.516037,-1.845359 6.686479,-0.0028 9.6002,0.340222 15.441029,1.817771 11.24045,2.843481 21.3328,8.729331 29.4549604,17.178089 4.93343003,5.131816 8.10291,9.702339 11.21961,16.17917 2.40632,5.000562 3.72755,9.020233 5.1369196,15.628319 0.0929,0.435724 0.73259,0.74967 3.14277,1.542468 5.61592,1.847297 11.82979,5.253627 16.56721,9.081863 2.57859,2.08372 7.17036,6.81659 9.05553,9.333809 11.28779,15.072258 14.33209,33.966008 8.26898,51.319388 -2.68948,7.69764 -7.08892,14.64071 -13.08936,20.65729 -7.55556,7.57587 -16.37667,12.37286 -27.0794496,14.72602 l -3.21716,0.70735 -18.5208304,0.0989 c -13.49861,0.0721 -18.81813,0.0158 -19.61719,-0.20758 -5.212827,-1.45722 -5.639587,-8.94051 -0.63835,-11.19354 0.47869,-0.21565 6.0895,-0.34887 19.19721,-0.4558 20.4311504,-0.16668 19.5422904,-0.0972 25.17358,-1.96702 14.30901,-4.7511 25.283,-17.56615 28.3203,-33.07147 0.72355,-3.69373 0.65953,-11.49366 -0.12645,-15.4061 -1.7697,-8.80915 -5.65282,-16.02885 -12.07332,-22.447378 C 20.758081,91.057048 14.838641,87.761392 6.7985714,85.935714 1.8334314,84.808266 0.68450143,83.619509 0.02061143,78.922769 -1.6305886,67.241353 -6.2627286,57.747381 -14.167909,49.842207 c -9.49211,-9.492113 -21.87463,-14.586677 -35.474262,-14.595244 -7.966686,-0.005 -14.606818,1.467728 -21.530535,4.77536 -5.586354,2.66874 -9.263258,5.198903 -13.460152,9.262243 -4.262292,4.126654 -6.885107,7.612237 -9.866789,13.112444 -1.299001,2.396217 -1.795182,3.057728 -2.808435,3.744224 -1.791764,1.213948 -3.231128,1.332741 -6.006478,0.495721 -10.57956,-3.190695 -21.31706,1.162198 -26.41647,10.709013 -2.79067,5.224527 -3.27135,10.822086 -1.46605,17.072344 0.66376,2.298046 0.6917,2.586937 0.38339,3.964599 -0.40728,1.819929 -1.3744,2.986939 -3.72672,4.496979 -10.42269,6.69074 -16.44947,17.53203 -16.47256,29.63171 -0.012,6.29273 1.13576,11.10382 4.03972,16.93333 4.9632,9.9633 13.02863,16.77261 23.28075,19.65497 l 2.51355,0.70668 21.298954,0.13792 c 15.788391,0.10225 21.483629,0.22045 22.012729,0.45685 0.392576,0.17541 1.189292,0.74853 1.770481,1.2736 2.965635,2.67927 2.311336,7.57552 -1.26178,9.44214 l -1.41519,0.7393 -20.805724,-0.0262 c -15.39495,-0.0194 -21.35619,-0.11338 -22.92239,-0.3615 z"
         style="fill:#000000;stroke-width:0.26458332" />
    </g>
  </g>
</svg>
