<?xml version="1.0" encoding="UTF-8" standalone="no"?>
<!-- Created with Inkscape (http://www.inkscape.org/) -->

<svg
   xmlns:dc="http://purl.org/dc/elements/1.1/"
   xmlns:cc="http://creativecommons.org/ns#"
   xmlns:rdf="http://www.w3.org/1999/02/22-rdf-syntax-ns#"
   xmlns:svg="http://www.w3.org/2000/svg"
   xmlns="http://www.w3.org/2000/svg"
   xmlns:sodipodi="http://sodipodi.sourceforge.net/DTD/sodipodi-0.dtd"
   xmlns:inkscape="http://www.inkscape.org/namespaces/inkscape"
   width="263.56723mm"
   height="237.54837mm"
   viewBox="0 0 263.56723 237.54837"
   version="1.1"
   id="svg8"
   inkscape:version="0.92.1 r15371"
   sodipodi:docname="users.svg">
  <defs
     id="defs2" />
  <sodipodi:namedview
     id="base"
     pagecolor="#ff9dff"
     bordercolor="#666666"
     borderopacity="1.0"
     inkscape:pageopacity="0"
     inkscape:pageshadow="2"
     inkscape:zoom="0.35"
     inkscape:cx="1135.3026"
     inkscape:cy="266.14287"
     inkscape:document-units="mm"
     inkscape:current-layer="layer1"
     showgrid="false"
     fit-margin-top="0"
     fit-margin-left="0"
     fit-margin-right="0"
     fit-margin-bottom="0"
     inkscape:window-width="1600"
     inkscape:window-height="837"
     inkscape:window-x="-8"
     inkscape:window-y="147"
     inkscape:window-maximized="1" />
  <metadata
     id="metadata5">
    <rdf:RDF>
      <cc:Work
         rdf:about="">
        <dc:format>image/svg+xml</dc:format>
        <dc:type
           rdf:resource="http://purl.org/dc/dcmitype/StillImage" />
        <dc:title></dc:title>
      </cc:Work>
    </rdf:RDF>
  </metadata>
  <g
     inkscape:label="Layer 1"
     inkscape:groupmode="layer"
     id="layer1"
     transform="translate(194.5488,18.298067)">
    <path
       style="fill:#000000;stroke-width:0.26458332"
       d="m -194.43602,208.73311 c 0.12123,-11.30462 0.25205,-12.54767 1.78898,-16.99948 2.61584,-7.5769 8.04536,-14.20349 15.07383,-18.39724 9.75505,-5.82066 31.86788,-19.6816 32.75452,-20.53147 0.62525,-0.59931 1.45869,-1.69982 1.85208,-2.44558 l 0.71527,-1.35592 0.0774,-7.14375 0.0774,-7.14375 -1.76179,-1.98437 c -3.58861,-4.04199 -7.13902,-9.13416 -9.59272,-13.75834 -1.52143,-2.86724 -3.55249,-7.71568 -4.03514,-9.63246 -0.24253,-0.96319 -0.73114,-1.7433 -1.89912,-3.03211 -1.86652,-2.05964 -2.90398,-3.78087 -3.68929,-6.12084 -0.53876,-1.605317 -0.58402,-2.324039 -0.68,-10.797278 -0.0695,-6.133801 -0.003,-9.668656 0.20467,-10.900484 0.36604,-2.170124 1.62362,-4.898078 3.13631,-6.803311 l 1.0967,-1.381279 V 59.988296 c 0,-9.074841 0.0608,-10.628908 0.50533,-12.906222 1.45381,-7.448579 4.99151,-14.833976 9.73231,-20.317442 8.96553,-10.370021 22.70894,-15.42232 40.43006,-14.862744 8.56821,0.270557 15.151652,1.617951 21.626157,4.426098 1.575419,0.683297 2.375953,0.913405 2.43741,0.700619 0.05033,-0.174268 0.233286,-1.20982 0.406562,-2.301227 0.396726,-2.498881 2.057884,-7.5655649 3.268771,-9.970066 4.25447,-8.4482511 11.514592,-14.809959 21.341309,-18.7004 8.241821,-3.262974 17.397091,-4.581882 30.011191,-4.323414 7.21075,0.147752 10.60557,0.474763 15.60264,1.502949 19.42984,3.997846 31.52109,15.3862329 34.41766,32.416973 0.38971,2.291369 0.44556,4.619136 0.41689,17.375172 l -0.0331,14.729339 1.32267,1.949426 c 2.95212,4.350997 3.28352,6.454807 3.12721,19.852101 -0.12759,10.936301 -0.18127,11.346831 -1.96365,15.017923 -1.13699,2.341792 -4.31143,5.687877 -6.78876,7.155815 l -1.54244,0.913976 -1.4045,3.571876 C 10.27898,104.65674 6.25537,111.90373 1.04844,118.82007 l -2.14458,2.84861 v 7.7248 c 0,8.39595 0.15364,9.63098 1.50753,12.11852 1.49126,2.73995 2.76589,3.5913 12.59412,8.41193 40.15311,19.69461 39.83748,19.52216 44.77932,24.46671 4.51336,4.51583 7.39144,9.17779 9.38171,15.19662 1.70745,5.16352 1.8519,6.63484 1.8519,18.86175 V 219.2503 H -62.765181 -194.5488 Z m 61.38342,-5.15937 c 0.19778,-9.72197 0.94786,-13.38682 4.02967,-19.68866 2.9845,-6.10287 7.80668,-11.63758 13.2797,-15.24194 1.42783,-0.94032 8.32622,-4.7773 15.32975,-8.52661 11.50072,-6.15685 12.775403,-6.90437 13.164343,-7.71999 0.399691,-0.83816 0.496851,-0.89064 1.351889,-0.73023 0.824579,0.15469 1.58101,-0.18015 7.208578,-3.19092 6.857436,-3.66874 8.092421,-4.52546 9.479872,-6.57625 1.797804,-2.65733 1.967111,-3.74051 1.964589,-12.5689 l -0.0021,-7.84349 -1.824379,-2.58006 c -5.240406,-7.41105 -10.068343,-17.1995 -12.596307,-25.538472 -0.883369,-2.913968 -1.010245,-3.152754 -2.447528,-4.606386 -1.909106,-1.930818 -3.312911,-4.23704 -4.234743,-6.956999 l -0.719381,-2.122244 -7.22e-4,-11.509376 c -7.94e-4,-11.306193 0.01016,-11.544406 0.615214,-13.49375 0.662181,-2.133365 1.774502,-4.312007 2.991308,-5.858907 l 0.75838,-0.964118 V 37.82466 27.79288 l -2.050521,-1.210564 c -3.879233,-2.290183 -8.669652,-4.016405 -13.874812,-4.999768 -3.76646,-0.711566 -12.79029,-0.989952 -16.91591,-0.521859 -3.36052,0.381283 -8.17199,1.427837 -10.67218,2.321327 -9.86012,3.523697 -17.05595,10.726878 -20.4779,20.498811 -1.53126,4.372745 -1.62534,5.446348 -1.62534,18.547234 v 11.923475 l -1.5514,1.480817 c -2.81924,2.690985 -2.80138,2.619391 -2.89518,11.608322 -0.0521,4.990253 0.0241,8.264332 0.21362,9.177071 0.38356,1.84759 1.41435,3.347267 3.15548,4.590834 1.38686,0.99055 1.41209,1.03326 2.03794,3.44927 2.13464,8.2405 7.24754,16.89319 14.191,24.0158 l 2.36342,2.4244 -0.11878,9.08498 c -0.13318,10.18643 -0.19626,10.62417 -2.08713,14.486 -0.83527,1.70593 -1.56103,2.69788 -3.10622,4.24556 -1.83632,1.83927 -3.43332,2.8906 -17.89129,11.77815 -20.22417,12.43212 -19.2409,11.79261 -21.52627,14.00046 -2.46768,2.38396 -3.96896,4.48071 -5.45625,7.62041 -1.87436,3.95682 -2.27482,6.0188 -2.44374,12.58304 l -0.14469,5.6224 h 26.19337 26.19337 z m 193.01184,0.13229 c -0.10838,-6.39379 -0.15978,-6.97583 -0.83528,-9.45886 -0.86981,-3.19724 -2.5546,-6.84074 -4.39279,-9.49977 -1.73452,-2.50908 -5.76865,-6.41778 -8.29099,-8.03321 -1.07556,-0.68884 -12.06595,-6.22889 -24.4231,-12.31121 -16.01418,-7.88236 -22.98693,-11.44775 -24.27583,-12.41299 -3.20278,-2.39854 -5.69435,-5.96837 -7.07047,-10.13032 -0.59316,-1.79395 -0.61525,-2.19455 -0.70353,-12.76241 l -0.0911,-10.91032 1.57052,-1.86578 C -2.14359,108.70639 3.6082,98.138327 7.01421,87.718128 l 0.7463,-2.283212 1.77578,-0.571928 c 3.18914,-1.027129 5.57945,-3.228166 6.29204,-5.793804 0.16242,-0.584774 0.27114,-5.00008 0.27202,-11.047275 0.002,-11.875723 0.0405,-11.656034 -2.53579,-14.387 L 11.89362,51.863622 11.80752,34.55227 11.72142,17.24092 11.02182,14.682521 C 7.487,1.7557789 -2.28316,-5.8465541 -18.83134,-8.5467581 c -11.75253,-1.9176859 -26.079832,-0.99136 -35.578336,2.300302 -5.316612,1.842447 -9.179015,4.130304 -12.732993,7.542266 -4.281422,4.1103343 -6.816463,8.7662021 -8.038727,14.7639491 -0.520303,2.553171 -0.546859,3.511714 -0.533196,19.245023 l 0.01439,16.558019 -1.47143,1.402588 c -0.893797,0.851983 -1.752346,2.002073 -2.187024,2.929687 l -0.715606,1.527095 v 10.318751 10.31875 l 0.685313,1.455208 c 0.886873,1.883201 1.774264,2.912105 3.498861,4.056828 1.372558,0.911053 1.406173,0.964731 1.878245,2.999475 2.131208,9.185969 7.428399,20.251117 13.652804,28.518947 l 2.112901,2.80655 v 10.13552 c 0,9.26963 -0.04521,10.3123 -0.52919,12.20465 -0.954056,3.73032 -2.538293,6.53712 -5.210474,9.23142 -0.845007,0.852 -2.046464,1.90019 -2.669905,2.32929 -0.62344,0.42911 -10.565158,5.84321 -22.092707,12.03135 -11.527546,6.18814 -21.691716,11.77329 -22.587036,12.41145 -6.24442,4.45084 -10.87492,11.83893 -12.24757,19.54134 -0.15388,0.86347 -0.27978,4.46511 -0.27978,8.00365 v 6.4337 h 91.96876 91.96876 z"
       id="path23"
       inkscape:connector-curvature="0" />
    <path
       style="fill:#000000;stroke-width:0.26458332"
       d=""
       id="path21"
       inkscape:connector-curvature="0" />
  </g>
</svg>
