<?xml version="1.0" encoding="UTF-8" standalone="no"?>
<!-- Created with Inkscape (http://www.inkscape.org/) -->

<svg
   xmlns:dc="http://purl.org/dc/elements/1.1/"
   xmlns:cc="http://creativecommons.org/ns#"
   xmlns:rdf="http://www.w3.org/1999/02/22-rdf-syntax-ns#"
   xmlns:svg="http://www.w3.org/2000/svg"
   xmlns="http://www.w3.org/2000/svg"
   xmlns:sodipodi="http://sodipodi.sourceforge.net/DTD/sodipodi-0.dtd"
   xmlns:inkscape="http://www.inkscape.org/namespaces/inkscape"
   width="241.74194mm"
   height="241.67892mm"
   viewBox="0 0 241.74194 241.67892"
   version="1.1"
   id="svg8"
   inkscape:version="0.92.1 r15371"
   sodipodi:docname="user.svg">
  <defs
     id="defs2" />
  <sodipodi:namedview
     id="base"
     pagecolor="#ff9dff"
     bordercolor="#666666"
     borderopacity="1.0"
     inkscape:pageopacity="0"
     inkscape:pageshadow="2"
     inkscape:zoom="0.35"
     inkscape:cx="654.5369"
     inkscape:cy="297.63414"
     inkscape:document-units="mm"
     inkscape:current-layer="layer1"
     showgrid="false"
     fit-margin-top="0"
     fit-margin-left="0"
     fit-margin-right="0"
     fit-margin-bottom="0"
     inkscape:window-width="1600"
     inkscape:window-height="837"
     inkscape:window-x="-8"
     inkscape:window-y="147"
     inkscape:window-maximized="1" />
  <metadata
     id="metadata5">
    <rdf:RDF>
      <cc:Work
         rdf:about="">
        <dc:format>image/svg+xml</dc:format>
        <dc:type
           rdf:resource="http://purl.org/dc/dcmitype/StillImage" />
        <dc:title></dc:title>
      </cc:Work>
    </rdf:RDF>
  </metadata>
  <g
     inkscape:label="Layer 1"
     inkscape:groupmode="layer"
     id="layer1"
     transform="translate(67.346222,14.096563)">
    <path
       style="fill:#000000;stroke-width:0.26458332"
       d=""
       id="path21"
       inkscape:connector-curvature="0" />
    <path
       style="fill:#000000;stroke-width:0.26458332"
       d="m 45.050308,227.52798 c -0.509323,-0.0577 -2.295261,-0.23464 -3.96875,-0.39324 -6.934494,-0.65719 -15.098014,-2.29782 -22.488884,-4.5196 -24.5134898,-7.36903 -46.57305,-22.85469 -61.92376,-43.47008 -20.02369,-26.89102 -27.89936,-59.91108 -22.2145,-93.137926 3.2659,-19.088534 11.39273,-37.555034 23.29017,-52.922023 6.42616,-8.300162 14.67545,-16.468452 23.03106,-22.804925 36.34309,-27.560769 85.938595,-32.150961 126.708366,-11.7271867 12.11938,6.0712491 23.43599,14.3215517 32.60291,23.7689407 18.94021,19.519715 30.32329,43.34956 33.70472,70.559002 0.57622,4.63676 0.8083,18.528058 0.39272,23.507628 -2.28727,27.40692 -13.01254,51.977 -31.56715,72.31587 -16.93726,18.56599 -40.04113,31.62238 -64.75857,36.59617 -9.017846,1.81462 -12.669991,2.17505 -22.886458,2.25863 -4.947708,0.0405 -9.412552,0.0264 -9.921874,-0.0313 z M 65.95239,218.0524 c 18.490586,-2.17341 35.85022,-8.6739 50.94425,-19.07659 1.81243,-1.24911 3.2952,-2.35474 3.29504,-2.45695 -1.6e-4,-0.10221 -8.95961,-4.66779 -19.90989,-10.14572 -18.634669,-9.32209 -20.0234,-10.06432 -21.686603,-11.59077 -2.224143,-2.04126 -4.151069,-4.89585 -5.125042,-7.59235 l -0.750512,-2.07783 -0.09031,-10.34692 -0.09031,-10.34692 1.164413,-1.36414 c 5.471543,-6.41008 10.885497,-16.47287 14.04862,-26.11183 l 0.699738,-2.13232 1.895134,-0.61037 c 1.537391,-0.49515 2.157473,-0.87271 3.284887,-2.00012 2.200928,-2.20093 2.266659,-2.60378 2.168395,-13.289988 -0.0941,-10.233797 -0.05257,-10.036029 -2.622412,-12.48714 l -1.316829,-1.25599 0.03106,-15.060461 C 91.925249,53.992985 91.880139,53.306815 90.520533,49.251414 87.565928,40.438426 79.905444,34.26008 68.7305,31.677281 c -4.792974,-1.10777 -8.408662,-1.462854 -14.948958,-1.468088 -12.135593,-0.0097 -20.393188,1.908273 -27.134578,6.302531 -5.36215,3.495228 -8.87092,8.414231 -10.65002,14.930474 l -0.69486,2.544995 -0.0886,15.599431 -0.0887,15.599431 -1.27607,1.349251 c -2.36049,2.495872 -2.25722,1.950013 -2.35173,12.431053 -0.059,6.538491 0.008,9.569711 0.22705,10.312671 0.46875,1.58823 1.66585,3.14593 3.14918,4.09777 1.09017,0.69956 1.38153,1.05268 1.61148,1.95301 1.77172,6.93714 3.12566,10.61967 5.97169,16.24227 1.90859,3.77059 4.98445,8.70091 7.151911,11.46387 l 1.154488,1.47167 -0.0039,9.37625 c -0.0043,10.38466 -0.103021,11.2448 -1.677829,14.62336 -1.17771,2.52663 -3.00583,4.8882 -5.03228,6.50069 -1.01247,0.80564 -8.62286,5.11208 -19.4998298,11.03421 -9.8116,5.34209 -17.9393202,9.8001 -18.0615902,9.9067 -0.60037,0.52342 10.1208802,7.33971 17.0233602,10.823 13.2750498,6.69918 27.2047668,10.53022 42.7302038,11.75195 3.102462,0.24413 16.311525,-0.0717 19.711458,-0.47138 z m 66.19106,-31.73305 c 18.51416,-18.40767 29.40439,-40.77555 32.67621,-67.11501 0.67701,-5.45022 0.67734,-19.40951 5.9e-4,-24.868189 C 162.26566,73.730793 154.81778,55.240739 142.63228,39.252389 117.19881,5.8816561 75.726829,-10.488512 34.599266,-3.3913088 24.465844,-1.6426281 14.765564,1.4561179 5.6765842,5.8480225 c -5.93840997,2.8695091 -8.46298,4.3072915 -13.93982,7.9389335 -12.4145902,8.232013 -22.9723902,18.789813 -31.2044002,31.204404 -3.63164,5.476833 -5.06943,8.001405 -7.93893,13.939816 -9.0922,18.816166 -12.67167,40.69516 -10.05611,61.466434 3.11621,24.74713 13.9558,47.07521 31.57492,65.04003 1.54432,1.57462 3.24632,3.21538 3.78222,3.64614 l 0.97436,0.78318 1.40689,-0.88672 c 0.77379,-0.4877 9.49155,-5.28362 19.37281023,-10.6576 C 19.168604,167.70654 19.394924,167.55952 20.881924,164.52943 l 0.75276,-1.53391 0.0812,-7.46104 0.0812,-7.46104 -2.5964,-3.91604 c -4.26074,-6.4263 -8.30213,-14.98376 -10.2609798,-21.72716 -0.61394,-2.11347 -0.88301,-2.63216 -1.8855,-3.63465 -1.53309,-1.53309 -3.08684,-3.96382 -3.84292,-6.01195 -0.58996,-1.59814 -0.61061,-1.96086 -0.70386,-12.36207 -0.0685,-7.643643 -0.005,-11.132809 0.21985,-12.170836 0.38887,-1.791287 1.60831,-4.539657 2.57456,-5.802566 l 0.72248,-0.944309 0.15282,-14.419791 c 0.15205,-14.346557 0.15628,-14.433901 0.83406,-17.197916 C 11.803124,30.344329 28.838994,20.352911 56.030566,21.136636 c 10.737307,0.309473 18.63232,2.000631 25.618595,5.487654 3.813058,1.90319 6.315768,3.715308 9.457015,6.847467 4.994264,4.979815 7.817067,10.31608 9.307294,17.594635 0.51303,2.505744 0.54031,3.431955 0.48148,16.349704 l -0.0624,13.693489 0.69854,0.830167 c 0.81379,0.967132 1.83329,2.912274 2.61126,4.982118 0.5145,1.368851 0.55515,2.111552 0.64353,11.756553 0.10633,11.603097 -0.005,12.652227 -1.71146,16.062337 -1.15966,2.31802 -3.712586,5.08408 -5.838278,6.32568 -1.470633,0.85899 -1.60801,1.02533 -2.178243,2.63753 -2.543574,7.19138 -7.36233,16.12461 -12.087595,22.40854 l -1.430533,1.90241 0.07767,7.62916 0.07767,7.62916 0.859878,1.74566 c 0.488333,0.99137 1.368406,2.2144 2.036775,2.83048 0.892829,0.82298 5.953916,3.4763 20.968246,10.99276 10.88524,5.44937 20.32713,10.26539 20.98198,10.70228 0.65484,0.43688 1.26416,0.80359 1.35403,0.8149 0.0899,0.0113 2.00123,-1.80667 4.24745,-4.03997 z"
       id="path36"
       inkscape:connector-curvature="0" />
  </g>
</svg>
