<?xml version="1.0" encoding="UTF-8" standalone="no"?>
<svg
   xmlns:dc="http://purl.org/dc/elements/1.1/"
   xmlns:cc="http://creativecommons.org/ns#"
   xmlns:rdf="http://www.w3.org/1999/02/22-rdf-syntax-ns#"
   xmlns:svg="http://www.w3.org/2000/svg"
   xmlns="http://www.w3.org/2000/svg"
   id="svg8"
   version="1.1"
   viewBox="0 0 94.255371 66.092133"
   height="66.092133mm"
   width="94.255371mm">
  <defs
     id="defs2" />
  <metadata
     id="metadata5">
    <rdf:RDF>
      <cc:Work
         rdf:about="">
        <dc:format>image/svg+xml</dc:format>
        <dc:type
           rdf:resource="http://purl.org/dc/dcmitype/StillImage" />
        <dc:title></dc:title>
      </cc:Work>
    </rdf:RDF>
  </metadata>
  <g
     transform="translate(-20.911536,-105.21171)"
     id="layer1">
    <path
       id="path23"
       d="m 34.342718,170.90452 c -4.899611,-1.18622 -9.984913,-5.6456 -12.044256,-10.5618 -1.396037,-3.33272 -1.787206,-8.18655 -0.948859,-11.77396 1.576146,-6.74456 7.815906,-12.64554 14.406945,-13.62475 l 1.190625,-0.17689 0.04537,-3.35179 c 0.09851,-7.27793 2.776511,-13.42487 8.14589,-18.69761 3.428728,-3.36703 7.337896,-5.59529 12.049369,-6.86825 2.591903,-0.70029 9.092901,-0.86147 11.889636,-0.29478 6.191338,1.25452 11.983339,4.7006 15.654158,9.31379 2.152576,2.70518 3.799916,5.66897 4.730926,8.51157 l 0.85993,2.62559 3.34257,0.15557 c 3.70313,0.17235 5.59354,0.59841 8.401898,1.89359 3.60772,1.66384 7.10161,4.62003 9.33698,7.90004 4.25465,6.24296 4.97913,15.32223 1.77586,22.25528 -2.99463,6.48148 -8.38475,10.98839 -15.054068,12.58731 -2.1028,0.50414 -3.19241,0.52111 -32.20664,0.5016 -24.932996,-0.0168 -30.292641,-0.0837 -31.57633,-0.39451 z"
       style="fill:#fefefe;stroke-width:0.26458335" />
  </g>
</svg>
