<?xml version="1.0" encoding="utf-8"?>
<!-- Generator: Adobe Illustrator 17.0.0, SVG Export Plug-In . SVG Version: 6.00 Build 0)  -->
<!DOCTYPE svg PUBLIC "-//W3C//DTD SVG 1.1//EN" "http://www.w3.org/Graphics/SVG/1.1/DTD/svg11.dtd">
<svg version="1.1" id="Layer_1" xmlns="http://www.w3.org/2000/svg" xmlns:xlink="http://www.w3.org/1999/xlink" x="0px" y="0px"
	 width="950.184px" height="280.768px" viewBox="0 0 950.184 280.768" enable-background="new 0 0 950.184 280.768"
	 xml:space="preserve">
<g>
	<path fill="#111111" d="M832.484,92.278c-0.5,0.5-1,0.9-1.4,1.4c-13.7,13.6-20.5,30-20.5,49.3s6.8,35.8,20.5,49.3
		c0.4,0.5,0.9,0.9,1.4,1.4c13.3,12.7,29.3,19.1,47.9,19.1c17.6,0,32.8-5.6,45.6-16.9c2.5-2.6,3.7-5.8,3.8-9.4
		c-0.1-3.7-1.3-6.8-3.6-9.2c-2.5-2.5-5.6-3.7-9.4-3.7c-3.2,0.1-6.1,1.2-8.6,3.2c-3.9,3.3-8.2,5.8-12.7,7.5
		c-4.6,1.6-9.6,2.5-15.1,2.5c-4.8,0-9.4-0.8-13.8-2.3c-4.5-1.5-8.6-3.6-12.2-6.2c-3.8-2.8-7-6-9.7-9.8c-2.8-3.8-4.9-8-6.3-12.5h98.8
		c2.7,0,5.1-0.7,7.3-2.1c0.7-0.5,1.4-1,2-1.6c2.5-2.5,3.7-5.6,3.7-9.3c0-9.7-1.7-18.6-5-26.9c-0.3-0.5-0.5-1-0.7-1.5
		c-3.5-7.6-8.4-14.6-14.7-20.9c-13.8-13.7-30.2-20.5-49.4-20.5C861.784,73.178,845.784,79.578,832.484,92.278z M844.584,117.578
		c2.7-3.8,5.9-7.1,9.6-9.7c3.8-2.8,7.9-4.9,12.4-6.4s9.1-2.2,13.8-2.2s9.3,0.7,13.9,2.2c4.4,1.5,8.4,3.6,12.2,6.4
		c3.6,2.6,6.9,5.9,9.7,9.7c2.7,3.7,4.8,7.9,6.2,12.5h-84C839.784,125.478,841.784,121.278,844.584,117.578z"/>
	<path fill="#111111" d="M768.984,17.178c-2.4,2.3-3.7,5.4-3.7,9.2v62.1c-12.6-10.2-27.2-15.3-43.7-15.3c-19.3,0-35.7,6.8-49.3,20.5
		c-13.7,13.6-20.5,30-20.5,49.3s6.8,35.8,20.5,49.3c13.6,13.7,30,20.5,49.3,20.5c19.1,0,35.6-6.8,49.3-20.5
		c13.7-13.5,20.5-29.9,20.5-49.3v-116.6c-0.1-3.8-1.3-6.9-3.8-9.2c-2.5-2.5-5.6-3.8-9.3-3.8
		C774.484,13.378,771.384,14.678,768.984,17.178z M681.184,126.078c2.4-5.3,5.5-10,9.4-14c3.9-3.9,8.5-7.1,13.8-9.3
		c5.3-2.4,11-3.5,17.2-3.5c6,0,11.6,1.1,17,3.5c5.3,2.2,9.9,5.4,13.9,9.3c4,4,7.1,8.7,9.5,14c2.2,5.3,3.3,10.9,3.3,16.9
		s-1.1,11.6-3.3,17c-2.4,5.3-5.5,9.8-9.5,13.9c-4,3.9-8.6,7.1-13.9,9.4c-5.4,2.3-11,3.5-17,3.5c-6.2,0-11.9-1.2-17.2-3.5
		s-9.9-5.4-13.8-9.3c-3.9-4-7-8.7-9.4-14c-2.3-5.4-3.4-11-3.4-17S678.884,131.378,681.184,126.078z"/>
	<path fill="#111111" d="M562.684,73.178c-19.2,0-35.7,6.8-49.3,20.5c-8.4,8.3-14.1,17.7-17.4,28.1c-2,6.6-3.1,13.7-3.1,21.2
		s1.1,14.6,3.1,21.3c3.3,10.4,9,19.7,17.4,28c13.6,13.7,30.1,20.5,49.3,20.5s35.6-6.8,49.3-20.5c13.7-13.5,20.5-29.9,20.5-49.3
		c-0.1-9.7-1.8-18.6-5.1-26.9c-3.4-8.1-8.6-15.6-15.4-22.4C598.284,79.978,581.884,73.178,562.684,73.178z M522.384,126.078
		c2.2-5.3,5.4-10,9.3-14c3.9-3.9,8.5-7.1,13.9-9.3c5.3-2.4,11-3.5,17.1-3.5c6,0,11.7,1.1,17,3.5c5.3,2.2,10,5.4,14,9.3
		c3.9,4,7.1,8.7,9.4,14c2.2,5.3,3.3,10.9,3.3,16.9s-1.1,11.6-3.3,17c-2.3,5.3-5.5,9.8-9.4,13.9c-4,3.9-8.7,7.1-14,9.4
		s-11,3.5-17,3.5c-6.1,0-11.8-1.2-17.1-3.5c-5.4-2.3-10-5.4-13.9-9.3c-3.9-4-7.1-8.7-9.3-14c-2.3-5.4-3.5-11-3.4-17
		C518.884,136.978,520.084,131.378,522.384,126.078z"/>
	<path fill="#111111" d="M449.084,17.178c-2.5,2.5-3.8,5.5-3.8,9.2v173.4c0,3.7,1.3,6.7,3.8,9.2c2.4,2.5,5.5,3.8,9.3,3.8
		c3.7,0,6.7-1.3,9.1-3.8c2.5-2.5,3.7-5.5,3.7-9.2v-173.4c0-3.7-1.2-6.7-3.7-9.2c-2.4-2.5-5.5-3.8-9.2-3.8
		C454.484,13.378,451.484,14.678,449.084,17.178z"/>
	<path fill="#111111" d="M358.084,102.778c5.4-2.4,11-3.5,17.1-3.5c5.4-0.1,10.5,0.9,15.2,2.7c4.6,1.8,9,4.5,13.3,8.2
		c2.5,1.9,5.3,2.9,8.5,2.9c3.7,0,6.8-1.2,9.3-3.7c2.4-2.5,3.6-5.6,3.6-9.4c0-3.9-1.5-7.1-4.5-9.8c-12.8-11.3-27.9-17-45.4-17
		c-19.3,0-35.7,6.8-49.4,20.5c-5.9,5.8-10.5,12.2-13.8,19.1c-4.5,9.2-6.7,19.2-6.7,30.2s2.2,21.1,6.7,30.3c3.3,6.8,7.9,13.2,13.8,19
		c13.7,13.7,30.1,20.5,49.4,20.5c17.4,0,32.5-5.6,45.4-16.9c2.7-2.7,4.1-6,4.1-9.6c0-3.8-1.2-6.9-3.5-9.3c-2.5-2.4-5.6-3.7-9.4-3.6
		c-3.2,0-5.9,0.9-8.2,2.6c-4.2,3.6-8.6,6.3-13.2,8.1c-4.7,1.8-9.8,2.7-15.2,2.7c-6.1,0-11.7-1.2-17.1-3.4c-5.3-2.3-10-5.4-13.9-9.4
		c-4-4-7.2-8.7-9.5-14c-2.3-5.4-3.5-11-3.5-17c0-6.1,1.2-11.7,3.5-17c2.3-5.3,5.5-10,9.5-13.9
		C348.084,108.178,352.784,104.978,358.084,102.778z"/>
	
		<linearGradient id="SVGID_1_" gradientUnits="userSpaceOnUse" x1="-2114.0352" y1="-4216.1201" x2="-756.1924" y2="-4216.1201" gradientTransform="matrix(0.1354 0 0 0.0583 360.7256 321.2296)">
		<stop  offset="0" style="stop-color:#B85E03"/>
		<stop  offset="1" style="stop-color:#FFB61A"/>
	</linearGradient>
	<path fill="url(#SVGID_1_)" d="M252.04,89.597c-5.22-10.108-9.114-16.736-11.848-19.885c-7.871-8.285-16.156-15.494-24.69-21.708
		c-8.368-5.717-17.731-9.362-28.253-11.102c-10.191-1.657-20.299-1.326-30.407,1.077c-13.588,2.983-28.17,10.191-43.581,21.79
		c-5.054,3.48-12.179,9.611-21.459,18.393L74.485,96.142l10.522-8.948c0.166-0.083,0.414-0.249,0.58-0.414
		c4.06-3.148,6.96-5.385,8.782-6.463c5.054-2.651,10.274-4.806,15.659-6.38c5.965-1.657,15.245-2.237,27.839-1.823
		c13.588,1.16,25.436,6.048,35.544,14.748c3.646,2.9,9.114,7.457,16.322,13.754c6.545,5.137,12.594,8.7,18.228,10.771
		c14.665,5.883,31.401,4.557,50.375-3.977C258.089,103.847,255.934,97.882,252.04,89.597z"/>
	<path fill="#FFB61A" d="M237.707,65.072c-1.574-1.906-2.734-3.314-3.48-4.226c-12.014-15.245-26.927-27.259-44.741-36.124
		c-17.979-8.865-36.621-13.422-55.926-13.754c-18.559-0.414-34.881,1.988-48.966,7.374C71.254,22.651,57.832,30.025,44.327,40.63
		c-5.303,4.971-9.28,8.782-11.931,11.268c-3.563,3.231-9.28,10.191-17.151,20.962c-4.143,6.96-7.788,14.002-10.688,20.962
		c-2.734,6.463-4.226,11.02-4.557,13.754c18.393,7.457,33.97,9.28,46.729,5.303c8.202-2.817,15.328-6.545,21.542-11.351
		c1.657-1.326,3.314-2.734,4.888-4.226l1.326-1.16l17.316-17.979c9.28-8.782,16.405-14.914,21.459-18.393
		c15.411-11.599,29.993-18.808,43.581-21.79c10.108-2.403,20.216-2.734,30.407-1.077c10.522,1.74,19.885,5.385,28.253,11.102
		c8.534,6.214,16.819,13.422,24.69,21.708C239.778,68.22,238.949,66.646,237.707,65.072z"/>
	
		<linearGradient id="SVGID_2_" gradientUnits="userSpaceOnUse" x1="-1934.5875" y1="-4728.0327" x2="-577.0022" y2="-4728.0327" gradientTransform="matrix(0.1422 0 0 0.0581 275.5126 490.6572)">
		<stop  offset="0" style="stop-color:#FFB61A"/>
		<stop  offset="1" style="stop-color:#B85E03"/>
	</linearGradient>
	<path fill="url(#SVGID_2_)" d="M168.027,213.048l25.436-25.022c-2.734,2.071-6.297,4.971-10.771,8.782
		c-0.331,0.249-0.663,0.58-1.077,0.911c-2.9,2.403-5.385,4.474-7.54,6.38c-5.22,3.977-11.02,7.54-17.151,10.605l-0.083,0.083
		c-8.617,3.563-18.145,5.137-28.584,4.723c-15.411,0.497-28.999-3.894-40.681-13.091c-3.646-2.817-9.031-7.374-16.074-13.422
		c-10.605-9.031-21.128-14.334-31.65-15.908c-12.262-1.74-25.436,0.58-39.438,6.96c0.249,2.403,0.497,4.06,0.994,4.971
		c5.137,13.257,9.777,22.702,14.002,28.253c7.788,9.031,13.339,14.831,16.571,17.399c2.403,1.823,5.8,4.64,10.44,8.368
		c7.374,4.805,14.914,8.202,22.536,10.274c5.22,1.657,14.002,2.32,26.347,1.988c19.388-1.74,39.604-11.268,60.814-28.667
		c1.657-1.243,4.308-3.563,7.871-6.96C163.221,216.611,165.873,214.374,168.027,213.048z"/>
	<path fill="#FFB61A" d="M193.463,188.027l-25.436,25.022c-2.154,1.326-4.805,3.563-8.037,6.628
		c-3.563,3.397-6.214,5.717-7.871,6.96c-21.21,17.399-41.427,26.927-60.814,28.667c-12.345,0.331-21.128-0.331-26.347-1.988
		c-7.623-2.071-15.162-5.468-22.536-10.274c-4.64-3.728-8.037-6.545-10.44-8.368c-3.231-2.568-8.782-8.368-16.571-17.399
		c0.58,1.988,1.823,4.308,3.728,6.711c0.994,1.409,2.568,3.397,4.64,6.131c18.725,23.033,41.592,38.195,68.686,45.569
		c16.074,5.137,35.627,6.38,58.909,3.728c3.397-0.58,7.457-1.491,12.097-2.9c2.651-0.829,6.463-2.071,11.682-3.728
		c21.293-7.788,38.527-19.056,51.535-33.97c13.257-12.594,23.613-29.662,31.236-51.038c0.414-1.077,0.58-1.823,0.663-2.32
		c0.083-0.994-0.331-1.574-1.16-1.823c-10.44-4.557-20.299-6.96-29.744-7.125c-11.268-0.497-22.453,3.148-33.39,10.854
		C193.96,187.612,193.711,187.778,193.463,188.027z"/>
</g>
</svg>
