<?xml version="1.0" encoding="utf-8"?>
<!-- Generator: Adobe Illustrator 18.1.1, SVG Export Plug-In . SVG Version: 6.00 Build 0)  -->
<svg version="1.1" id="Layer_1" xmlns="http://www.w3.org/2000/svg" xmlns:xlink="http://www.w3.org/1999/xlink" x="0px" y="0px"
	 width="233.6px" height="55px" viewBox="0 0 233.6 55" enable-background="new 0 0 233.6 55" xml:space="preserve">
<g>
	<path fill="#111111" d="M229.3,17.2c-3-2.9-6.5-4.4-10.6-4.4c-4,0-7.4,1.4-10.3,4.1c-0.1,0.1-0.2,0.2-0.3,0.3
		c-2.9,2.9-4.4,6.5-4.4,10.6c0,4.2,1.5,7.7,4.4,10.6c0.1,0,0.2,0.1,0.3,0.3c2.9,2.8,6.3,4.1,10.3,4.1c3.8,0,7.1-1.2,9.8-3.7
		c0.5-0.5,0.8-1.2,0.8-2c0-0.8-0.3-1.5-0.8-2c-0.5-0.5-1.2-0.8-2-0.8c-0.7,0-1.3,0.3-1.8,0.7c-0.8,0.7-1.7,1.2-2.8,1.6
		c-1.1,0.4-2.1,0.5-3.2,0.6c-1,0-2-0.2-3-0.5c-0.9-0.3-1.8-0.8-2.6-1.3c-0.8-0.6-1.5-1.3-2.1-2.1c-0.6-0.8-1-1.7-1.4-2.7h21.2
		c0.6,0,1.1-0.2,1.6-0.4c0.2-0.1,0.3-0.2,0.4-0.3c0.5-0.5,0.8-1.2,0.8-2c0-2-0.4-4-1.1-5.8l-0.1-0.3
		C231.6,20.1,230.6,18.6,229.3,17.2z M215.7,18.9c0.9-0.3,1.9-0.5,3-0.5c1.1,0,2,0.1,3,0.5c0.9,0.3,1.8,0.8,2.6,1.4
		c0.8,0.5,1.5,1.2,2.1,2.1c0.6,0.8,1,1.7,1.3,2.7h-18c0.3-1,0.8-1.9,1.3-2.7c0.6-0.9,1.3-1.6,2-2.1
		C213.8,19.7,214.7,19.2,215.7,18.9z"/>
	<path fill="#111111" d="M198.7,0.8c-0.5-0.5-1.2-0.8-2-0.8c-0.8,0-1.5,0.3-2,0.8c-0.5,0.5-0.8,1.2-0.8,2v13.3
		c-2.7-2.2-5.8-3.3-9.4-3.3c-4.2,0-7.7,1.5-10.6,4.4c-2.9,2.9-4.4,6.4-4.4,10.6s1.5,7.7,4.4,10.6c2.9,2.9,6.4,4.4,10.6,4.4
		c4.1,0,7.6-1.5,10.6-4.4c2.9-2.9,4.4-6.4,4.4-10.6v-25C199.6,2,199.3,1.3,198.7,0.8z M175.9,24.2c0.5-1.2,1.2-2.2,2-3
		c0.9-0.9,1.9-1.6,3-2c1.1-0.5,2.3-0.8,3.7-0.8c1.3,0,2.5,0.2,3.6,0.8c1.1,0.4,2.1,1.1,3,2c0.8,0.8,1.5,1.8,2,3
		c0.5,1.1,0.7,2.3,0.7,3.6c0,1.3-0.2,2.5-0.7,3.6c-0.5,1.1-1.2,2.1-2,3c-0.9,0.8-1.9,1.5-3,2c-1.2,0.5-2.4,0.8-3.6,0.8
		c-1.3,0-2.5-0.3-3.7-0.8c-1.2-0.5-2.1-1.2-3-2c-0.8-0.8-1.5-1.8-2-3c-0.5-1.1-0.7-2.3-0.7-3.6C175.2,26.5,175.4,25.3,175.9,24.2z"
		/>
	<path fill="#111111" d="M139.9,17.2c-1.8,1.7-3,3.7-3.7,6c-0.4,1.5-0.7,3-0.7,4.6c0,1.6,0.2,3.1,0.7,4.6c0.7,2.3,2,4.3,3.7,6
		c2.9,2.9,6.4,4.4,10.6,4.4c4.1,0,7.6-1.5,10.6-4.4c2.9-2.9,4.4-6.4,4.4-10.6c0-2.1-0.4-4-1.1-5.8s-1.8-3.4-3.3-4.8
		c-2.9-2.9-6.5-4.4-10.6-4.4C146.3,12.8,142.8,14.3,139.9,17.2z M141.8,24.2c0.4-1.1,1.1-2.1,2-3c0.9-0.9,1.9-1.6,3-2
		c1.1-0.5,2.3-0.8,3.7-0.8c1.3,0,2.6,0.2,3.6,0.8c1.1,0.4,2.1,1.1,3,2c0.8,0.9,1.5,1.9,2,3c0.5,1.1,0.7,2.3,0.7,3.6
		c0,1.3-0.3,2.5-0.7,3.6c-0.4,1.1-1.1,2.1-2,3c-0.9,0.8-1.9,1.5-3,2c-1.2,0.5-2.4,0.8-3.6,0.8c-1.3,0-2.5-0.3-3.7-0.8
		c-1.2-0.5-2.2-1.2-3-2c-0.9-0.9-1.5-1.9-2-3c-0.5-1.2-0.8-2.4-0.7-3.6C141.1,26.5,141.3,25.3,141.8,24.2z"/>
	<path fill="#111111" d="M128.1,0c-0.8,0-1.5,0.3-2,0.8c-0.5,0.5-0.8,1.2-0.8,2V40c0,0.8,0.3,1.4,0.8,2c0.5,0.6,1.2,0.8,2,0.8
		c0.8,0,1.4-0.3,2-0.8c0.5-0.5,0.8-1.2,0.8-2V2.8c0-0.8-0.3-1.5-0.8-2C129.5,0.3,128.9,0,128.1,0z"/>
	<path fill="#111111" d="M101.6,24.2c0.5-1.2,1.2-2.2,2-3c0.9-0.9,1.9-1.5,3-2c1.1-0.5,2.3-0.8,3.7-0.8c1.1,0,2.2,0.2,3.2,0.6
		c1,0.4,2,1,2.9,1.8c0.5,0.4,1.2,0.6,1.8,0.6c0.8,0,1.4-0.3,2-0.8c0.5-0.5,0.8-1.2,0.8-2c0-0.8-0.3-1.5-1-2.1
		c-2.8-2.4-6-3.6-9.8-3.6c-4.1,0-7.7,1.5-10.6,4.4c-1.3,1.2-2.3,2.6-3,4.1c-1,1.9-1.4,4.1-1.4,6.5c0,2.4,0.4,4.5,1.4,6.5
		c0.7,1.5,1.7,2.9,3,4.1c2.9,2.9,6.5,4.4,10.6,4.4c3.7,0,7-1.2,9.8-3.7c0.6-0.6,0.9-1.2,0.8-2c0-0.8-0.2-1.5-0.7-2
		c-0.6-0.5-1.2-0.8-2-0.8c-0.7,0-1.2,0.2-1.8,0.6c-0.9,0.8-1.9,1.4-2.8,1.7c-1,0.4-2.1,0.6-3.2,0.6c-1.2,0-2.4-0.3-3.7-0.8
		c-1.2-0.5-2.2-1.2-3-2c-0.9-0.9-1.6-1.9-2-3c-0.5-1.2-0.8-2.4-0.7-3.6C100.8,26.5,101.1,25.3,101.6,24.2z"/>
	<linearGradient id="SVGID_1_" gradientUnits="userSpaceOnUse" x1="0" y1="27.8644" x2="83.3555" y2="27.8644">
		<stop  offset="0" style="stop-color:#FFB61A"/>
		<stop  offset="1" style="stop-color:#C62727"/>
	</linearGradient>
	<path fill="url(#SVGID_1_)" d="M59.9,16c1.8-0.3,4,0.1,6.4,1.1c1.8,0.8,3.3,2.1,4.7,3.9c1.2-0.9,3.1-2.2,5.8-4.1
		c2.4-1.7,4.2-3,5.5-4l0.9-0.6l-0.6-0.8c0,0,0-0.1-0.1-0.1c-0.3-0.4-0.5-0.7-0.7-0.8c-1.7-2.1-4-4-6.8-5.8c-4.2-2.6-8.9-3.9-14-3.9
		c-17.4,0-30.4,0-39.1,0c-0.7,0-1.2,0.2-1.8,0.6c-0.6,0.4-0.9,0.9-1.1,1.6c-0.2,0.7-0.2,1.3,0.1,2c0.3,0.7,0.8,1.2,1.4,1.4
		c0.3,0.2,0.9,0.3,1.6,0.3l7.4,0c1.4,0,2.3,0.3,2.8,0.8c0.7,0.5,1,1.3,1.1,2.2c0,0.9-0.2,1.6-0.8,2.2c-0.6,0.8-1.6,1.1-3.1,1.1
		c-3,0-11.9,0-26.7,0c-0.5,0-1.1,0.1-1.6,0.4c-0.5,0.3-0.8,0.7-1.1,1.2c-0.3,0.6-0.4,1.3-0.2,2c0.2,0.7,0.6,1.3,1.2,1.6
		c0.5,0.4,1.2,0.5,2.2,0.5c2.9,0,7.1,0,12.8,0c1.4,0,2.3,0.3,2.8,0.8c0.6,0.5,1,1.2,1,2.1c0,0.9-0.2,1.6-0.8,2.2
		c-0.6,0.7-1.5,1-2.8,1c-0.1,0-0.1,0-0.2,0c-2,0-3.4,0-4.4,0.1c-0.9,0.1-1.6,0.5-2.1,1.3c-0.5,0.8-0.7,1.6-0.4,2.5
		c0.2,0.6,0.5,1.1,1.1,1.5c0.6,0.4,1.2,0.6,1.8,0.5h20.8c0.8,0,1.6,0.3,2.2,1c0.6,0.7,0.9,1.4,0.8,2.2c0,0.8-0.3,1.5-0.9,2.1
		c-0.6,0.6-1.3,0.9-2.1,0.8c-4.2,0-7.4,0-9.5,0c-0.8,0-1.4,0.3-2,0.9c-0.6,0.6-0.8,1.3-0.8,2c-0.1,0.7,0.2,1.4,0.8,2
		c0.5,0.6,1.2,0.9,1.9,1c0,0,0.7,0,1.9,0c0.8,0,1.3,0.2,1.8,0.5c1,0.6,1.5,1.7,1.3,3.1c-0.1,0.7-0.4,1.3-0.9,1.8
		c-0.6,0.5-1.2,0.8-1.9,0.8c-5.3,0-9.3,0-12,0c-1.1,0-1.9,0.4-2.5,1.4c-0.1,0.2-0.3,0.4-0.3,0.7c-0.1,0.4-0.1,0.7-0.1,1.2
		c0.1,0.7,0.3,1.2,0.8,1.7c0.3,0.4,0.9,0.7,1.9,1h49c0.4,0,1,0,1.8-0.2c0.8-0.1,1.4-0.2,1.8-0.3c3.2-0.6,6.3-1.7,9.2-3.4l0,0
		c2.1-1.3,4-2.9,5.8-4.7c0.2-0.3,0.5-0.6,1-1.1c0.4-0.4,0.7-0.8,1-1.2c0.2-0.3,0.4-0.5,0.5-0.6l-12.4-8.7c-1,1.3-2.3,2.4-3.7,3.3
		c-1.5,0.9-3.1,1.4-4.7,1.6c-2.6,0.3-5.1-0.2-7.4-1.6c-1.8-1-3.3-2.5-4.4-4.3c-1.1-1.9-1.6-3.9-1.6-5.9c-0.1-2.7,0.8-5.3,2.7-7.6
		c0.9-1.2,2.1-2.2,3.6-3C56.8,16.6,58.3,16.2,59.9,16z"/>
</g>
</svg>
