<?xml version="1.0" encoding="UTF-8" standalone="no"?>
<svg
   xmlns:dc="http://purl.org/dc/elements/1.1/"
   xmlns:cc="http://creativecommons.org/ns#"
   xmlns:rdf="http://www.w3.org/1999/02/22-rdf-syntax-ns#"
   xmlns:svg="http://www.w3.org/2000/svg"
   xmlns="http://www.w3.org/2000/svg"
   id="svg8"
   version="1.1"
   viewBox="0 0 173.67683 173.78348"
   height="173.78348mm"
   width="173.67683mm">
  <defs
     id="defs2" />
  <metadata
     id="metadata5">
    <rdf:RDF>
      <cc:Work
         rdf:about="">
        <dc:format>image/svg+xml</dc:format>
        <dc:type
           rdf:resource="http://purl.org/dc/dcmitype/StillImage" />
        <dc:title></dc:title>
      </cc:Work>
    </rdf:RDF>
  </metadata>
  <g
     transform="translate(-14.525465,-53.732099)"
     id="layer1">
    <path
       id="path21"
       d="M 95.741361,227.38448 C 69.826451,225.45051 46.935291,212.91542 31.559011,192.23851 7.7228014,160.18529 9.0242714,115.77073 34.702721,84.955358 c 2.40742,-2.88902 8.14337,-8.624978 11.03239,-11.032398 34.61204,-28.842198 85.249969,-26.536935 117.088479,5.330388 14.15757,14.17039 22.54982,31.595172 25.04659,52.004092 0.44282,3.61966 0.44282,15.16576 0,18.78542 -1.38346,11.30857 -4.47929,21.41209 -9.47445,30.92074 -5.59915,10.65836 -13.9036,20.66225 -23.12311,27.85508 -13.7893,10.75805 -29.91681,17.07295 -47.1764,18.47241 -3.1339,0.2541 -9.551289,0.30261 -12.354859,0.0934 z m 63.640489,-30.83784 c 15.26009,-16.04916 23.18487,-36.54082 22.53786,-58.27774 -0.25675,-8.62586 -1.96069,-17.55292 -4.84819,-25.4 -2.74309,-7.45464 -7.74962,-16.296142 -12.80972,-22.621872 -2.85212,-3.5655 -8.86991,-9.58245 -12.42877,-12.427037 -13.9015,-11.111428 -30.24663,-17.11873 -48.02187,-17.649406 -9.980369,-0.297961 -18.539159,0.943768 -27.858079,4.041716 -11.80723,3.925153 -22.42526,10.522233 -31.43202,19.528997 -9.00677,9.00676 -15.60385,19.624802 -19.529,31.432032 -3.09559,9.31181 -4.33759,17.86675 -4.04444,27.85807 0.36406,12.40753 3.06919,22.97633 8.73256,34.11758 3.81504,7.50514 8.40091,13.86122 14.50028,20.09759 l 3.34014,3.41516 0.7609,-0.53673 c 0.4185,-0.29521 6.71403,-3.77939 13.99007,-7.74262 7.27605,-3.96324 13.6307,-7.58025 14.12147,-8.0378 0.49076,-0.45756 1.17421,-1.42724 1.51877,-2.15484 0.59462,-1.25567 0.6266,-1.59624 0.62905,-6.69953 l 0.003,-5.37661 -1.78408,-2.69318 c -2.54328,-3.83925 -5.36684,-9.61743 -6.70541,-13.72208 -0.97679,-2.99528 -1.32489,-3.72141 -2.32323,-4.8461 -0.64586,-0.72761 -1.50897,-2.03729 -1.91803,-2.91042 -1.12825,-2.40822 -1.36567,-4.69621 -1.23447,-11.89631 0.12767,-7.00657 0.36668,-8.25311 2.0402,-10.64052 l 0.77498,-1.10559 0.10834,-10.66837 c 0.12322,-12.134052 0.19646,-12.651582 2.4514,-17.323562 3.60846,-7.47631 10.26579,-12.13243 20.45668,-14.307375 3.17452,-0.677506 3.72928,-0.714839 10.755489,-0.723814 6.12648,-0.0078 7.86614,0.07568 10.05417,0.482604 7.47147,1.389525 13.00407,4.009095 17.08375,8.088765 3.01282,3.01282 4.8459,6.16584 6.2403,10.73375 l 0.72691,2.381252 0.0979,10.664 0.098,10.66399 0.79096,1.17197 c 0.43502,0.64459 1.02832,1.87486 1.31844,2.73395 0.48976,1.45026 0.52174,2.14604 0.44707,9.72758 l -0.0805,8.1656 -0.73479,1.56901 c -0.97735,2.08699 -2.29109,3.64413 -4.12549,4.88984 -1.41572,0.9614 -1.56242,1.16432 -2.36032,3.26487 -1.80609,4.7547 -5.15035,10.86235 -8.0332,14.67113 l -1.28266,1.69463 v 5.23052 c 0,5.95597 0.21151,6.98319 1.80749,8.7783 0.82957,0.93308 3.20082,2.21373 16.31647,8.81214 l 15.34583,7.72039 0.96881,-0.73632 c 0.53285,-0.40498 2.12463,-1.9519 3.5373,-3.43761 z"
       style="fill:#feb519;stroke-width:0.26458335" />
  </g>
</svg>
