<?xml version="1.0" encoding="UTF-8" standalone="no"?>
<svg
   xmlns:dc="http://purl.org/dc/elements/1.1/"
   xmlns:cc="http://creativecommons.org/ns#"
   xmlns:rdf="http://www.w3.org/1999/02/22-rdf-syntax-ns#"
   xmlns:svg="http://www.w3.org/2000/svg"
   xmlns="http://www.w3.org/2000/svg"
   id="svg8"
   version="1.1"
   viewBox="0 0 331.32352 80.19088"
   height="80.19088mm"
   width="331.32352mm">
  <defs
     id="defs2" />
  <metadata
     id="metadata5">
    <rdf:RDF>
      <cc:Work
         rdf:about="">
        <dc:format>image/svg+xml</dc:format>
        <dc:type
           rdf:resource="http://purl.org/dc/dcmitype/StillImage" />
        <dc:title></dc:title>
      </cc:Work>
    </rdf:RDF>
  </metadata>
  <g
     transform="translate(34.687797,-115.91183)"
     id="layer1">
    <path
       id="path32"
       d="m 2.9985508,195.98842 c -3.85728704,-0.28493 -7.026873,-0.9296 -11.274454,-2.29313 -4.0342288,-1.29505 -4.6527798,-1.56866 -6.4683798,-2.86129 -0.673862,-0.47976 -1.944619,-1.23249 -2.823903,-1.67274 -2.99657,-1.50036 -8.89327,-7.50953 -10.828242,-11.03477 -0.399375,-0.72761 -1.245632,-2.05353 -1.880571,-2.94649 -0.634938,-0.89297 -1.263866,-2.0836 -1.397616,-2.64584 -0.2865,-1.20435 -1.367348,-5.09077 -2.335394,-8.3974 -0.621459,-2.12276 -0.686415,-2.77085 -0.676987,-6.75449 0.01086,-4.58714 0.2569,-6.49313 1.557349,-12.06411 1.305471,-5.5925 1.576702,-6.22276 5.165799,-12.00376 1.237391,-1.99309 8.166328,-8.84674 9.991977,-9.88342 0.81027,-0.4601 2.19606,-1.38717 3.079535,-2.06014 1.082762,-0.82479 2.246958,-1.41875 3.571875,-1.82236 1.081056,-0.32932 2.6204018,-0.84207 3.4207658,-1.13944 3.376777,-1.25461 8.79744396,-2.22405 13.643107,-2.43995 2.759996,-0.12298 3.38673,-0.0709 4.6302092,0.38498 0.790979,0.28997 2.241814,0.60253 3.22408,0.69458 0.982265,0.0921 1.785937,0.27228 1.785937,0.40051 0,0.31409 0.880719,0.63902 4.630208,1.70825 2.08093,0.59341 3.585277,1.19497 4.365625,1.74575 0.654844,0.46219 2.202657,1.53393 3.439584,2.38164 2.07831,1.42434 5.374269,4.22009 7.276041,6.1718 0.436563,0.44803 1.140685,1.46172 1.56472,2.25266 0.424031,0.79093 1.453279,2.29273 2.287219,3.33733 1.05479,1.32124 1.69706,2.44857 2.11034,3.70417 0.32675,0.99269 1.05663,2.83923 1.62197,4.10342 1.52912,3.41941 2.05664,5.82974 2.24602,10.26255 0.18232,4.26764 -0.22586,10.25755 -0.88392,12.97122 -0.22938,0.94588 -0.88575,2.65604 -1.45861,3.80035 -0.57286,1.1443 -1.38113,2.9624 -1.79616,4.04022 -0.41503,1.07782 -1.34237,2.76094 -2.06077,3.74028 -0.718387,0.97933 -1.721419,2.43862 -2.228956,3.24286 -1.137264,1.8021 -6.252319,6.64248 -8.484106,8.0285 -2.096074,1.30175 -8.118239,4.20084 -9.85108,4.74234 -0.727604,0.22738 -1.97776,0.5519 -2.778125,0.72117 -0.800364,0.16927 -2.229114,0.47783 -3.175,0.68569 -0.945885,0.20786 -2.4341662,0.48647 -3.3072912,0.61913 -0.873125,0.13267 -1.944688,0.29526 -2.38125,0.36132 -0.436563,0.0661 -2.021258,0.0294 -3.521546,-0.0814 z M 13.266972,185.32687 c 4.023344,-1.11265 4.822629,-1.44136 6.349999,-2.61154 0.654844,-0.5017 1.841953,-1.26319 2.638021,-1.69218 2.04512,-1.1021 4.569314,-3.57324 7.201225,-7.04985 1.975466,-2.60948 2.453119,-3.46604 3.748431,-6.72195 1.989103,-4.99983 2.337917,-6.73496 2.329135,-11.58602 -0.008,-4.4508 -0.250116,-5.79985 -1.548003,-8.62738 -0.500975,-1.09141 -1.258088,-2.87735 -1.682475,-3.96875 -1.354433,-3.48325 -5.395295,-8.22354 -10.005319,-11.73713 -3.357303,-2.55881 -4.159213,-3.01762 -5.856015,-3.35051 -0.800364,-0.15702 -2.633852,-0.63653 -4.074416,-1.06559 -2.4319492,-0.72433 -2.9237702,-0.77978 -6.8791672,-0.77551 -4.432038,0.005 -5.26874504,0.12595 -10.490517,1.51922 -2.901323,0.77413 -3.702124,1.18126 -7.3092468,3.71603 -2.555221,1.79559 -7.013381,6.26136 -7.805031,7.81835 -0.306773,0.60336 -1.000053,1.75186 -1.540621,2.55222 -2.410073,3.56835 -2.916509,5.68749 -3.101591,12.97834 -0.205842,8.10862 0.336602,11.32082 2.427475,14.37485 0.638167,0.93214 1.569898,2.58132 2.070513,3.66483 0.716206,1.55013 1.412946,2.48097 3.268914,4.36722 1.359156,1.38134 3.084631,2.82223 4.07172,3.40015 0.942155,0.55162 2.382703,1.49541 3.2012148,2.09732 1.898983,1.39645 2.190578,1.51023 7.110754,2.77454 4.099097,1.05333 4.103047,1.05378 8.334375,0.94589 3.825277,-0.0975 4.5521272,-0.19609 7.5406252,-1.02255 z M 1.7575968,177.59845 c -2.991885,-0.47362 -4.070895,-0.80596 -5.444006,-1.67676 -1.294823,-0.82115 -2.816357,-2.70696 -3.557976,-4.40979 -0.700739,-1.60896 -0.60828,-4.78059 0.215966,-7.40833 0.737841,-2.35227 1.134337,-4.10406 1.377365,-6.08542 0.08925,-0.7276 0.447434,-2.81192 0.795975,-4.63181 0.348538,-1.81989 0.755843,-4.97505 0.905121,-7.01145 0.149281,-2.03642 0.403617,-4.17882 0.565195,-4.7609 0.755819,-2.72284 2.50428696,-4.42135 5.205794,-5.05706 1.963835,-0.46212 2.584079,-0.45574 4.266522,0.0439 1.742324,0.51741 2.32836,1.39688 2.570888,3.85818 0.287242,2.91505 1.227219,3.93262 3.6335672,3.93351 3.101602,0.001 4.756513,2.7955 3.361833,5.67653 -0.688012,1.42124 -1.67527,1.96375 -4.3664,2.39939 -3.6678052,0.59374 -4.7194342,1.49971 -5.0396722,4.34164 -0.09127,0.80996 -0.513816,2.9047 -0.938996,4.65498 -1.188495,4.89251 -1.002514,7.90625 0.569529,9.22904 0.892606,0.75108 1.86739,1.06254 4.6868352,1.49755 3.218042,0.49651 4.456382,2.16643 2.76798,3.73267 -0.947483,0.87893 -2.00516,1.21914 -5.2255202,1.68085 -3.078978,0.44143 -3.522017,0.44096 -6.35,-0.007 z m 63.5503382,1.1783 c -0.55439,-0.13843 -1.22113,-0.36576 -1.48164,-0.50517 -0.2605,-0.13942 -1.39911,-0.5015 -2.53024,-0.80462 -2.64529,-0.70888 -3.48227,-1.15498 -4.12319,-2.19759 -0.66062,-1.07464 -0.98438,-2.26348 -1.30491,-4.79162 -0.21033,-1.65889 -0.16122,-2.55292 0.27969,-5.09205 0.29414,-1.69393 0.70652,-4.9971 0.91639,-7.34038 0.22266,-2.486 0.60434,-4.97679 0.91641,-5.98029 0.29415,-0.94589 0.95398,-3.80339 1.46627,-6.35 1.09633,-5.44981 1.77491,-7.66122 2.57879,-8.4039 1.06549,-0.98438 2.49275,-1.22023 5.34706,-0.88361 3.74884,0.44213 4.26184,0.8431 4.65378,3.63754 0.1399,0.99743 0.31696,2.01454 0.39348,2.26024 0.25534,0.81989 1.91308,2.01391 3.39359,2.44431 2.17816,0.63321 2.86238,1.33655 2.99957,3.0834 0.0904,1.1512 -0.0129,1.66863 -0.52399,2.62452 -0.9646,1.80407 -2.30059,2.61049 -4.78666,2.88928 -2.22325,0.24933 -3.04616,0.73115 -3.58289,2.09779 -0.46142,1.17489 -1.88372,10.3553 -1.88372,12.15868 0,2.06876 0.53612,3.29761 1.81902,4.16936 0.82373,0.55974 1.24981,0.64531 3.21341,0.64531 2.76641,0 4.57053,0.72223 4.70524,1.88364 0.12045,1.0385 -1.23283,2.25234 -3.07522,2.75835 -0.82669,0.22705 -2.49447,0.71092 -3.70616,1.07528 -2.59974,0.78173 -4.2985,0.96748 -5.68408,0.62153 z m 187.803815,-0.399 c -1.16416,-0.35553 -2.89057,-0.8319 -3.83646,-1.05858 -0.94588,-0.22669 -2.16384,-0.52866 -2.70658,-0.67106 -0.54342,-0.14258 -1.67272,-0.86086 -2.51354,-1.59873 -0.83971,-0.73691 -1.94347,-1.55374 -2.45279,-1.81519 -1.42624,-0.73211 -1.76115,-1.27809 -2.27365,-3.70666 -0.5838,-2.7664 -0.63108,-6.75167 -0.12962,-10.9243 0.33944,-2.82442 0.33417,-3.20438 -0.0557,-4.02187 -0.53084,-1.11316 -1.96578,-1.58282 -4.21802,-1.38056 -2.8222,0.25344 -4.48839,1.53538 -5.3875,4.14502 -0.74633,2.16624 -1.69388,7.64484 -1.69388,9.79372 0,3.79297 0.93935,4.8017 5.0914,5.46744 2.47705,0.39717 3.74724,0.91463 4.26453,1.7373 0.79589,1.26581 -3.77659,3.5563 -8.42391,4.21978 -1.8982,0.271 -2.35019,0.24508 -4.27437,-0.2451 -1.18343,-0.30148 -3.0289,-0.91442 -4.10105,-1.3621 -5.12609,-2.14044 -5.75055,-4.78901 -3.65429,-15.49912 0.96383,-4.92435 1.00198,-6.29606 0.1909,-6.86417 -1.00441,-0.70351 -2.59193,-0.35624 -4.00818,0.8768 -0.53733,0.46782 -3.77691,5.32488 -5.65562,8.47939 -0.64295,1.07956 -1.62215,2.50831 -2.17599,3.175 -0.55384,0.66668 -1.45479,2.03648 -2.00211,3.04399 -2.92871,5.39128 -5.11568,7.51236 -7.38932,7.16668 -2.21201,-0.33631 -3.64026,-2.07956 -4.99767,-6.09994 -1.78169,-5.27703 -3.6576,-8.05796 -5.43559,-8.05796 -0.8357,0 -2.04691,1.16243 -2.82949,2.71555 -0.23732,0.47098 -0.87198,1.39211 -1.41035,2.04695 -0.53838,0.65484 -1.37979,1.78594 -1.8698,2.51354 -1.77033,2.62871 -4.60789,5.99527 -5.40535,6.41306 -1.33549,0.69966 -3.056,0.5632 -4.32339,-0.34291 -1.46798,-1.04952 -2.01966,-2.26818 -2.99509,-6.61625 -0.45495,-2.02798 -1.23682,-4.75879 -1.73748,-6.06848 -0.50067,-1.30969 -1.31732,-4.13981 -1.81478,-6.28916 -1.2157,-5.25269 -1.95829,-6.71824 -2.89797,-5.71942 -0.87027,0.92504 -1.2979,3.40197 -2.11911,12.27433 -0.60115,6.49485 -2.07769,10.85928 -4.09918,12.11659 -0.89363,0.55581 -1.16763,0.57858 -6.03651,0.50164 -4.27015,-0.0675 -5.51914,0.005 -7.67292,0.44461 -4.07927,0.83282 -4.7171,0.87497 -9.05481,0.5983 -5.9075,-0.37679 -7.58048,-1.06045 -9.34986,-3.82076 -1.25213,-1.95341 -1.63998,-2.23333 -2.43012,-1.75391 -0.34499,0.20933 -1.08009,1.02445 -1.63354,1.81137 -0.55345,0.78692 -1.30393,1.64572 -1.66773,1.90844 -1.29591,0.93584 -6.86763,1.36842 -8.55338,0.66406 -1.79283,-0.74909 -2.13449,-2.13473 -1.60727,-6.51838 0.4368,-3.63192 0.50429,-3.9842 1.31796,-6.87917 0.7751,-2.75776 1.43458,-6.1664 1.43332,-7.40833 -0.001,-1.27309 -0.82424,-2.50969 -2.28791,-3.43792 -2.13062,-1.3512 -2.74272,-1.44823 -4.9233,-0.78047 -2.252425,0.68976 -4.312995,1.66857 -5.182155,2.46164 -1.52357,1.39016 -1.84722,2.88628 -3.09884,14.32445 -0.49361,4.51095 -0.92388,5.94196 -2.09602,6.97112 -1.30029,1.14167 -2.58512,1.49406 -5.45023,1.49485 -2.36023,5.3e-4 -2.62333,-0.0543 -3.83065,-0.80078 -2.0304,-1.25529 -2.20236,-1.75766 -1.50837,-4.40655 0.31706,-1.21017 0.7642,-3.72548 0.99365,-5.58959 0.6786,-5.51305 1.68397,-11.01542 2.42638,-13.27946 1.03171,-3.14631 1.11714,-3.62249 1.41418,-7.88239 0.66277,-9.50502 1.86531,-11.26555 7.77832,-11.38752 2.66105,-0.0549 3.50884,0.32403 4.33978,1.9397 0.58624,1.13986 0.6048,1.35503 0.43534,5.04629 -0.17452,3.80165 -0.16817,3.86593 0.45343,4.58859 0.8368,0.97283 1.95701,0.98467 4.294705,0.0454 l 1.82706,-0.73413 4.91981,0.24298 c 5.58894,0.27604 5.85213,0.35813 8.18044,2.55179 3.32846,3.13596 3.71819,5.3061 2.31043,12.86537 -0.39813,2.13784 -0.31168,3.2382 0.29388,3.74077 0.31346,0.26015 0.60166,0.0667 1.59911,-1.07357 0.85044,-0.97218 1.78189,-1.66565 3.09405,-2.30351 1.06741,-0.51889 2.45456,-1.48196 3.21533,-2.23234 l 1.33802,-1.31974 2.76303,-0.27221 c 5.72732,-0.56426 7.99648,-0.59468 10.25301,-0.13744 1.9027,0.38553 2.25938,0.39167 3.07033,0.0528 0.74705,-0.31213 0.95239,-0.56914 1.1051,-1.38312 0.26714,-1.42398 -0.47764,-2.70903 -2.00813,-3.46488 -1.39516,-0.68901 -4.55866,-1.39637 -6.24498,-1.39637 -1.40014,0 -5.33628,1.4481 -7.6212,2.80384 -1.8203,1.08005 -2.64681,1.08511 -3.43786,0.021 -0.80649,-1.08486 -0.74658,-2.7495 0.14051,-3.9038 0.76369,-0.99372 4.45424,-3.20813 7.29572,-4.37759 1.68411,-0.69312 2.09001,-0.74658 6.40698,-0.84376 7.16906,-0.16139 10.68576,0.44589 12.77823,2.20659 1.29581,1.09035 2.74606,1.71244 3.99211,1.71244 1.06405,0 1.25031,-0.1074 2.25734,-1.30168 1.37542,-1.63118 2.21319,-1.91434 5.81489,-1.96547 3.55218,-0.0504 4.48411,0.33313 5.6195,2.31283 0.87743,1.52993 2.44528,6.1146 2.90506,8.49495 0.66682,3.4522 1.77036,4.78898 3.39715,4.11514 0.76913,-0.31858 3.64882,-4.1686 5.45279,-7.29014 0.80575,-1.39426 4.19233,-5.75321 5.09643,-6.55975 0.76327,-0.68091 2.21234,-0.85248 3.14157,-0.37196 2.03918,1.05451 3.01724,2.72293 3.9475,6.73388 0.36274,1.56401 0.85058,3.28143 1.08409,3.81647 1.10185,2.5247 3.58802,3.26931 5.27689,1.58044 0.37917,-0.37918 1.13731,-1.60321 1.68475,-2.72007 0.54744,-1.11686 1.41451,-2.54826 1.92683,-3.18088 0.51231,-0.63262 1.42853,-2.03429 2.03603,-3.11482 1.20926,-2.15084 1.49467,-2.44933 3.06321,-3.20347 0.84017,-0.40396 1.64823,-0.51004 3.92,-0.51466 1.58351,-0.003 3.1198,-0.13842 3.43957,-0.30272 1.30448,-0.67019 2.05912,-1.69105 2.61157,-3.53293 0.97949,-3.26553 1.64447,-3.81205 5.31038,-4.36437 2.51864,-0.37948 4.70786,-0.0186 5.65941,0.93297 0.49278,0.49276 0.62502,0.9148 0.63415,2.0237 0.0198,2.40962 0.38873,3.69647 1.29074,4.50243 0.76547,0.68395 0.98238,0.73511 3.11629,0.73511 2.905,0 4.2776,0.58504 5.24484,2.2355 1.08286,1.8478 1.48846,2.09511 3.15402,1.92321 1.42142,-0.1467 2.6892,-0.6857 6.28986,-2.67415 0.99131,-0.54744 2.9074,-1.2681 4.3334,-1.62984 2.26803,-0.57534 3.12102,-0.64847 7.5634,-0.64847 6.78376,0 9.08442,0.52074 11.72612,2.65416 0.58209,0.47008 1.855,1.36962 2.82869,1.99896 0.97369,0.62935 1.91688,1.41743 2.09595,1.7513 0.17907,0.33387 0.66233,1.72775 1.07392,3.09751 1.2628,4.20272 0.90334,6.54433 -1.3112,8.54093 -1.35046,1.21755 -2.44348,1.43623 -4.99623,0.99957 -1.42288,-0.24339 -3.6058,-0.2945 -7.71679,-0.18066 -3.15298,0.0873 -7.1906,0.0558 -8.97255,-0.0701 -3.58211,-0.25303 -4.84444,-0.0558 -5.48357,0.85667 -0.85127,1.21536 -0.22365,3.84526 1.24921,5.23444 1.06278,1.00242 4.07792,2.61745 5.65205,3.02746 3.92208,1.02156 8.55136,-0.0774 12.10435,-2.87363 2.02639,-1.59475 3.22029,-1.96758 4.3801,-1.36782 0.88243,0.45633 1.61043,1.74486 1.60864,2.84721 -0.003,0.9554 -0.90901,2.19699 -2.29415,3.13891 -0.70221,0.47752 -1.74356,1.26238 -2.3141,1.74413 -1.42539,1.20359 -2.98048,1.73046 -8.37647,2.838 -5.65375,1.16044 -7.88382,1.21697 -10.9591,0.27778 z m -112.7125,-7.09235 c 3.67894,-0.98033 5.42396,-2.86613 5.42396,-5.86151 0,-1.8015 -0.55245,-2.96947 -1.51936,-3.21214 -0.39379,-0.0988 -1.49295,-0.0375 -2.44258,0.13622 -0.94963,0.17375 -2.5005,0.4449 -3.44639,0.60255 -2.20333,0.36723 -3.41209,0.99229 -4.59787,2.3776 -1.18473,1.3841 -1.42622,2.50049 -0.81809,3.78202 1.03808,2.18759 4.04127,3.07035 7.40033,2.17526 z m 126.80157,-15.4021 c 1.11757,-1.16981 1.13463,-2.16402 0.0582,-3.39003 -2.02387,-2.30506 -7.01677,-2.58247 -10.43421,-0.57973 -2.29026,1.34218 -3.30171,3.64309 -2.04782,4.65843 0.49707,0.40251 1.15488,0.43848 6.06075,0.33146 l 5.50318,-0.12006 z m 22.9526,-8.74514 -2.38125,-0.66606 -1.73855,0.54751 c -3.80786,1.19916 -5.10117,0.44402 -5.79528,-3.3837 -0.38452,-2.12048 -0.0442,-3.30738 1.12112,-3.90998 0.75536,-0.39062 0.99166,-0.38747 3.03046,0.0404 2.19401,0.46043 2.23102,0.45927 4.75599,-0.14894 2.48703,-0.59907 2.5844,-0.60284 4.28969,-0.16586 0.9597,0.24592 2.07232,0.44613 2.47251,0.44491 l 0.7276,-0.002 v 3.83646 3.83645 l -0.7276,0.002 c -0.40019,0.001 -1.32292,0.0546 -2.05052,0.11855 -0.90665,0.0797 -2.07222,-0.0933 -3.70417,-0.5498 z"
       style="fill:#9f9f9f;stroke-width:0.26458332" />
  </g>
</svg>
